<mxfile host="app.diagrams.net" modified="2024-02-15T01:31:01.895Z" agent="Mozilla/5.0 (Macintosh; Intel Mac OS X 10_15_7) AppleWebKit/605.1.15 (KHTML, like Gecko) Version/16.1 Safari/605.1.15" etag="LW-99eJVKAkPeiPuUFlu" version="23.1.4" type="device">
  <diagram name="Page-1" id="4a_VcGAaHWB8GW_EWmYA">
    <mxGraphModel dx="1706" dy="843" grid="1" gridSize="10" guides="1" tooltips="1" connect="1" arrows="1" fold="1" page="1" pageScale="1" pageWidth="1100" pageHeight="850" math="0" shadow="0">
      <root>
        <mxCell id="0" />
        <mxCell id="1" parent="0" />
        <mxCell id="2QkoAGvNNi4vZXoWZFzB-1" value="&lt;p style=&quot;margin: 0in; line-height: 32px; font-family: Calibri, sans-serif; text-align: start;&quot; class=&quot;MsoNormal&quot;&gt;&lt;font style=&quot;font-size: 18px;&quot;&gt;X(&lt;i style=&quot;border-color: var(--border-color); font-family: Helvetica; text-align: center;&quot;&gt;t+2Δ&lt;span style=&quot;border-color: var(--border-color); box-sizing: border-box; font-family: KaTeX_Math, &amp;quot;Times New Roman&amp;quot;, Times, serif;&quot;&gt;t&lt;/span&gt;&lt;/i&gt;&lt;span style=&quot;font-family: Helvetica; text-align: center;&quot;&gt;)&lt;/span&gt;&lt;/font&gt;&lt;br&gt;&lt;/p&gt;" style="ellipse;whiteSpace=wrap;html=1;aspect=fixed;strokeWidth=3;" parent="1" vertex="1">
          <mxGeometry x="60" y="126" width="80" height="80" as="geometry" />
        </mxCell>
        <mxCell id="2QkoAGvNNi4vZXoWZFzB-2" value="&lt;font style=&quot;font-size: 18px;&quot;&gt;X(&lt;i style=&quot;border-color: var(--border-color);&quot;&gt;t+Δ&lt;span style=&quot;border-color: var(--border-color); box-sizing: border-box; font-family: KaTeX_Math, &amp;quot;Times New Roman&amp;quot;, Times, serif;&quot;&gt;t&lt;/span&gt;&lt;/i&gt;&lt;span style=&quot;border-color: var(--border-color);&quot;&gt;)&lt;/span&gt;&lt;/font&gt;" style="ellipse;whiteSpace=wrap;html=1;aspect=fixed;strokeWidth=3;" parent="1" vertex="1">
          <mxGeometry x="60" y="286" width="80" height="80" as="geometry" />
        </mxCell>
        <mxCell id="2QkoAGvNNi4vZXoWZFzB-3" value="&lt;font style=&quot;font-size: 18px;&quot;&gt;X(&lt;i style=&quot;border-color: var(--border-color);&quot;&gt;t&lt;/i&gt;)&lt;/font&gt;" style="ellipse;whiteSpace=wrap;html=1;aspect=fixed;strokeWidth=3;" parent="1" vertex="1">
          <mxGeometry x="60" y="446" width="80" height="80" as="geometry" />
        </mxCell>
        <mxCell id="7Py_eHLOxnhh6DlCSyJY-1" value="" style="endArrow=open;html=1;rounded=0;endFill=0;strokeWidth=2;" parent="1" edge="1">
          <mxGeometry width="50" height="50" relative="1" as="geometry">
            <mxPoint x="99.5" y="286" as="sourcePoint" />
            <mxPoint x="99.5" y="206" as="targetPoint" />
          </mxGeometry>
        </mxCell>
        <mxCell id="7Py_eHLOxnhh6DlCSyJY-3" value="" style="endArrow=open;html=1;rounded=0;endFill=0;strokeWidth=2;" parent="1" edge="1">
          <mxGeometry width="50" height="50" relative="1" as="geometry">
            <mxPoint x="99.5" y="446" as="sourcePoint" />
            <mxPoint x="99.5" y="366" as="targetPoint" />
          </mxGeometry>
        </mxCell>
        <mxCell id="7Py_eHLOxnhh6DlCSyJY-4" value="" style="endArrow=open;html=1;rounded=0;endFill=0;strokeWidth=2;" parent="1" edge="1">
          <mxGeometry width="50" height="50" relative="1" as="geometry">
            <mxPoint x="99.5" y="126" as="sourcePoint" />
            <mxPoint x="100" y="86" as="targetPoint" />
          </mxGeometry>
        </mxCell>
        <mxCell id="7Py_eHLOxnhh6DlCSyJY-5" value="&lt;font style=&quot;font-size: 18px;&quot;&gt;&lt;b&gt;I&lt;sub&gt;3&lt;/sub&gt;&lt;/b&gt;&lt;/font&gt;" style="ellipse;whiteSpace=wrap;html=1;aspect=fixed;strokeWidth=3;" parent="1" vertex="1">
          <mxGeometry x="204" y="307" width="80" height="80" as="geometry" />
        </mxCell>
        <mxCell id="7Py_eHLOxnhh6DlCSyJY-6" value="&lt;font style=&quot;font-size: 18px;&quot;&gt;&lt;b&gt;S&lt;/b&gt;&lt;/font&gt;" style="ellipse;whiteSpace=wrap;html=1;aspect=fixed;strokeWidth=3;" parent="1" vertex="1">
          <mxGeometry x="364" y="307" width="80" height="80" as="geometry" />
        </mxCell>
        <mxCell id="7Py_eHLOxnhh6DlCSyJY-7" value="&lt;font style=&quot;font-size: 18px;&quot;&gt;&lt;b&gt;I&lt;sub&gt;2&lt;/sub&gt;&lt;/b&gt;&lt;/font&gt;" style="ellipse;whiteSpace=wrap;html=1;aspect=fixed;strokeWidth=3;" parent="1" vertex="1">
          <mxGeometry x="524" y="307" width="80" height="80" as="geometry" />
        </mxCell>
        <mxCell id="7Py_eHLOxnhh6DlCSyJY-11" value="" style="curved=1;endArrow=open;html=1;rounded=0;entryX=0.688;entryY=0.963;entryDx=0;entryDy=0;exitX=0.313;exitY=0.988;exitDx=0;exitDy=0;exitPerimeter=0;strokeWidth=2;entryPerimeter=0;endFill=0;" parent="1" target="7Py_eHLOxnhh6DlCSyJY-5" edge="1">
          <mxGeometry width="50" height="50" relative="1" as="geometry">
            <mxPoint x="390.03999999999996" y="397.03999999999996" as="sourcePoint" />
            <mxPoint x="245" y="398" as="targetPoint" />
            <Array as="points">
              <mxPoint x="375" y="418" />
              <mxPoint x="324" y="438" />
              <mxPoint x="274" y="418" />
            </Array>
          </mxGeometry>
        </mxCell>
        <mxCell id="7Py_eHLOxnhh6DlCSyJY-43" value="&lt;font&gt;&lt;sub style=&quot;border-color: var(--border-color); font-family: KaTeX_Math, &amp;quot;Times New Roman&amp;quot;, Times, serif;&quot;&gt;&lt;font style=&quot;font-size: 18px;&quot;&gt;δ&lt;/font&gt;&lt;font size=&quot;4&quot;&gt;&lt;sub&gt;1,3&lt;/sub&gt;&lt;/font&gt;&lt;/sub&gt;&lt;/font&gt;" style="edgeLabel;html=1;align=center;verticalAlign=middle;resizable=0;points=[];" parent="7Py_eHLOxnhh6DlCSyJY-11" vertex="1" connectable="0">
          <mxGeometry x="0.1656" y="-2" relative="1" as="geometry">
            <mxPoint x="12" as="offset" />
          </mxGeometry>
        </mxCell>
        <mxCell id="7Py_eHLOxnhh6DlCSyJY-12" value="" style="curved=1;endArrow=open;html=1;rounded=0;strokeWidth=2;exitX=0.688;exitY=0.05;exitDx=0;exitDy=0;exitPerimeter=0;entryX=0.3;entryY=0.063;entryDx=0;entryDy=0;entryPerimeter=0;endFill=0;" parent="1" target="7Py_eHLOxnhh6DlCSyJY-6" edge="1">
          <mxGeometry width="50" height="50" relative="1" as="geometry">
            <mxPoint x="260.03999999999996" y="311" as="sourcePoint" />
            <mxPoint x="385" y="307" as="targetPoint" />
            <Array as="points">
              <mxPoint x="284" y="277" />
              <mxPoint x="354" y="277" />
            </Array>
          </mxGeometry>
        </mxCell>
        <mxCell id="7Py_eHLOxnhh6DlCSyJY-24" value="&lt;font style=&quot;border-color: var(--border-color); font-family: KaTeX_Math, &amp;quot;Times New Roman&amp;quot;, Times, serif; font-size: 18px;&quot;&gt;δ&lt;/font&gt;&lt;font style=&quot;border-color: var(--border-color); font-family: KaTeX_Math, &amp;quot;Times New Roman&amp;quot;, Times, serif;&quot; size=&quot;4&quot;&gt;&lt;sub style=&quot;border-color: var(--border-color);&quot;&gt;3,1&lt;/sub&gt;&lt;/font&gt;" style="edgeLabel;html=1;align=center;verticalAlign=middle;resizable=0;points=[];" parent="7Py_eHLOxnhh6DlCSyJY-12" vertex="1" connectable="0">
          <mxGeometry x="-0.1448" y="-1" relative="1" as="geometry">
            <mxPoint x="13" as="offset" />
          </mxGeometry>
        </mxCell>
        <mxCell id="7Py_eHLOxnhh6DlCSyJY-13" value="" style="curved=1;endArrow=open;html=1;rounded=0;strokeWidth=2;exitX=0.725;exitY=0.963;exitDx=0;exitDy=0;exitPerimeter=0;entryX=0.288;entryY=0.975;entryDx=0;entryDy=0;entryPerimeter=0;endFill=0;" parent="1" source="7Py_eHLOxnhh6DlCSyJY-6" target="7Py_eHLOxnhh6DlCSyJY-7" edge="1">
          <mxGeometry width="50" height="50" relative="1" as="geometry">
            <mxPoint x="424" y="278" as="sourcePoint" />
            <mxPoint x="384" y="538" as="targetPoint" />
            <Array as="points">
              <mxPoint x="454" y="438" />
              <mxPoint x="524" y="428" />
            </Array>
          </mxGeometry>
        </mxCell>
        <mxCell id="7Py_eHLOxnhh6DlCSyJY-23" value="&lt;font style=&quot;font-size: 18px;&quot;&gt;&lt;span style=&quot;border-color: var(--border-color); font-family: KaTeX_Math, &amp;quot;Times New Roman&amp;quot;, Times, serif;&quot;&gt;δ&lt;sub&gt;1,2&lt;/sub&gt;&lt;/span&gt;&lt;/font&gt;" style="edgeLabel;html=1;align=center;verticalAlign=middle;resizable=0;points=[];" parent="7Py_eHLOxnhh6DlCSyJY-13" vertex="1" connectable="0">
          <mxGeometry x="0.2747" y="2" relative="1" as="geometry">
            <mxPoint x="-17" y="4" as="offset" />
          </mxGeometry>
        </mxCell>
        <mxCell id="7Py_eHLOxnhh6DlCSyJY-14" value="" style="curved=1;endArrow=open;html=1;rounded=0;entryX=0.713;entryY=0.063;entryDx=0;entryDy=0;exitX=0.288;exitY=0.075;exitDx=0;exitDy=0;exitPerimeter=0;strokeWidth=2;entryPerimeter=0;endFill=0;" parent="1" source="7Py_eHLOxnhh6DlCSyJY-7" target="7Py_eHLOxnhh6DlCSyJY-6" edge="1">
          <mxGeometry width="50" height="50" relative="1" as="geometry">
            <mxPoint x="535.04" y="309.03999999999996" as="sourcePoint" />
            <mxPoint x="404" y="307" as="targetPoint" />
            <Array as="points">
              <mxPoint x="534" y="287" />
              <mxPoint x="484" y="277" />
              <mxPoint x="444" y="287" />
            </Array>
          </mxGeometry>
        </mxCell>
        <mxCell id="7Py_eHLOxnhh6DlCSyJY-22" value="&lt;span style=&quot;box-sizing: border-box; font-family: KaTeX_Math, &amp;quot;Times New Roman&amp;quot;, Times, serif;&quot;&gt;&lt;font style=&quot;font-size: 18px;&quot;&gt;δ&lt;sub&gt;2,1&lt;/sub&gt;&lt;/font&gt;&lt;/span&gt;" style="edgeLabel;html=1;align=center;verticalAlign=middle;resizable=0;points=[];" parent="7Py_eHLOxnhh6DlCSyJY-14" vertex="1" connectable="0">
          <mxGeometry x="-0.1252" relative="1" as="geometry">
            <mxPoint x="-11" as="offset" />
          </mxGeometry>
        </mxCell>
        <mxCell id="7Py_eHLOxnhh6DlCSyJY-15" value="&lt;font style=&quot;font-size: 18px;&quot;&gt;&lt;b&gt;I&lt;sub&gt;2&lt;/sub&gt;&lt;/b&gt;&lt;/font&gt;" style="ellipse;whiteSpace=wrap;html=1;aspect=fixed;strokeWidth=3;" parent="1" vertex="1">
          <mxGeometry x="204" y="478" width="80" height="80" as="geometry" />
        </mxCell>
        <mxCell id="7Py_eHLOxnhh6DlCSyJY-16" value="&lt;b style=&quot;border-color: var(--border-color); font-size: 18px;&quot;&gt;I&lt;sub style=&quot;border-color: var(--border-color);&quot;&gt;3&lt;/sub&gt;&lt;/b&gt;" style="ellipse;whiteSpace=wrap;html=1;aspect=fixed;strokeWidth=3;" parent="1" vertex="1">
          <mxGeometry x="294" y="478" width="80" height="80" as="geometry" />
        </mxCell>
        <mxCell id="7Py_eHLOxnhh6DlCSyJY-17" value="&lt;font style=&quot;font-size: 18px;&quot;&gt;&lt;b&gt;I&lt;sub&gt;17&lt;/sub&gt;&lt;/b&gt;&lt;/font&gt;" style="ellipse;whiteSpace=wrap;html=1;aspect=fixed;strokeWidth=3;" parent="1" vertex="1">
          <mxGeometry x="524" y="478" width="80" height="80" as="geometry" />
        </mxCell>
        <mxCell id="7Py_eHLOxnhh6DlCSyJY-27" value="" style="shape=waypoint;sketch=0;size=6;pointerEvents=1;points=[];fillColor=none;resizable=0;rotatable=0;perimeter=centerPerimeter;snapToPoint=1;" parent="1" vertex="1">
          <mxGeometry x="469" y="508" width="20" height="20" as="geometry" />
        </mxCell>
        <mxCell id="7Py_eHLOxnhh6DlCSyJY-28" value="" style="shape=waypoint;sketch=0;size=6;pointerEvents=1;points=[];fillColor=none;resizable=0;rotatable=0;perimeter=centerPerimeter;snapToPoint=1;" parent="1" vertex="1">
          <mxGeometry x="478" y="508" width="20" height="20" as="geometry" />
        </mxCell>
        <mxCell id="7Py_eHLOxnhh6DlCSyJY-29" value="" style="shape=waypoint;sketch=0;size=6;pointerEvents=1;points=[];fillColor=none;resizable=0;rotatable=0;perimeter=centerPerimeter;snapToPoint=1;" parent="1" vertex="1">
          <mxGeometry x="490" y="508" width="20" height="20" as="geometry" />
        </mxCell>
        <mxCell id="7Py_eHLOxnhh6DlCSyJY-30" value="" style="shape=waypoint;sketch=0;size=6;pointerEvents=1;points=[];fillColor=none;resizable=0;rotatable=0;perimeter=centerPerimeter;snapToPoint=1;" parent="1" vertex="1">
          <mxGeometry x="502" y="508" width="20" height="20" as="geometry" />
        </mxCell>
        <mxCell id="7Py_eHLOxnhh6DlCSyJY-32" value="&lt;font style=&quot;font-size: 18px;&quot;&gt;&lt;b&gt;S&lt;/b&gt;&lt;/font&gt;" style="ellipse;whiteSpace=wrap;html=1;aspect=fixed;strokeWidth=3;" parent="1" vertex="1">
          <mxGeometry x="385" y="638" width="80" height="80" as="geometry" />
        </mxCell>
        <mxCell id="7Py_eHLOxnhh6DlCSyJY-34" value="&lt;b style=&quot;border-color: var(--border-color); font-size: 18px;&quot;&gt;I&lt;/b&gt;&lt;b style=&quot;border-color: var(--border-color); font-size: 14.999999px;&quot;&gt;4&lt;/b&gt;" style="ellipse;whiteSpace=wrap;html=1;aspect=fixed;strokeWidth=3;" parent="1" vertex="1">
          <mxGeometry x="384" y="478" width="80" height="80" as="geometry" />
        </mxCell>
        <mxCell id="7Py_eHLOxnhh6DlCSyJY-39" value="" style="endArrow=open;startArrow=open;html=1;rounded=0;exitX=0;exitY=0.5;exitDx=0;exitDy=0;strokeWidth=2;endFill=0;startFill=0;" parent="1" edge="1">
          <mxGeometry width="50" height="50" relative="1" as="geometry">
            <mxPoint x="385" y="678" as="sourcePoint" />
            <mxPoint x="244" y="558" as="targetPoint" />
            <Array as="points">
              <mxPoint x="244" y="678" />
            </Array>
          </mxGeometry>
        </mxCell>
        <mxCell id="7Py_eHLOxnhh6DlCSyJY-40" value="" style="endArrow=open;startArrow=open;html=1;rounded=0;exitX=0;exitY=0;exitDx=0;exitDy=0;strokeWidth=2;endFill=0;startFill=0;" parent="1" edge="1">
          <mxGeometry width="50" height="50" relative="1" as="geometry">
            <mxPoint x="396.71572875253787" y="649.7157287525379" as="sourcePoint" />
            <mxPoint x="334" y="558" as="targetPoint" />
            <Array as="points">
              <mxPoint x="334" y="650" />
            </Array>
          </mxGeometry>
        </mxCell>
        <mxCell id="7Py_eHLOxnhh6DlCSyJY-41" value="" style="endArrow=open;startArrow=open;html=1;rounded=0;exitX=0.5;exitY=0;exitDx=0;exitDy=0;strokeWidth=2;entryX=0.5;entryY=1;entryDx=0;entryDy=0;endFill=0;startFill=0;" parent="1" edge="1">
          <mxGeometry width="50" height="50" relative="1" as="geometry">
            <mxPoint x="425" y="638" as="sourcePoint" />
            <mxPoint x="425" y="558" as="targetPoint" />
            <Array as="points">
              <mxPoint x="425" y="598" />
            </Array>
          </mxGeometry>
        </mxCell>
        <mxCell id="7Py_eHLOxnhh6DlCSyJY-42" value="" style="endArrow=open;startArrow=open;html=1;rounded=0;exitX=1;exitY=0.5;exitDx=0;exitDy=0;strokeWidth=2;entryX=0.5;entryY=1;entryDx=0;entryDy=0;endFill=0;startFill=0;" parent="1" edge="1">
          <mxGeometry width="50" height="50" relative="1" as="geometry">
            <mxPoint x="465" y="678" as="sourcePoint" />
            <mxPoint x="564.5" y="558" as="targetPoint" />
            <Array as="points">
              <mxPoint x="564" y="678" />
            </Array>
          </mxGeometry>
        </mxCell>
        <mxCell id="7Py_eHLOxnhh6DlCSyJY-46" value="&lt;font face=&quot;Georgia&quot; style=&quot;font-size: 24px;&quot;&gt;(a)&lt;/font&gt;" style="text;html=1;align=center;verticalAlign=middle;resizable=0;points=[];autosize=1;strokeColor=none;fillColor=none;fontStyle=1" parent="1" vertex="1">
          <mxGeometry x="38" y="85" width="60" height="40" as="geometry" />
        </mxCell>
        <mxCell id="7Py_eHLOxnhh6DlCSyJY-47" value="&lt;span style=&quot;caret-color: rgb(0, 0, 0); color: rgb(0, 0, 0); font-family: Georgia; font-size: 24px; font-style: normal; font-variant-caps: normal; letter-spacing: normal; text-align: center; text-indent: 0px; text-transform: none; word-spacing: 0px; -webkit-text-stroke-width: 0px; background-color: rgb(251, 251, 251); text-decoration: none; float: none; display: inline !important;&quot;&gt;(d)&lt;/span&gt;" style="text;whiteSpace=wrap;html=1;fontStyle=1" parent="1" vertex="1">
          <mxGeometry x="204" y="263" width="60" height="50" as="geometry" />
        </mxCell>
        <mxCell id="7Py_eHLOxnhh6DlCSyJY-48" value="&lt;span style=&quot;caret-color: rgb(0, 0, 0); color: rgb(0, 0, 0); font-family: Georgia; font-size: 24px; font-style: normal; font-variant-caps: normal; letter-spacing: normal; text-align: center; text-indent: 0px; text-transform: none; word-spacing: 0px; -webkit-text-stroke-width: 0px; background-color: rgb(251, 251, 251); text-decoration: none; float: none; display: inline !important;&quot;&gt;(e)&lt;/span&gt;" style="text;whiteSpace=wrap;html=1;fontStyle=1" parent="1" vertex="1">
          <mxGeometry x="671" y="263" width="60" height="50" as="geometry" />
        </mxCell>
        <mxCell id="7Py_eHLOxnhh6DlCSyJY-49" value="&lt;span style=&quot;caret-color: rgb(0, 0, 0); color: rgb(0, 0, 0); font-family: Georgia; font-size: 24px; font-style: normal; font-variant-caps: normal; letter-spacing: normal; text-align: center; text-indent: 0px; text-transform: none; word-spacing: 0px; -webkit-text-stroke-width: 0px; background-color: rgb(251, 251, 251); text-decoration: none; float: none; display: inline !important;&quot;&gt;(f)&lt;/span&gt;" style="text;whiteSpace=wrap;html=1;fontStyle=1" parent="1" vertex="1">
          <mxGeometry x="204" y="438" width="60" height="50" as="geometry" />
        </mxCell>
        <mxCell id="7Py_eHLOxnhh6DlCSyJY-50" value="&lt;span style=&quot;caret-color: rgb(0, 0, 0); color: rgb(0, 0, 0); font-family: Georgia; font-size: 24px; font-style: normal; font-variant-caps: normal; letter-spacing: normal; text-align: center; text-indent: 0px; text-transform: none; word-spacing: 0px; -webkit-text-stroke-width: 0px; background-color: rgb(251, 251, 251); text-decoration: none; float: none; display: inline !important;&quot;&gt;(g)&lt;/span&gt;" style="text;whiteSpace=wrap;html=1;fontStyle=1" parent="1" vertex="1">
          <mxGeometry x="671" y="438" width="60" height="50" as="geometry" />
        </mxCell>
        <mxCell id="raWA9acyGIPrlW4xChrn-1" value="&lt;font style=&quot;font-size: 18px;&quot;&gt;&lt;b&gt;S&lt;/b&gt;&lt;/font&gt;" style="ellipse;whiteSpace=wrap;html=1;aspect=fixed;strokeWidth=3;" vertex="1" parent="1">
          <mxGeometry x="287" y="115" width="80" height="80" as="geometry" />
        </mxCell>
        <mxCell id="raWA9acyGIPrlW4xChrn-2" value="&lt;b style=&quot;border-color: var(--border-color); font-size: 18px;&quot;&gt;I&lt;/b&gt;" style="ellipse;whiteSpace=wrap;html=1;aspect=fixed;strokeWidth=3;" vertex="1" parent="1">
          <mxGeometry x="447" y="115" width="80" height="80" as="geometry" />
        </mxCell>
        <mxCell id="raWA9acyGIPrlW4xChrn-3" value="" style="curved=1;endArrow=open;html=1;rounded=0;strokeWidth=2;exitX=0.725;exitY=0.963;exitDx=0;exitDy=0;exitPerimeter=0;entryX=0.288;entryY=0.975;entryDx=0;entryDy=0;entryPerimeter=0;endFill=0;" edge="1" parent="1" source="raWA9acyGIPrlW4xChrn-1" target="raWA9acyGIPrlW4xChrn-2">
          <mxGeometry width="50" height="50" relative="1" as="geometry">
            <mxPoint x="347" y="75" as="sourcePoint" />
            <mxPoint x="307" y="335" as="targetPoint" />
            <Array as="points">
              <mxPoint x="377" y="235" />
              <mxPoint x="447" y="225" />
            </Array>
          </mxGeometry>
        </mxCell>
        <mxCell id="raWA9acyGIPrlW4xChrn-4" value="&lt;font style=&quot;font-size: 18px;&quot;&gt;&lt;span style=&quot;border-color: var(--border-color); font-family: KaTeX_Math, &amp;quot;Times New Roman&amp;quot;, Times, serif;&quot;&gt;δ&lt;sub&gt;1,2&lt;/sub&gt;&lt;/span&gt;&lt;/font&gt;" style="edgeLabel;html=1;align=center;verticalAlign=middle;resizable=0;points=[];" vertex="1" connectable="0" parent="raWA9acyGIPrlW4xChrn-3">
          <mxGeometry x="0.2747" y="2" relative="1" as="geometry">
            <mxPoint x="-17" y="4" as="offset" />
          </mxGeometry>
        </mxCell>
        <mxCell id="raWA9acyGIPrlW4xChrn-5" value="" style="curved=1;endArrow=open;html=1;rounded=0;entryX=0.713;entryY=0.063;entryDx=0;entryDy=0;exitX=0.288;exitY=0.075;exitDx=0;exitDy=0;exitPerimeter=0;strokeWidth=2;entryPerimeter=0;endFill=0;" edge="1" parent="1" source="raWA9acyGIPrlW4xChrn-2" target="raWA9acyGIPrlW4xChrn-1">
          <mxGeometry width="50" height="50" relative="1" as="geometry">
            <mxPoint x="458.03999999999996" y="117.03999999999996" as="sourcePoint" />
            <mxPoint x="327" y="115" as="targetPoint" />
            <Array as="points">
              <mxPoint x="457" y="95" />
              <mxPoint x="407" y="85" />
              <mxPoint x="367" y="95" />
            </Array>
          </mxGeometry>
        </mxCell>
        <mxCell id="raWA9acyGIPrlW4xChrn-6" value="&lt;span style=&quot;box-sizing: border-box; font-family: KaTeX_Math, &amp;quot;Times New Roman&amp;quot;, Times, serif;&quot;&gt;&lt;font style=&quot;font-size: 18px;&quot;&gt;δ&lt;sub&gt;2,1&lt;/sub&gt;&lt;/font&gt;&lt;/span&gt;" style="edgeLabel;html=1;align=center;verticalAlign=middle;resizable=0;points=[];" vertex="1" connectable="0" parent="raWA9acyGIPrlW4xChrn-5">
          <mxGeometry x="-0.1252" relative="1" as="geometry">
            <mxPoint x="-11" as="offset" />
          </mxGeometry>
        </mxCell>
        <mxCell id="raWA9acyGIPrlW4xChrn-7" value="&lt;font style=&quot;font-size: 18px;&quot;&gt;X(&lt;i&gt;t-&lt;/i&gt;Δ&lt;i&gt;&lt;span style=&quot;box-sizing: border-box; font-family: KaTeX_Math, &amp;quot;Times New Roman&amp;quot;, Times, serif;&quot;&gt;t&lt;/span&gt;&lt;/i&gt;)&lt;/font&gt;" style="ellipse;whiteSpace=wrap;html=1;aspect=fixed;strokeWidth=3;" vertex="1" parent="1">
          <mxGeometry x="60" y="608" width="80" height="80" as="geometry" />
        </mxCell>
        <mxCell id="raWA9acyGIPrlW4xChrn-8" value="" style="endArrow=open;html=1;rounded=0;endFill=0;strokeWidth=2;" edge="1" parent="1">
          <mxGeometry width="50" height="50" relative="1" as="geometry">
            <mxPoint x="99.5" y="608" as="sourcePoint" />
            <mxPoint x="99.5" y="528" as="targetPoint" />
          </mxGeometry>
        </mxCell>
        <mxCell id="raWA9acyGIPrlW4xChrn-9" value="&lt;span style=&quot;caret-color: rgb(0, 0, 0); color: rgb(0, 0, 0); font-family: Georgia; font-size: 24px; font-style: normal; font-variant-caps: normal; letter-spacing: normal; text-align: center; text-indent: 0px; text-transform: none; word-spacing: 0px; -webkit-text-stroke-width: 0px; background-color: rgb(251, 251, 251); text-decoration: none; float: none; display: inline !important;&quot;&gt;(b)&lt;/span&gt;" style="text;whiteSpace=wrap;html=1;fontStyle=1" vertex="1" parent="1">
          <mxGeometry x="204" y="83" width="60" height="50" as="geometry" />
        </mxCell>
        <mxCell id="raWA9acyGIPrlW4xChrn-11" value="&lt;span style=&quot;caret-color: rgb(0, 0, 0); color: rgb(0, 0, 0); font-family: Georgia; font-size: 24px; font-style: normal; font-variant-caps: normal; letter-spacing: normal; text-align: center; text-indent: 0px; text-transform: none; word-spacing: 0px; -webkit-text-stroke-width: 0px; background-color: rgb(251, 251, 251); text-decoration: none; float: none; display: inline !important;&quot;&gt;(c)&lt;/span&gt;" style="text;whiteSpace=wrap;html=1;fontStyle=1" vertex="1" parent="1">
          <mxGeometry x="671" y="83" width="60" height="50" as="geometry" />
        </mxCell>
        <mxCell id="raWA9acyGIPrlW4xChrn-20" value="" style="shape=image;verticalLabelPosition=bottom;labelBackgroundColor=default;verticalAlign=top;aspect=fixed;imageAspect=0;image=data:image/png,iVBORw0KGgoAAAANSUhEUgAABRgAAAC+CAYAAABeZWNJAAAMPmlDQ1BJQ0MgUHJvZmlsZQAASImVVwdYU8kWnluSkEBoAQSkhN4EASkBpITQAkgvgo2QBAglxkAQsaOLCq5dRMCGrooodkDsiJ1FsPdFEQVlXSzYlTcpoOu+8r2Tb+7988+Z/5w5d24ZANROcUSibFQdgBxhnjgm2J8+PimZTuoBCPwpAypQ53BzRcyoqHAAbej8d3t3E/pCu2Yv1fpn/381DR4/lwsAEgVxKi+XmwPxIQDwKq5InAcAUcqbTc8TSTFsQEsME4R4sRSny3GVFKfK8T6ZT1wMC+IWAJRUOBxxOgCq7ZCn53PToYZqP8SOQp5ACIAaHWKfnJypPIhTILaGPiKIpfqM1B900v+mmTqsyeGkD2P5XGSmFCDIFWVzZvyf5fjflpMtGYphCZtKhjgkRjpnWLfbWVPDpFgF4j5hakQkxJoQfxDwZP4Qo5QMSUi83B814OayYM2ADsSOPE5AGMQGEAcJsyPCFXxqmiCIDTFcIWiBII8dB7EuxIv5uYGxCp/N4qkxilhofZqYxVTwFzhiWVxprIeSrHimQv91Bp+t0MdUCzPiEiGmQGyeL0iIgFgVYofcrNgwhc/YwgxWxJCPWBIjzd8c4hi+MNhfro/lp4mDYhT+JTm5Q/PFNmcI2BEKfCAvIy5EXh+shcuR5Q/ngrXzhcz4IR1+7vjwobnw+AGB8rljPXxhfKxC54Mozz9GPhaniLKjFP64KT87WMqbQuySmx+rGIsn5MEFKdfH00R5UXHyPPHCTE5olDwffAUIBywQAOhAAlsqmAoygaCtr6EP/pP3BAEOEIN0wAf2CmZoRKKsRwiPsaAQ/AkRH+QOj/OX9fJBPuS/DrPyoz1Ik/Xmy0ZkgacQ54AwkA3/S2SjhMPREsATyAj+EZ0DGxfmmw2btP/f80Psd4YJmXAFIxmKSFcb8iQGEgOIIcQgog2uj/vgXng4PPrB5owzcI+heXz3JzwldBAeE24QOgl3pgiKxD9lOQ50Qv0gRS1Sf6wFbgk1XXF/3BuqQ2VcB9cH9rgLjMPEfWFkV8iyFHlLq0L/SftvM/jhaij8yI5klDyC7Ee2/nmkqq2q67CKtNY/1keea+pwvVnDPT/HZ/1QfR48h/3siS3GDmLnsdPYRewY1gDo2EmsEWvFjkvx8Op6IltdQ9FiZPlkQR3BP+INXVlpJXMdax17Hb/I+/L4BdJnNGBNFc0QC9Iz8uhM+Ebg09lCrsMourOjswsA0veL/PH1Jlr23kB0Wr9zC/4AwPvk4ODg0e9c6EkA9rvD2//Id86aAV8dygBcOMKViPPlHC49EOBTQg3eaXrACJgBazgfZ+AGvIAfCAShIBLEgSQwGWafAde5GEwHs8B8UAxKwQqwFlSATWAr2An2gAOgARwDp8E5cBm0gxvgHlw93eAF6AfvwGcEQUgIFaEheogxYoHYIc4IA/FBApFwJAZJQlKQdESISJBZyAKkFFmFVCBbkBpkP3IEOY1cRDqQO8gjpBd5jXxCMVQF1UINUUt0NMpAmWgYGodOQtPRaWghuhBdhpaj1ehutB49jV5Gb6Cd6At0AAOYMqaDmWD2GANjYZFYMpaGibE5WAlWhlVjdVgTvM7XsE6sD/uIE3EaTsft4QoOweNxLj4Nn4MvxSvwnXg93oJfwx/h/fg3ApVgQLAjeBLYhPGEdMJ0QjGhjLCdcJhwFt5L3YR3RCJRh2hFdIf3YhIxkziTuJS4gbiXeIrYQewiDpBIJD2SHcmbFEnikPJIxaT1pN2kk6SrpG7SByVlJWMlZ6UgpWQloVKRUpnSLqUTSleVnil9JquTLcie5EgyjzyDvJy8jdxEvkLuJn+maFCsKN6UOEomZT6lnFJHOUu5T3mjrKxsquyhHK0sUJ6nXK68T/mC8iPljyqaKrYqLJWJKhKVZSo7VE6p3FF5Q6VSLal+1GRqHnUZtYZ6hvqQ+kGVpuqgylblqc5VrVStV72q+lKNrGahxlSbrFaoVqZ2UO2KWp86Wd1SnaXOUZ+jXql+RP2W+oAGTcNJI1IjR2Opxi6Nixo9miRNS81ATZ7mQs2tmmc0u2gYzYzGonFpC2jbaGdp3VpELSsttlamVqnWHq02rX5tTW0X7QTtAu1K7ePanTqYjqUOWydbZ7nOAZ2bOp9GGI5gjuCPWDKibsTVEe91R+r66fJ1S3T36t7Q/aRH1wvUy9Jbqdeg90Af17fVj9afrr9R/6x+30itkV4juSNLRh4YedcANbA1iDGYabDVoNVgwNDIMNhQZLje8Ixhn5GOkZ9RptEaoxNGvcY0Yx9jgfEa45PGz+nadCY9m15Ob6H3mxiYhJhITLaYtJl8NrUyjTctMt1r+sCMYsYwSzNbY9Zs1m9ubD7OfJZ5rfldC7IFwyLDYp3FeYv3llaWiZaLLBsse6x0rdhWhVa1Vvetqda+1tOsq62v2xBtGDZZNhts2m1RW1fbDNtK2yt2qJ2bncBug13HKMIoj1HCUdWjbtmr2DPt8+1r7R856DiEOxQ5NDi8HG0+Onn0ytHnR39zdHXMdtzmeM9J0ynUqcipyem1s60z17nS+foY6pigMXPHNI555WLnwnfZ6HLbleY6znWRa7PrVzd3N7FbnVuvu7l7inuV+y2GFiOKsZRxwYPg4e8x1+OYx0dPN888zwOef3nZe2V57fLqGWs1lj9229gub1NvjvcW704fuk+Kz2afTl8TX45vte9jPzM/nt92v2dMG2Ymczfzpb+jv9j/sP97lidrNutUABYQHFAS0BaoGRgfWBH4MMg0KD2oNqg/2DV4ZvCpEEJIWMjKkFtsQzaXXcPuD3UPnR3aEqYSFhtWEfY43DZcHN40Dh0XOm71uPsRFhHCiIZIEMmOXB35IMoqalrU0WhidFR0ZfTTGKeYWTHnY2mxU2J3xb6L849bHncv3jpeEt+coJYwMaEm4X1iQOKqxM7xo8fPHn85ST9JkNSYTEpOSN6ePDAhcMLaCd0TXScWT7w5yWpSwaSLk/UnZ08+PkVtCmfKwRRCSmLKrpQvnEhONWcglZ1aldrPZXHXcV/w/HhreL18b/4q/rM077RVaT3p3umr03szfDPKMvoELEGF4FVmSOamzPdZkVk7sgazE7P35ijlpOQcEWoKs4QtU42mFkztENmJikWd0zynrZ3WLw4Tb89FciflNuZpwQ/5Vom15BfJo3yf/Mr8D9MTph8s0CgQFrTOsJ2xZMazwqDC32biM7kzm2eZzJo/69Fs5uwtc5A5qXOa55rNXTi3e17wvJ3zKfOz5v9e5Fi0qujtgsQFTQsNF85b2PVL8C+1xarF4uJbi7wWbVqMLxYsblsyZsn6Jd9KeCWXSh1Ly0q/LOUuvfSr06/lvw4uS1vWttxt+cYVxBXCFTdX+q7cuUpjVeGqrtXjVtevoa8pWfN27ZS1F8tcyjato6yTrOssDy9vXG++fsX6LxUZFTcq/Sv3VhlULal6v4G34epGv411mww3lW76tFmw+faW4C311ZbVZVuJW/O3Pt2WsO38b4zfarbrby/d/nWHcEfnzpidLTXuNTW7DHYtr0VrJbW9uyfubt8TsKexzr5uy16dvaX7wD7Jvuf7U/bfPBB2oPkg42DdIYtDVYdph0vqkfoZ9f0NGQ2djUmNHUdCjzQ3eTUdPupwdMcxk2OVx7WPLz9BObHwxODJwpMDp0Sn+k6nn+5qntJ878z4M9dbolvazoadvXAu6NyZ88zzJy94Xzh20fPikUuMSw2X3S7Xt7q2Hv7d9ffDbW5t9VfcrzS2e7Q3dYztOHHV9+rpawHXzl1nX798I+JGx834m7dvTbzVeZt3u+dO9p1Xd/Pvfr437z7hfskD9QdlDw0eVv9h88feTrfO448CHrU+jn18r4vb9eJJ7pMv3QufUp+WPTN+VtPj3HOsN6i3/fmE590vRC8+9xX/qfFn1Uvrl4f+8vurtX98f/cr8avB10vf6L3Z8dblbfNA1MDDdznvPr8v+aD3YedHxsfznxI/Pfs8/QvpS/lXm69N38K+3R/MGRwUccQc2acABhualgbA6x0AUJMAoMH9GWWCfP8nM0S+Z5Uh8J+wfI8oMzcA6uD3e3Qf/Lq5BcC+bXD7BfXVJgIQRQUgzgOgY8YMt6G9mmxfKTUi3AdsZn9NzUkF/8bke84f8v75DKSqLuDn878AGrB8L5SbybkAAACKZVhJZk1NACoAAAAIAAQBGgAFAAAAAQAAAD4BGwAFAAAAAQAAAEYBKAADAAAAAQACAACHaQAEAAAAAQAAAE4AAAAAAAAAkAAAAAEAAACQAAAAAQADkoYABwAAABIAAAB4oAIABAAAAAEAAAUYoAMABAAAAAEAAAC+AAAAAEFTQ0lJAAAAU2NyZWVuc2hvdBCBOBYAAAAJcEhZcwAAFiUAABYlAUlSJPAAAAHXaVRYdFhNTDpjb20uYWRvYmUueG1wAAAAAAA8eDp4bXBtZXRhIHhtbG5zOng9ImFkb2JlOm5zOm1ldGEvIiB4OnhtcHRrPSJYTVAgQ29yZSA2LjAuMCI+CiAgIDxyZGY6UkRGIHhtbG5zOnJkZj0iaHR0cDovL3d3dy53My5vcmcvMTk5OS8wMi8yMi1yZGYtc3ludGF4LW5zIyI+CiAgICAgIDxyZGY6RGVzY3JpcHRpb24gcmRmOmFib3V0PSIiCiAgICAgICAgICAgIHhtbG5zOmV4aWY9Imh0dHA6Ly9ucy5hZG9iZS5jb20vZXhpZi8xLjAvIj4KICAgICAgICAgPGV4aWY6UGl4ZWxZRGltZW5zaW9uPjE5MDwvZXhpZjpQaXhlbFlEaW1lbnNpb24+CiAgICAgICAgIDxleGlmOlBpeGVsWERpbWVuc2lvbj4xMzA0PC9leGlmOlBpeGVsWERpbWVuc2lvbj4KICAgICAgICAgPGV4aWY6VXNlckNvbW1lbnQ+U2NyZWVuc2hvdDwvZXhpZjpVc2VyQ29tbWVudD4KICAgICAgPC9yZGY6RGVzY3JpcHRpb24+CiAgIDwvcmRmOlJERj4KPC94OnhtcG1ldGE+Cmt2ea8AAAAcaURPVAAAAAIAAAAAAAAAXwAAACgAAABfAAAAXwAAImhE6wG+AAAiNElEQVR4AezdB5RU1f3A8R9FuoJ0JPSmBBQloZdIU0QRg1IEFQSCBKSbRaQoBIMFcAGBg0pRRFFDApxggiAgRUGkKD1EESlGQLogAvN/v5f/zJk7b3Z3dnZ29r3Z7zuH7Lu/V+a+z70T4bf33ZvDZ23ChgACCCCAAAIIIIAAAggggAACCCCAAAIIRCGQgwRjFGpcggACCCCAAAIIIIAAAggggAACCCCAAAK2AAlGOgICCCCAAAIIIIAAAggggAACCCCAAAIIRC1AgjFqOi5EAAEEEEAAAQQQQAABBBBAAAEEEEAAARKM9AEEEEAAAQQQQAABBBBAAAEEEEAAAQQQiFqABGPUdFyIAAIIIIAAAggggAACCCCAAAIIIIAAAiQY6QMIIIAAAggggAACCCCAAAIIIIAAAgggELUACcao6bgQAQQQQAABBBBAAAEEEEAAAQQQQAABBEgw0gcQQAABBBBAAAEEEEAAAQQQQAABBBBAIGoBEoxR03EhAggggAACCCCAAAIIIIAAAggggAACCJBgpA8ggAACCCCAAAIIIIAAAggggAACCCCAQNQCJBijpuNCBBBAAAEEEEAAAQQQQAABBBBAAAEEECDBSB9AAAEEEEAAAQQQQAABBBBAAAEEEEAAgagFSDBGTceFCCCAAAIIIIAAAggggAACCCCAAAIIIECCkT6AAAIIIIAAAggggAACCCCAAAIIIIAAAlELkGCMmo4LEUAAAQQQQAABBBBAAAEEEEAAAQQQQIAEI30AAQQQQAABBBBAAAEEEEAAAQQQQAABBKIWIMEYNR0XIoAAAggggAACCCCAAAIIIIAAAggggAAJRvoAAggggAACCCCAAAIIIIAAAggggAACCEQtQIIxajouRAABBBBAAAEEEEAAAQQQQAABBBBAAAESjPQBBBBAAAEEEEAAAQQQQAABBBBAAAEEEIhagARj1HRciAACCCCAAAIIIIAAAggggAACCCCAAAIkGOkDCCCAAAIIIIAAAggggAACCCCAAAIIIBC1AAnGqOm4EAEEEEAAAQQQQAABBBBAAAEEEEAAAQRIMNIHEEAAAQQQQAABBBBAAAEEEEAAAQQQQCBqARKMUdNxIQIIIIAAAggggAACCCCAAAIIIIAAAgiQYKQPIIAAAggggAACCCCAAAIIIIAAAggggEDUAiQYo6bjQgQQQAABBBBAAAEEEEAAAQQQQAABBBAgwUgfQAABBBBAAAEEEEAAAQQQQAABBBBAAIGoBUgwRk3HhQgggAACCCCAAAIIIIAAAggggAACCCBAgpE+gAACCCCAAAIIIIAAAggggAACCCCAAAJRC5BgjJqOCxFAAAEEEEAAAQQQQAABBBBAAAEEEECABCN9AAEEEEAAAQQQQAABBBBAAAEEEEAAAQSiFiDBGDUdFyKAAAIIIIAAAtEJnDp1Snbs2CE7d+6UK1euSMmSJaVs2bJSr149yZ8/f3Q35SoEUhCgv6UAQxgBBBBAAAEEYiZAgjFmlNwIAQQQQAABBBBIWUATiuPHj5fPP/9cDh06FPbEvHnzSqNGjaR3797SqVMnyZ07d9jzCCKQlgD9LS0hjiOAAAIIIIBALAVIMMZSk3shgAACCCCAAAJhBF5++WUZMWKEXL16NczR8KEKFSrI2LFjpWfPnuFPIIpACgL0txRgCCOAAAIIIIBApgmQYMw0Wm6MAAIIIIAAAgiILFy4ULp162ZQlC5dWgYNGiTVq1eXEydOyJYtW2T+/Ply+fJl4zwttGjRQmbPni1VqlRxHCOAQKgA/S1UhDICCCCAAAIIxEOABGM8lPkMBBBAAAEEEMiWAjpisVq1avLNN98Enr9q1ar2a9JFihQJxHTn3//+t/Tq1UvWrVtnxLWgCcljx4454gQQCBagvwVrsI8AAggggAAC8RQgwRhPbT4LAQQQQAABBLKVwJ49e6RmzZrGM+sIs65duxoxf+Hs2bPSsGFD2b17tz9k/2zQoIF8+umnRowCAqEC9LdQEcoIIIAAAgggEC8BEozxkuZzEEAAAQQQQCDbCSxfvlzatWtnPPeSJUukffv2Riy4cODAATsp+csvvwTCAwcOlOTk5ECZHQTCCdDfwqkQQwABBBBAAIF4CJBgjIcyn4EAAggggAAC2VJAX3du1qyZ8ewDBgyQadOmGbHQQvfu3eXtt98OhBcsWOCYxzFwkB0E/l+A/kZXQAABBBBAAIGsEiDBmFXyfC4CCCCAAAIIJLyALuBSqlQpuXbtWuBZc+fObc/BWKdOnUAsdEcXfalXr14gvH//ftG5G9kQSE2A/paaDscQQAABBBBAIDMFSDBmpi73RgABBBBAAIGIBH7++WfR1zsfeOCBiM730kn333+/LF261Khy3bp1ZePGjZInTx4jTgGBjArQ3zIqGP31muDdtm2btG7dOvqbcCUCCCCAAAIeFSDB6NGGo9oIIIAAAggkisD58+elQ4cOsmrVKhk3bpyMHj06UR7Nfo5NmzZJo0aNjFGMeuCJJ56QmTNnJtSz8jBZL0B/y5o2uHTpkrRs2dL+xcFf/vIXGTFiRNZUhE9FAAEEEEAgiwRIMGYRPB+LAAIIIIAAAiKnTp2Stm3biiZF/Nvnn38uv/nNb/zFhPg5bNgwmTx5suNZZs2aJX379nXECSCQEQH6W0b0ort21KhRMmHChMDFSUlJMnHixECZHQQQQAABBBJdgARjorcwz4cAAggggIBLBb7//ntp06aNfPXVV4EaNmzYUFauXCkFChQIxBJh5+LFi9KkSRPZunWr8Tg6H+OKFSvkzjvvNOIUEMiIAP0tI3rRXbt9+3Zp3ry5nD17NnAD/eXBjBkzJGfOnIEYOwgggAACCCSqAAnGRG1ZngsBBBBAAAEXC1y4cEEaNGggO3fuDNTylltukfXr10vRokUDsUTaOXz4sOgz6ivhwZs+7xdffCEVK1YMDrOPQIYE6G8Z4ovq4tWrV9sjsnVOWf82dOhQmTRpkr/ITwQQQAABBBJWgARjwjYtD4YAAggggIB7BR5++GF55513AhX81a9+Zc9dVq5cuUAskXZ+/PFHGT9+vLzyyithH+v222+XDRs2SP78+cMeJ4hAegTob+nRiu25f/3rX6VTp07GnKuLFi2yY7H9JO6GAAIIIICAuwRIMLqrPagNAggggAACCS+QnJwsgwcPDjxnwYIFZfPmzVKzZs1ALFF2dCTTtGnT7LnZTp8+nepjPfroozJ//vxUz+EgAqkJ0N9S04nfMf1FwpAhQwIfWKhQIXue2UT8/7jAQ7KDAAIIIJDtBUgwZvsuAAACCCCAAALxE9BXoHW+wStXrgQ+VBNwAwYMCJQTZeeDDz6Qp556Sg4ePGg8ks47+e2338q+ffuMuBb0mo4dOzriBBBIS4D+lpZQ/I77fD5p3bq1rFq1KvChNWrUsH+RcsMNNwRi7CCAAAIIIJBIAiQYE6k1eRYEEEAAAQRcLHDy5EmpVauW6OIu/q1Zs2ayZs0ayZEjhz+UED+nTJkiOvda8Fa8eHH7Felu3brJ8ePHpU6dOnL06NHgU6REiRKyZ88eKVasmBGngEBqAvS31HSy5pj+YqF27drGnKv66rS+Ls2GAAIIIIBAIgqQYEzEVuWZEEAAAQQQcKGArqg6e/bsQM10pegvv/xSqlSpEoglws6LL74oSUlJxqM0btxYlixZYiQOdXRTq1atjPO0MG7cOBk9erQjTgCBcAL0t3Aq7ojpCtL9+/c3KvPhhx/K3XffbcQoIIAAAgggkAgCJBgToRV5BgQQQAABBFwusGXLFqlfv76x8IHOUzZo0CCX1zx91ZswYYKMGjXKuEgXsNFVokuWLGnEtaCvi+sIzuCtbNmy9mvVuXPnDg6zj4BDgP7mIHFVQF+VbtGihfEdr1atmuzcuVPy5MnjqrpSGQQQQAABBDIqQIIxo4JcjwACCCCAAAKpCug/shs0aGDPP+Y/sWrVqrJ3717JlSuXP+T5n5MnT5Zhw4YZz5EvXz7ReSfr1q1rxP2Fjz/+WFq2bOkvBn6+//778uCDDwbK7CAQKkB/CxVxZ3nbtm1yxx13GJXTxPDIkSONGAUEEEAAAQS8LkCC0estSP0RQAABBBBwucDrr78uffr0MWo5b948eeyxx4xYuMLatWvthVLCHYtXTBdr0IRAapvOqVi5cmVjvjU9/6233pLu3bundqmUKVPGmJdST27btq0sX7481es4mH0F6G/eavsOHTrYUyT4a63TQ+hcq+XLl/eH+IkAAggggIDnBUgwer4JeQAEEEAAAQTcK3Dq1CmpXr26nDhxIlDJ9IxenD9/vvTo0SNwbVbsRJLsGz58uEyaNMmoXsOGDWXjxo1GLFyhS5cujoUfKlWqJF9//XW404khIPQ3b3WCcKMYdbV4XfmbDQEEEEAAgUQRIMGYKC3JcyCAAAIIIOBCgbFjx9qLlgRXLdLRi3qNFxKMx44dsxequXjxYvBjRjR6US+YNm2aDBw40Lj2uuuuk59//jldq2tfu3bN/kwd9XnvvffK73//e+OesSro53z22Weye/due65IXS1XV8POmTOnVKhQwV4pXFcHT+m18FjVI7vexy39Tf3pc5H3wtBRjHqlJh51NXk2BBBAAAEEEkLAmheJDQEEEEAAAQQQiLnA+fPnfUWLFvVZf2EK/LFGL/quXLkS8WdZycjAtcH3iee+NYIx1fpaq8Q66liiRAmflSBM9Tr/QWsUk+N6fT4raec/Jc2f1sq0vltvvTVwn379+qV5TXpO0DazVr326X1Lly4d+JzU2qF9+/Y+azGL9HwM50Yg4Ib+ptWkz0XQWEGnbN261fG96dy5c9AZ7CKAAAIIIOBtAUYwWn8zZkMAAQQQQACB2AtMmTJFhg4datx4+vTpYiVIjFhqhR9//FE++eST1E7J9GM6t6KVvEvxc4oUKSJnzpwxjj/99NPy/PPPG7GUCqtXr7ZXmg09vmnTJqlXr15o2ChbSQv505/+JFbyz4gPGTJEdBGQWG06MvHQoUOO2+kK2TVq1BBtJx3RqKMug7frr79eduzYIfrKN1tsBLKyv+kT0Oeib8dWrVoZ31Vd5Grfvn32COjo78qVCCCAAAIIuETA2/lRao8AAggggAACbhS4fPmyz0o+GSN28ubN67MSUW6sbtR1+v77741ntP56Z5e//PLLiO9pvdIc9h7Wa8gp3sN6LdnXrVs3X44cOcJeayUdU7w2mgOFChUyPufGG2/0LVy40Ge9Ihu4nfXqru+ee+4xzlOPJk2aBM5hJ2MCWdXftNb0uYy1nV69YMECx/ejb9++Gb8xd0AAAQQQQMAFAoxgdEmil2oggAACCCCQSAJz586Vxx9/3Hgk63VAeffdd42Y1wvr1q0TnW8wdLtw4YLoSrGRbIsXLxZd8CF0O3LkiNx0001GWEdK6sjIqVOnyqVLl4xjwYWRI0emufJ18Plp7etIROuVd/s0K1Fsj8Jq3Lix4zIrsSy//vWv5cCBA8axw4cPS9myZY0YhfQLxLu/aQ3pc+lvp5Su0HladdX44BHP+n06aM1jak09kNJlxBFAAAEEEPCGgAuSnFQBAQQQQAABBBJI4OrVq76bb77ZMVLnX//6VwI95f8e5bXXXnM8Z8mSJdP1nK+++qrjHtYiLz51DN50xGCxYsWMc2+55RaftQq1YyTjqFGjgi/N8H7wCMbBgwener+ZM2cadbT+RuxLxLZPFSGTDsazv+kj0Odi35BPPPGE4/uRlJQU+w/ijggggAACCMRZgBGM3sgDU0sEEEAAAQQ8I7BixQq56667jPqWK1fOHqWjKw0n0qbzH7700kvGI+m8iTp/YqSb9aqzWIkc43Sd13Dv3r1G7IUXXpARI0bYMSuBa68+rXO66aZzRH711Vf2vv7P6NGjHat3Bw5GsZOcnCznzp2zr+zdu3eqo63CjbJ74403HCNao6hGtr8knv1Nselzse9ymzdvlvr16xs3tqYcEOv1d8mTJ48Rp4AAAggggICnBOKc0OTjEEAAAQQQQCDBBXr27OkYoRPrEXVuIdTRg9Zf/Iw/1uvOEVdP5zDUFadD7/HMM8847mEl+HxW4tE3ceJEn85xGby1adPGuIeVYAw+HNf9cHNK6krZbBkXiGd/09rS5zLeZuHuYE0jYHxf9fu/dOnScKcSQwABBBBAwDMCjGD0VDqYyiKAAAIIIOBuAV1FuFSpUsYcY1rjXbt2Sc2aNd1d+Shq94c//EGs11aNK9u3by9LliwxYikVdIXs5s2bOw7ryrLVq1d3xFMK6IhRHTnq32I9gtF/30h+zpgxw7FS+J49e0RHXbJlTMAt/U2fgj4XfVtOmDBBrF+6GDfo2rWrYySzcQIFBBBAAAEEXC5AgtHlDUT1EEAAAQQQ8JKAJtY6dOhgVNlaTVq+++47I5Yoheeee06effZZ43H0deUdO3YYsZQK+orzqlWrjMONGjWSDRs2GLG0Cm5J9lgjMu1FXoJf777ttttk+/btaT0CxyMQcEt/06rS5yJosBRO2bJli/z2t781jhYsWFB++OGHiBeHMi6mgAACCCCAgAsESDC6oBGoAgIIIIAAAokioKNwQleK1tWkdQ6+RNzCrQCdP39+OXTokBQvXjzVR165cqW0bt3aOCd37tz2/I133HGHEU+r4JZkj7azztEYvFkLvIj1CndwiP0oBdzS37T69LkoG9G6TBPxOtL7xIkTxk0WLVoknTp1MmIUEEAAAQQQ8IoACUavtBT1RAABBBBAwOUCFy5csP/RrD+Dt0T+R7O+El66dGk5ffp08CPLkCFDZPLkyUYsuLB//37RkYonT54MDsuYMWNER6mld3NDskdHKeozXbx4MVB9XZREFwphi42AW/qbPg19LmNtGu6XMQ888IBoEpkNAQQQQAABTwp4ZrZIKooAAggggAACrhZ45513HAsXWKtG+6wkmqvrndHK6YIq1l8CjT/WarC+mTNnhr31Rx995Ctfvrxxvl5/5513OhZvCXuDMMGsXuTFGonlq1y5svFM1lyUvqtXr4apLaGMCLihv2n96XMZaUWfb86cOcb3Rf8/IG/evL4zZ85k7MZcjQACCCCAQBYJMILRk2lhKo0AAggggID7BDp37izvvfeeUbF69erZr/wawQQrWEk0adGiheiCLaFb06ZN7WOVKlWy51dbs2aNLF++PPQ06dWrl1gJSbnuuuscxyIJZOVosrNnz0rLli1F55XzbzqS0UqkMp+cHySGP93Q3/Rx6HMZa9QjR46Izk8bulm/qBFrtfDQMGUEEEAAAQRcL0CC0fVNRAURQAABBBDwhkC5cuXk8OHDRmV1pdTx48cbsUQsaJJt0KBBMm/evHQ9XtGiRWXs2LEycODAdF0XenJWJXt++uknO9G0fv36QJV08QqdX/KGG24IxNiJrUBW9zd9Gvpcxtu0Vq1asmvXLuNGTz75pEydOtWIUUAAAQQQQMALAiQYvdBK1BEBBBBAAAGXC2hiUROMoVt2W+BDR+3NnTtXli1bJufPnw/lCJRr1qxpJxUfeeSRmIzyy4pkj84HeN9999kjFf0PpovTaHLxxhtv9If4mYkCWdXf9JHocxlv2H79+smsWbOMG2mCfvPmzUaMAgIIIIAAAl4QIMHohVaijggggAACCLhc4IMPPpCHHnrIUcujR49KmTJlHPFED1y6dEn27Nkj//3vf+0/OtJPHfRV6YoVK0rhwoVjShDvZM+VK1fkwQcflCVLlgSeg+RigCLuO/Hub/qA9LmMN/OMGTOkf//+xo10mgQdoZovXz4jTgEBBBBAAAG3C5BgdHsLUT8EEEAAAQQ8IDB8+HCZNGmSUdPixYvL8ePHjRiFzBGIZ7Ln2rVroiMvFy5cGHiYOnXqyKpVq0Rf+WbLHgL0uYy387p166RZs2aOG+mUA40bN3bECSCAAAIIIOBmARKMbm4d6oYAAghkAwFNVlgrDWeDJ03sR9R/DG/cuNF4SGtVZPn444+NGIXMEYhnsmfo0KEyZcqUwIPUrl3bbmdNKLNlHwH6XMbb+vTp02GnE3jppZdEf2nDhgACCCCAgJcESDB6qbWoKwIIIOBhAZ/PJytWrJB//OMfcvDgQfn222/tn+fOnZPy5cuLzknn/3P33XfLTTfd5OGnzV5Vv3z5sv3Kr76mGbzpwiXJycnBIfYzSSBeyZ758+dLjx49Ak9RtWpV2bBhg5QsWTIQC97RvqF/9LXPvHnzBh9i3+MC9LnYNKD+9++7774zbtaxY0fRaSfYEEAAAQQQ8JIACUYvtRZ1RQABBDwo8MMPP8icOXNk9uzZ8s0330T0BLr67OTJk6VXr14Rnc9JWSugCxLUr1/fUYnXXntNevfu7YgTiL1Aq1at7FeU/Xd+5pln5M9//rO/GJOf27dvlwYNGogu7qJb6dKl7eRi5cqVU7y/Pwn1u9/9TlavXp3ieRzwngB9LjZt1q5dO1m+fLlxM/0F25EjR4wYBQQQQAABBFwvYI0oYUMAAQQQQCBTBBYtWuSzkoU+6z+GUf1p06aN79ChQ5lSN24aOwFroYKw7fvZZ5/F7kO4U6oCt956q9EGTz75ZKrnBx+0Xnn25ciRI/Dnb3/7W/Bhe99KKvqsV6EDn5EnTx7fpk2bHOcFBz788MPA+a1btw4+xH4CCETb5yLpb8qTXfpcUlJS4HsS/N/KY8eOJUAv4REQQAABBLKTACMYXZ8CpoIIIICA9wT0VdkhQ4bIrFmzHJUvUKCA6BxuLVu2lNtuu01y5col27Ztk8WLF8vUqVMd5+s5W7duZZ5Gh4x7AtY/kOXFF180KmQlrERffy9YsKARpxB7gV27dtnfpatXrwZurtMN6IhDfTU5rW3QoEHGd2/69OmOlW2fe+45efbZZ41bPfzww0bZX9ARjlZyRKwEs+gcq7p16tRJrF84+E/hp8cFMtLnIulvypNd+tzbb78t3bt3d/SITz/91B4x7DhAAAEEEEAAAZcKkGB0acNQLQQQQMCrAmfOnJEWLVrYScHQZ9B5pfTVZ51zKtz21ltv2a/U6pxtwZu+Xt2nT5/gEPsuEujSpYsjecQK0pnTQEePHpXDhw/L2bNnRfe/+OILefPNN0UXiwjd6tatK127dhWdJ7FEiRKSP39+qVSpkhQpUsQ4VV+nfv755wOx0NerdZqDKlWqyPnz5wPnpHenb9++YX/hkN77cH78BWLd59Lqb/qE2anP6YrRTZs2dTTsu+++K507d3bECSCAAAIIIOBagew0XJNnRQABBBDIXAFrBJWvbdu2YV/3GjFiREQfPmzYMMf11gISPitxGdH1nBR/AWtePkeb6eu0bLEX+OMf/+iwtv6SGXHMWqTFUSn9bgbfw0o2GueMGTPGOB58bqT7kX7/jQ+m4AqBWPe5tPqbPnR26nMHDhwI+/2yRoW7ov2pBAIIIIAAApEKSKQnch4CCCCAAAJpCYRLDmoCol+/fmldGjj+9ddf+3LmzOn4B5f1embgHHbcJWAtSOBoL50/ky32AtbUAw7rSJN8ep41KspRKWshHuOe1krvxjkpfa/T87kvvPCCcU8K3hGIdZ9Lq7+pTHbqc9bIYOP75/9e9e/f3zudhJoigAACCCBgCfCKtPVfcTYEEEAAgYwL6OvNjz76qONGukLmsmXLROfki3SzFoSQlStXGqffe++99n2MIIUsF9DX2fXVW/9ce/4KaV+wRsv5i/x0sYCu8Lx27Vq7hrlz57ZfwS5VqpSLa0zVvCxAf3O2nrUYmj1nbfAR/psXrME+AggggIAXBEgweqGVqCMCCCDgcgGdD07naDtx4oRRU13QZffu3VKhQgUjnlbBGrkh1srExmk333yz7Nmzx4hRyHoBa8Sp3fahNdGFXyZOnBgapuwyAWuVdqlYsaK+0WLXLHT+RZdVl+p4XID+Fr4Ba9SoIfv37zcOWqt0y44dO4wYBQQQQAABBNwsQILRza1D3RBAAAGPCIRO2u+v9oQJE2TkyJH+YsQ/dcEJvWfwljdvXvnpp59YTToYxQX7q1evthf1Ca3KlClTZPDgwaFhyi4S0FGnHTp0CIwMrlWrlr1oTJ48eVxUS6qSKAL0t5Rbsnnz5vLJJ58YJxQuXDjs4k3GSRQQQAABBBBwkQAJRhc1BlVBAAEEvCigK4xWq1bNTv4F119Xrt21a5dEk6zQxOSoUaOCb2fvHzx4MN2jIR03IRBTgXnz5knPnj0d92QFVAeJ6wLWYhtizY1o16tOnTpizb0o1nyarqsnFUoMAfpbyu3YpUsXWbRokeMEXR1eE41sCCCAAAIIeEGABKMXWok6IoAAAi4W6Nu3r8yePdtRw1dffVWs1Ucd8UgCeu2AAQMcp+o8cc2aNXPECWSdgL4G/fTTTzsqsGbNGtFROWzuFfCPFL7rrrvk/fffl+uvv969laVmnhegv6XchDraOzk52XHC3r17RV+fZkMAAQQQQMALAiQYvdBK1BEBBBBwqcC5c+dEF4O4ePGiUUNNVOjIxkKFChnxSAtjx46VcePGOU7fsGGDNGrUyBEnkHUCY8aMkfHjxzsqoKNXa9as6YgTcJfA3//+d9HFJHRxFzYEMluA/hZeOKVR+1u3bpXbb789/EVEEUAAAQQQcJkACUaXNQjVQQABBLwksGDBAnnkkUccVdZFWqZPn+6IRxro16+fzJo1y3G6l0ZznD9/3p7PzvEQcQyUK1dOKleunKmf+NRTT8nLL7/s+Iz//Oc/mf7Zjg8lgAACCHhQYNKkSTJ8+HBHzfmlmoOEAAIIIICAiwVIMLq4cagaAggg4HaBdu3ayfLlyx3VzOjotY4dO8rixYsd9z1+/LgUL17cEXdj4M0335THHnssS6vWtm3bsO0Ty0qFW/Fb73/kyBHm84slNPdCAIGEFUhpWpCPPvpIWrVqlbDPzYMhgAACCCSWAAnGxGpPngYBBBCIm8DJkyelTJky8ssvvxifWb16ddm3b58RS2+hSZMmoiM3grccOXLYn5UrV67gsGv358+fLz169MjS+sUjwfj444/L3LlzHc954sQJKVasmCNOAAEEEEDAFHj99delT58+ZtAqLV26VO677z5HnAACCCCAAAJuFCDB6MZWoU4IIICABwTeeOMN6d27t6OmgwYNkldeecURjzRw9epVKVq0qJw9e9a4RF/11dduvbJllwRj165dRVeMDt30FfGCBQuGhikjgAACCIQIpDTdiK4s3alTp5CzKSKAAAIIIOBOARKM7mwXaoUAAgi4XqBXr14yZ84cRz3/+c9/iq5KG+2mk9rXrVvXcflDDz0k7733niPu1sCKFStEXx/Oyu2ee+4JuzJpLOt0//3326NsQu+pI1tZOCRUhTICCCDgFNBV3MMlEnV0eFaPhHfWlggCCCCAAALhBUgwhnchigACCCCQhkDt2rVl586dxlkFChQQfXU6X758Rjw9heTkZBk8eLDjkokTJ0pSUpIjTiBrBdq0aSM6T1jwpq+xX7lyJTjEPgIIIIBACgLLli2T9u3bO47OmDFDdNEzNgQQQAABBLwgQILRC61EHRFAAAGXCejrr4ULF5Zr164ZNWvWrJmsXbvWiKW3kNICL0x2n17J+JzftGlTWb9+vfFhmmi+cOGCEaOAAAIIIBBeQEe8hxv5r6tLDx06NPxFRBFAAAEEEHCZwP8BAAD//85wY2UAACRySURBVO3dC7xNZfrA8YdcM7nlmlQuU+4UHUK5E+M2LhXSaNwycr/khHDI7RM1NC4pgxrDkJCIXMOMYxCHiIxpEEPlNhLC/q9n+Z/dXnvtfZzL3vustc/v/Xx8zlrvXpd3fd+zcJ7zvu+TyWMUoSCAAAIIIJACgc2bN0u9evVsZ7z88ssyffp0W31KKgoVKiTfffed5ZSsWbOadXny5LHUs5P+AtWqVZPdu3dbGpI/f3754YcfLHXsIIAAAggEFtiyZYvUrVvX9uG4ceNk+PDhtnoqEEAAAQQQcKJAJgKMTuwW2oQAAgg4W+Dtt9+WPn362Bo5Z84c6datm60+uRUHDx6U8uXL2w5v3LixrF271lZPRfoLNGnSRNatW2dpSIECBWxBYssB7CCAAAIIeAW2bdsmTz75pHc/cWPmzJny0ksvJe7yFQEEEEAAAUcLEGB0dPfQOAQQQMCZAqNGjZK4uDhb4+Lj4yUmJsZWn9yKV155RSZPnmw7fNasWdKzZ09bPRXpL1CjRg3RfvctuXPnlosXL/pWsY0AAgggEERg48aN0qBBA9unEydOFP13kYIAAggggIAbBAgwuqGXaCMCCCDgMIE//OEPoiMr/MuFCxcktdOYr1+/LsWLF5ezZ89aLps5c2Y5deqUFC5c2FJ/p51bt27J+++/Lzr1rHnz5tKmTZs7ncLnqRDQqfI6Zd63ZM+eXa5evepbxTYCCCCAQBCBNWvWSLNmzWyfTps2LeBsAduBVCCAAAIIIOAAAQKMDugEmoAAAgi4TeCZZ56RJUuWWJp91113yY0bNyx1KdlZvHixPPfcc7ZT6tSpYwtg2Q7yq/j000/NUR8JCQnmJ7169ZIZM2b4HRXe3fPnz8vWrVvDe5M7XL1kyZJSoUKFOxyVto9/85vfyOrVq20X0QBvpkyZbPVUIIAAAghYBT766KOAvwRL67Ij1ruwhwACCCCAQHgFCDCG15erI4AAAlEp0KhRI1m/fr3l2dK67l79+vVl06ZNlmvqzsqVK6VFixa2+kAVe/bskaFDh8qGDRssHw8YMECmTp1qqQv3zvz586VLly7hvk2S12/atGnA4F+SJ6Xww3bt2smHH35oO0tHMOpIRgoCCCCAQNICixYtkg4dOtgO+uCDD6RTp062eioQQAABBBBwogABRif2Cm1CAAEEHC6g0411xIVvKVGihBw7dsy3KtnbR44ckTJlyoiReMxyTuXKlWXv3r2WukA7//nPf8xMmwsXLrRdQ4/XoOOkSZMCnRq2uowSYOzcubPoD8H+JS3T5f2vxT4CCCAQzQLz5s2TF1980faI+ssblvewsVCBAAIIIOBQAQKMDu0YmoUAAgg4WWDw4MEyZcoUSxPz5csn586ds9Qld6dt27aybNky2+E6bVqnYwcrmkhk/PjxoutUJbXm36uvviqvv/56sMuEpT6jBBh79OghOo3Pv5w5c0YKFSrkX80+AggggICfwOzZswNmi9a1GZ9++mm/o9lFAAEEEEDAmQIEGJ3ZL7QKAQQQcLSAJnjRRC/+5cqVK5IzZ07/6iT3ddRhoClgjz76qOzatUs0yUug8te//tVc/P6HH37wfly2bFnRUY8amPQdDTlixAgZO3as97hIbGjiEw3Epmdp3LixGYANZxv69+8vf/zjH2230FGlDzzwgK2eCgQQQAABq4D+Hap/l/oX/XdE1yGmIIAAAggg4AYBAoxu6CXaiAACCDhMYO3atQFHVXz99ddSunTpZLdWs0NrEhJNiOJbcuTIYQYXy5cv71tt2dYpz8OGDTPrdHr19OnTpWHDhuZ+pUqVZP/+/d7jR44cKXFxcd59NkInEBsbKxMnTrRdUKe9//rXv7bVU4EAAgggYBWYPHmymZjMWisSHx8vMTEx/tXsI4AAAggg4EgBAoyO7BYahQACCDhbQNdaLFWqlK2ROgqjb9++tvpgFcEyEGtCFk3MklS5fPmyVKtWzVy3auDAgZI1a1bv4U2aNJF169Z59wkweilCvqGB21GjRtmuu3v3bnnsscds9W6s0AD4vn375MCBA2amdJ36XaxYMfMH/5SO2HXj89NmBPwFeCf8RdK2r/9GjRs3znaRhIQEqVixoq2eCgQQQAABBJwoQIDRib1CmxBAAAEXCDRv3lw++eQTS0t19OLhw4eDTmv2PVhHHwZKvNKsWTNZtWqVZMqUyffwFG0TYEwRV5oODja1T783tC/dWjSgqNPq//nPf8rx48cDPoZmya5Zs6Z069bNXCs0S5YsAY+jEoFoEOCdCF8vdu/eXd59913bDVhqwkZCBQIIIICAgwUIMDq4c2gaAggg4GQBnYJcpUoVuXXrlqWZs2bNkp49e1rqfHeuXbtmrjWlx/kXXcxes1PrFOm0FAKMadFL2bnaX4GynL733nvy+9//PmUXc8jRb7zxhjn9/ubNm8lu0YMPPmiO5AyUCTbZF+FABBwqwDsR3o5p0aKF+Ys137vcddddZvIyfnHhq8I2AggggICTBQgwOrl3aBsCCCDgcIHf/e53smDBAlsrNWuzTvfyHYWogcjPPvvMDC5+9dVXtnN0ROTSpUtFR4WltRBgTKtg8s/fs2ePVK1a1XaC9v/w4cNt9U6vCJR0qEiRItKvXz95+OGH5fvvvzfXB9Us4devX7c9Tv369eWdd94JuISA7WAqEHCBAO9E+DtJl/vQZSV8iybJ0hGMFAQQQAABBNwiQIDRLT1FOxFAAAEHCpw9e1bat28vn3/+ua11uk6drsGniT4uXLggmg3zxIkTtuN0tOJrr70mQ4YMkVCN1CDAaGMOW4UG3AoWLGi7/ssvv2wm3rF94OAKHbGo36///ve/va3Uaf86TTpv3rzeOt3QhEZdu3aVrVu3Wup1RwOSp0+fttVTgYDbBHgnItNj999/v3z77beWm9WuXTvg3y+Wg9hBAAEEEEDAQQIEGB3UGTQFAQQQcKOA/gCqo9V0vbqUTCnVZ61bt67oVOlHHnkkpI9OgDGknHe8WK5cueTKlSuW49q2bWuOSLVUOnzn0KFDUq5cOUsrdfRWhw4dLHWJO5cuXZInnnhCDh48mFhlfq1Ro4b84x//sNSxg4AbBXgnwt9rOrpfR+7fuHHDcrNOnTrJBx98YKljBwEEEEAAAScLEGB0cu/QNgQQQMBFAtu3bxddd2/Hjh2iU6A9Hk/Q1mvWZ12rrkKFCkGPScsHBBjTopfyc8uWLWv2ue+ZtWrVkm3btvlWOX579erVopnNfcuKFSukZcuWvlWW7aNHj5pByZ9//tlbr5nUNfkNBQG3C/BOhL8HdSZA4cKFbTeKjY2V8ePH2+qpQAABBBBAwKkCBBid2jO0CwEEEHCxgE6J3rlzp+gIDJ1C61sef/xx8zPfulBvE2AMtWjS19PkPGvXrrUcVLJkSfnXv/5lqXP6jk53fuqppyzNTM5U7+eff17+8pe/eM/TUUf6vU9BwO0CvBPh78GEhASpXLmy7UZ3SphmO4EKBBBAAAEE0lmAAGM6dwC3RwABBKJZQNeomzt3ru0Rjxw5Yq51Z/sgRBUEGEMEmczL9OjRQ+bMmWM5OmfOnLZp05YDHLijwXAdSeSbGV3XBdU1GDVjerCya9cuiYmJ8X6s39+6diMFAbcL8E6Evwf1lzP6Sxr/oqNHmzZt6l/NPgIIIIAAAo4VIMDo2K6hYQgggID7BVauXCmtWrWyPYhmF9Z1G8NVCDCGSzbwdV9//XUZMWKE7UPNgKqZUN1U9PtVv299i2bJ/vvf/y7ZsmXzrWYbgQwhwDsR3m7W5RT69+9vu8mXX35pWxPWdhAVCCCAAAIIOEiAAKODOoOmIIAAAtEm8NNPP4lmk758+bLl0TQj7zfffCN58uSx1CfuHD58OE2JXwgwJkpG5uvSpUvNbOL+d1u1apVtTUP/Y5y2Hx8fLzVr1rSMYtQ2vvTSSzJz5kynNZf2IBB2Ad6J8BJ369bNXL/Y9y5Zs2YVTSKVI0cO32q2EUAAAQQQcLQAAUZHdw+NQwABBNwvoIGZ2bNn2x4k2AL2M2bMkN69e8uwYcNkwoQJtvOSU0GAMTlKoTvm5MmTUrx4cdsFtf+0H91WBg0aJFOnTrU1mzXRbCRUZBAB3onwdXT16tVt6xJXq1bNXJohfHflyggggAACCIRegABj6E25IgIIIICAj8DevXvl0Ucf9am5vZk5c2ZZuHChPPvss2bF+fPnZfTo0TJt2jTvsZooRpPCpLQQYEypWNqP1wCjBhp9S8eOHS3JT3w/c/K2jrytXbu27Nmzx9JMXY9x3bp1Uq9ePUs9OwhEuwDvRHh6WNd7zZ07t/z444+WG/Tp08fyb6HlQ3YQQAABBBBwqAABRod2DM1CAAEEokngt7/9rSxfvjzgI+noDY/HI7t375abN296j9HEITpiLFOmTN665G40bNhQNmzY4D083Gs+em+UgTfat28vOlXat1SoUEH279/vW+WabQ2Wli1b1ja9P3/+/Ob36kMPPeSaZ6GhCIRCgHciFIrWaxw9ejRgwjPNSq+/oKEggAACCCDgJgECjG7qLdqKAAIIuFRAk32UL1/eNkoj2OMMGDAg4BTVYMf711euXFkSEhK81YwG8VKEbWPKlCkyePBgy/V1HTEdmaNf3VTOnTsnY8eOlbfeeitgs3VE7vbt20UzZVMQyAgCvBPh6eWPPvpI2rRpY7v4sWPHpESJErZ6KhBAAAEEEHCyAAFGJ/cObUMAAQSiSGDLli1mwg//qWC+j1iwYEFz1GKgH7h8j0tqWzNvaoDRdzRkuXLlRKdquy3QldRzOu0zzbJcq1YtW7M00FuxYkVbvRMrrl27JtOnTxfNin3hwoUkm/jCCy/I/PnzkzyGDxFwuwDvRHh7MC4uTkaNGmW5iSZGO3PmjKWOHQQQQAABBNwgQIDRDb1EGxFAAIEoEdDpYJMnT5bVq1fL6dOnzUy9uXLlMqeidurUSTRoo1NQk1tOnTplrvun2TZ1W6dZL1iwIGBwqGrVqtKhQwcpXbq0aCBTR5/pCBHNaE1Ju8DVq1fNtcR+/vlny8U0CKf96vSi07uHDBliZjf3bWvjxo1FR+BqZnP/oue0bdvWv5p9BKJCgHci/N0YaPmQli1byooVK8J/c+6AAAIIIIBAiAUIMIYYlMshgAACCCRPQANRV65ckTx58iTvhABHabZpzTqd2uKW4Fdqny/S5wXKhtq5c2cz6BvptqTkfm+++aYMHDjQckqBAgXMKdIa+P7uu++kSpUqZhDb9yANVB86dEjuvfde32q2EXC9AO9E+LtQR9nr3x0XL1603GzChAkybNgwSx07CCCAAAIIuEGAAKMbeok2IoAAAggEFNCgkP4gnNqyaNEibxbr1F6D834RiI2NlYkTJ/5SYWwVLlzYHK2ammQ9lguFaUdH1L7yyiuWq+tUbx1B5Bs41KRBmjzIv+gUx5EjR/pXs4+AawV4JyLTdcGWlYiPj5eYmJjINIK7IIAAAgggEEIBAowhxORSCCCAAAIIZGQBXedSE6D4F63XdTGdVnStxREjRliadf/995tT7XUdNP9Sr1492bx5s6W6WLFi5rTqLFmyWOrZQcCNArwTkeu10aNHy5gxYyw31GU7NMELBQEEEEAAATcKEGB0Y6/RZgQQQAABBBwqUKZMGdt6hZMmTZKhQ4c6qsVTp06VQYMGWdqUI0cO2bZtm+h6nYHKxo0bpUGDBraPlixZIu3atbPVU4GAmwR4JyLbW0888YTs2LHDclOdGq1TpCkIIIAAAgi4UYAAoxt7jTYjgAACCCDgUAEdkaMjc3yLBuXWr1/vW5Wu27qmYsmSJeXy5cuWdrz//vvy/PPPW+r8d4oWLSr//e9/LdVNmzY1ExdZKtlB4P8FtmzZYiYQSk+QRo0amdnRg7WBdyKYTHjqz58/byYb03UYfcu+ffukUqVKvlVsI4AAAggg4BoBAoyu6SoaigACCCCAgPMFNNuyjmL0LdmzZ5dz587J3Xff7VudbtuDBw+WKVOmWO6vo4l0TbQ7leeee04WL15sOYxpjRYOdvwENJlUly5d/Goju3unIDjvRGT7QzN0t2/f3nLTsmXLysGDBy117CCAAAIIIOAmAQKMbuot2ooAAggggIALBHQdRl130bcsX75cWrVq5VuVLtunT5+WUqVKyU8//WS5f3JGL+oJ06dPl759+1rOzZo1q1y7dk2SSmRz69YtczqkBhC++eYb88+pU6ckc+bM8uCDD0qFChXkqaeeCjo923LDEOxoe/SZdXRd8+bNpU2bNiG4KpcIJOD0ACPvxO1ei+Q7oQFn/b7wLTr6+7XXXvOtYhsBBBBAAAF3CXgoCCCAAAIIIIBACAWMTNIe439Dlj+tW7cO4R1Sf6nevXtb2qXtLFiwoMcIECbrosbII9v5eg0jWGg7/8aNGx4j+7SnV69eniJFigQ8z9+pZcuWngMHDtiuFcqKNWvWeIxpmN72aPso4ROYN2+e19q/vyO1b4xgDPqAvBMeTyTfif/973+eXLly2b4njNHfQfuIDxBAAAEEEHCDACMYjf/ZURBAAAEEEEAgdAInTpww1zg0Amzei+oov5MnT0qg7MzegyKwkTdvXrl48aLlTrGxsTJ+/HhLXbCdTZs2Sf369W0fx8fHS0xMjKVeRyYeP37cUqc7mqn6kUceMaeN64hGHf3oW+655x7Rtdh06nUoy549e8xkO0bQ03LZAQMGiCb4oIRHQJcH+Pzzz8Nz8WReVdccDba2H+/EUInkOzF37lzp2rWrpeeqV69uS/hiOYAdBBBAAAEE3CDghigobUQAAQQQQAABdwkYyVJsI3SMdQ/T9SGM5Cy2Nhn/V/MkJCQku13GlOKA1zCywdqu8atf/cpybL58+TwLFy70GFMxvcca01M9zZo1sxynbapdu7b3mLRuGFOyPZ06dfIYU7ht99F7GRm+03oLznepAO9E5N8Jfbf1vfP98+GHH7r0O4hmI4AAAggg8IsAIxiNf90pCCCAAAIIIBBaAWOarzliyvgvh/fC5cuXF61Pr7J161ZznUP/+//444/JTkCzbNkyadu2rf8l5Ntvv5X77rvPUq8jERMzVWuiGx0lVatWLcsxunP9+nVRm6NHj1o+0xGfxYoVs9SlZEdHaurIzGnTpsnVq1eDnvrqq68mmWE46Il84HoB3onAXRiud+LIkSPm6GXfu+poZh3JrOuxUhBAAAEEEHC1wC+xRrYQQAABBBBAAIHQCRjJQyyjdIz/MHl27twZuhuk8Epz5syxtceYsp2iq/zpT3+yXcOY/u25efOm7Tq+Ixj79+9v+9y3YubMmbbrrl271veQFG3rSMl7773Xck0jS63HyIJtG8k4YsSIFF2bg6NHgHcisu/EsGHDLO+k/p343nvvRc83FE+CAAIIIJChBSRDPz0PjwACCCCAAAJhE9i2bZvth2lj7bGw3e9OFx4yZIitPca6iXc6zfJ5x44dbdcwRiBZjknceeuttzxjx441/+hU6KSKsUaf7bppCTz4JtopU6aM57PPPvPevmLFipZ7jRw50vsZGxlLgHfidn9H4p0wRhF7ihYtann3jBHKyU4wlbG+M3laBBBAAAE3ChBgdGOv0WYEEEAAAQRcIuC/3piO9tM1AdOj6Og9HTHk+8eY7pzspujaiZpx2vd83R4+fHiyrxHswEBrO2rG6tQWzVSrgU8NNBpTsC2Xady4seUZCDBaeDLUDu/E7e6OxDsRaPRzeq9Lm6G+2XlYBBBAAIGwC7AGo/GTAQUBBBBAAAEEwiOwZs0aMZKYWC7eo0cPmT17tqUuEjt6X2NKqOVWLVu2lBUrVljqgu1oJuA6derYPj58+LA8/PDDtvqUVMyYMUN69+5tOeXQoUNijD601IVip0mTJrJu3TrvpYwAo8TFxXn32cg4ArwTt/s63O+EZoovXbq06LqqicVYwkCMX7aIsZRCYhVfEUAAAQQQcLUAAUZXdx+NRwABBBBAwPkCTz/9tBjrCXobaoxiNBOaPPDAA966SGyMGTNGRo8ebblVpUqVZN++fZa6YDsNGzY0E7X4fl6zZk3Zvn27b1WKt42RkWaSl6+++sp7buXKlWXv3r3e/VBuhDuYEsq2cq3wCvBO3PYN9zsR6BcIs2bNkp49e4a3g7k6AggggAACERQgwBhBbG6FAAIIIIBARhTQzKnGGmdmtuTE59cfrPUH7EiWQBmgc+bMKcePH5cCBQok2ZT169dLo0aNLMdkyZJF4uPj5bHHHrPUp3THWGtRunXrZjlNA7LGtE1LXah2wh1MCVU7uU74BXgnbhuH853QLPGlSpWyjF6sWrWqGAmvyBwd/m9x7oAAAgggEEmBsE/C5gYIIIAAAgggkOEFYmNjLev+6VqMx44di6iLJlnImzevpR3G/7k8AwYMSLIdxhRoW0ZmPe+1115L8rzkfPjFF194jCCnpU1Dhw5NzqmpPiYS682lunGcGFEB3onb3OF8J6ZPn255vzNlyuTZsWNHRPuZmyGAAAIIIBAJAZK8REKZeyCAAAIIIJDBBS5fvuwpXry45QdtY0RgxFU0oYkGB33/ZMuWzTNz5syAbdHsy8ZUbsvxem69evVsyVMCXiCJyu+//95TsmRJy7WNNSE9N2/eTOKstH8UzmBK2lvHFSItwDvh8YTrnThx4oQnT548lne8a9euke5i7ocAAggggEBEBJgibfyUQEEAAQQQQACB8AsYWZGlffv2lhu988470r17d0tdOHeM4J3Ur19fNGGLf3nyySfNz0qUKCFnz56VzZs3y+rVq/0PEyNAIEZAUnQtydSWS5cuSYMGDWTXrl3eS+h6jkZAU+6++25vXTg2wjkdNBzt5ZrhFeCdEAnXO6EJrjTRVWLJly+f6JIRd1qSIfF4viKAAAIIIOAmAQKMbuot2ooAAggggIDLBTp16iQLFy70PkXu3LnlwIEDYoxu9NaFe0ODe/369ZN58+al6Fb58+eXUaNGSd++fVN0nv/BV65cMQMa27Zt8370+OOPi67zqB7hLuEKpoS73Vw/fAK8E6HPrK5/v7z44ouWTvvb3/5m+yWL5QB2EEAAAQQQcLEAAUYXdx5NRwABBBBAwG0CGlyrUaOG7N+/39t0DXh9+umn3v1IbehowT//+c/y8ccfizGFO+hty5UrZwYVO3funObRhdeuXZMWLVqYIxUTb6hJYjS4qKObIlEIMEZC2Z334J243W/GtHGJi4tLdSeeOnXKzAx/4cIF7zUGDRokb7zxhnefDQQQQAABBKJNgABjtPUoz4MAAggggIDDBb7++mvREXsXL170tlRHBo4ePdq7H8kNI9GFHDp0SM6cOWP+0SBo0aJFRadKP/TQQ2KsoRaS5ty4cUPatWsnK1as8F4v0sFFvTEBRi8/G0EEeCdSH2DUvz90+QMjkYtXt06dOuYvETTzPAUBBBBAAIFoFSDAGK09y3MhgAACCCDgYIGVK1dK69atNdmct5UzZsyQXr16efejaePWrVuiIyB9p4dXqVJFNmzYIDr1OpKFAGMktblXMIFofCf0lwitWrWyrN1arFgx2b17txQuXDgYBfUIIIAAAghEhQABxqjoRh4CAQQQQAAB9wmMHz9ehg8f7m145syZRdcoa9u2rbcuWjYGDhwob775pvdxKlasKBs3bkyXZA8EGL3dwEY6CkTbO6G/LOnSpYssWLDAq6prqq5bt06qV6/urWMDAQQQQACBaBUgwBitPctzIYAAAggg4AIBDbrp2mSJIxmzZ88uX3zxhZQtW9YFrU9eE+fPn28GHhKPLl26tGzfvl0KFSqUWGX5ev36ddE/mqVaPUJdCDCGWpTrpVQgGt+JKVOmyODBg70Umila15atWrWqt44NBBBAAAEEolmAAGM09y7PhgACCCCAgAsE5s6dKz169JCbN2+aax7u3LlTChYs6IKW37mJe/fuNZPaaHIXLUWKFDGDiyVLlgx6cmIAsG7durJp06agx6X2g4YNG5pTsxPP11Gk48aNS9zlKwJhFYjWd2LNmjVmAif9e0ynRWvCnGj6RUlYvym4OAIIIIBAVAgQYIyKbuQhEEAAAQQQcLfA0qVLZejQobJq1SrRrM3RUHQUYrVq1bwZs7NlyyZbt26VmJiYoI+nI56aNm1qft6oUSNzeqX/wTri03e69bJly8z1LP2PC7ZfuXJlSUhI8H7cp08fmTZtmnefDQTCJRDt74SuIzt79mwzkZMmiKIggAACCCCQkQQIMGak3uZZEUAAAQQQQCBiAmPGjLFlxu7YsWPA++sIx9OnT5uZZzX5hZZnnnlGFi9ebDu+X79+loDg22+/Lb1797YdF6jiyy+/FA0w6iirxKIBXR1VplOyKQiEU4B3Ipy6XBsBBBBAAIH0FSDAmL7+3B0BBBBAAAEEolDg7NmzUqpUKbl8+XKqn65nz54ya9Ys2/k6pVkT5CSWYFOcT506JSdPnpRLly6JbmsmW01AceHChcRTvV91nbgOHTqIrg+p09Nz5swpJUqUkLx583qPYQOBtAjwTqRFj3MRQAABBBBwvgABRuf3ES1EAAEEEEAAAZcJjBo1SuLi4tLU6mHDhsmECRNs14iNjZWJEyd66zXYqHX+RUc16pTN1BZNxPHCCy+k9nTOQ8AiwDth4WAHAQQQQACBqBMgwBh1XcoDIYAAAggggEB6C2g2Wc0qm5YyadIkc11K/2t0795d3n33XW/1J598Is2aNfPuJ24MHDjQslZjYn1yvy5atEieffbZ5B7OcQgkKcA7kSQPHyKAAAIIIOB6AQKMru9CHgABBBBAAAEEMpKAZpfesmWL+chZsmQxp0EXLlw4IxHwrAhYBHgnLBzsIIAAAgggkC4CBBjThZ2bIoAAAggggAACKRc4fvy4aHZaj8djnhxs/cWUX5kzEHCnAO+EO/uNViOAAAIIRJ8AAcbo61OeCAEEEEAAAQSiUECzS7du3Vo+/vhj8+kqVKhgJm7Jli1bFD4tj4TAnQV4J+5sxBEIIIAAAghESoAAY6SkuQ8CCCCAAAIIIJAGAU36ousyaqlSpYro2ov33XdfGq7IqQi4W4B3wt39R+sRQAABBKJLgABjdPUnT4MAAggggAACUSqg2aJ1SnSTJk1kyZIlcs8990Tpk/JYCCRPgHcieU4chQACCCCAQCQECDBGQpl7IIAAAggggAACIRBYvny5NG/eXDS5CwUBBER4J/guQAABBBBAwBkCBBid0Q+0AgEEEEAAAQQQQAABBBBAAAEEEEAAAVcKEGB0ZbfRaAQQQAABBBBAAAEEEEAAAQQQQAABBJwhQIDRGf1AKxBAAAEEEEAAAQQQQAABBBBAAAEEEHClAAFGV3YbjUYAAQQQQAABBBBAAAEEEEAAAQQQQMAZAgQYndEPtAIBBBBAAAEEEEAAAQQQQAABBBBAAAFXChBgdGW30WgEEEAAAQQQQAABBBBAAAEEEEAAAQScIUCA0Rn9QCsQQAABBBBAAAEEEEAAAQQQQAABBBBwpQABRld2G41GAAEEEEAAAQQQQAABBBBAAAEEEEDAGQIEGJ3RD7QCAQQQQAABBBBAAAEEEEAAAQQQQAABVwoQYHRlt9FoBBBAAAEEEEAAAQQQQAABBBBAAAEEnCFAgNEZ/UArEEAAAQQQQAABBBBAAAEEEEAAAQQQcKUAAUZXdhuNRgABBBBAAAEEEEAAAQQQQAABBBBAwBkCBBid0Q+0AgEEEEAAAQQQQAABBBBAAAEEEEAAAVcKEGB0ZbfRaAQQQAABBBBAAAEEEEAAAQQQQAABBJwhQIDRGf1AKxBAAAEEEEAAAQQQQAABBBBAAAEEEHClAAFGV3YbjUYAAQQQQAABBBBAAAEEEEAAAQQQQMAZAgQYndEPtAIBBBBAAAEEEEAAAQQQQAABBBBAAAFXChBgdGW30WgEEEAAAQQQQAABBBBAAAEEEEAAAQScIUCA0Rn9QCsQQAABBBBAAAEEEEAAAQQQQAABBBBwpQABRld2G41GAAEEEEAAAQQQQAABBBBAAAEEEEDAGQIEGJ3RD7QCAQQQQAABBBBAAAEEEEAAAQQQQAABVwoQYHRlt9FoBBBAAAEEEEAAAQQQQAABBBBAAAEEnCFAgNEZ/UArEEAAAQQQQAABBBBAAAEEEEAAAQQQcKUAAUZXdhuNRgABBBBAAAEEEEAAAQQQQAABBBBAwBkCBBid0Q+0AgEEEEAAAQQQQAABBBBAAAEEEEAAAVcKEGB0ZbfRaAQQQAABBBBAAAEEEEAAAQQQQAABBJwhQIDRGf1AKxBAAAEEEEAAAQQQQAABBBBAAAEEEHClAAFGV3YbjUYAAQQQQAABBBBAAAEEEEAAAQQQQMAZAgQYndEPtAIBBBBAAAEEEEAAAQQQQAABBBBAAAFXChBgdGW30WgEEEAAAQQQQAABBBBAAAEEEEAAAQScIfB/qjKKuylUa88AAAAASUVORK5CYII=;" vertex="1" parent="1">
          <mxGeometry x="608" y="117.31" width="480.79" height="70.06" as="geometry" />
        </mxCell>
        <mxCell id="raWA9acyGIPrlW4xChrn-21" value="" style="shape=image;verticalLabelPosition=bottom;labelBackgroundColor=default;verticalAlign=top;aspect=fixed;imageAspect=0;image=data:image/png,iVBORw0KGgoAAAANSUhEUgAABR4AAAD0CAYAAAD9uDoEAAAMPmlDQ1BJQ0MgUHJvZmlsZQAASImVVwdYU8kWnluSkEBoAQSkhN4EASkBpITQAkgvgo2QBAglxkAQsaOLCq5dRMCGrooodkDsiJ1FsPdFEQVlXSzYlTcpoOu+8r2Tb+7988+Z/5w5d24ZANROcUSibFQdgBxhnjgm2J8+PimZTuoBCPwpAypQ53BzRcyoqHAAbej8d3t3E/pCu2Yv1fpn/381DR4/lwsAEgVxKi+XmwPxIQDwKq5InAcAUcqbTc8TSTFsQEsME4R4sRSny3GVFKfK8T6ZT1wMC+IWAJRUOBxxOgCq7ZCn53PToYZqP8SOQp5ACIAaHWKfnJypPIhTILaGPiKIpfqM1B900v+mmTqsyeGkD2P5XGSmFCDIFWVzZvyf5fjflpMtGYphCZtKhjgkRjpnWLfbWVPDpFgF4j5hakQkxJoQfxDwZP4Qo5QMSUi83B814OayYM2ADsSOPE5AGMQGEAcJsyPCFXxqmiCIDTFcIWiBII8dB7EuxIv5uYGxCp/N4qkxilhofZqYxVTwFzhiWVxprIeSrHimQv91Bp+t0MdUCzPiEiGmQGyeL0iIgFgVYofcrNgwhc/YwgxWxJCPWBIjzd8c4hi+MNhfro/lp4mDYhT+JTm5Q/PFNmcI2BEKfCAvIy5EXh+shcuR5Q/ngrXzhcz4IR1+7vjwobnw+AGB8rljPXxhfKxC54Mozz9GPhaniLKjFP64KT87WMqbQuySmx+rGIsn5MEFKdfH00R5UXHyPPHCTE5olDwffAUIBywQAOhAAlsqmAoygaCtr6EP/pP3BAEOEIN0wAf2CmZoRKKsRwiPsaAQ/AkRH+QOj/OX9fJBPuS/DrPyoz1Ik/Xmy0ZkgacQ54AwkA3/S2SjhMPREsATyAj+EZ0DGxfmmw2btP/f80Psd4YJmXAFIxmKSFcb8iQGEgOIIcQgog2uj/vgXng4PPrB5owzcI+heXz3JzwldBAeE24QOgl3pgiKxD9lOQ50Qv0gRS1Sf6wFbgk1XXF/3BuqQ2VcB9cH9rgLjMPEfWFkV8iyFHlLq0L/SftvM/jhaij8yI5klDyC7Ee2/nmkqq2q67CKtNY/1keea+pwvVnDPT/HZ/1QfR48h/3siS3GDmLnsdPYRewY1gDo2EmsEWvFjkvx8Op6IltdQ9FiZPlkQR3BP+INXVlpJXMdax17Hb/I+/L4BdJnNGBNFc0QC9Iz8uhM+Ebg09lCrsMourOjswsA0veL/PH1Jlr23kB0Wr9zC/4AwPvk4ODg0e9c6EkA9rvD2//Id86aAV8dygBcOMKViPPlHC49EOBTQg3eaXrACJgBazgfZ+AGvIAfCAShIBLEgSQwGWafAde5GEwHs8B8UAxKwQqwFlSATWAr2An2gAOgARwDp8E5cBm0gxvgHlw93eAF6AfvwGcEQUgIFaEheogxYoHYIc4IA/FBApFwJAZJQlKQdESISJBZyAKkFFmFVCBbkBpkP3IEOY1cRDqQO8gjpBd5jXxCMVQF1UINUUt0NMpAmWgYGodOQtPRaWghuhBdhpaj1ehutB49jV5Gb6Cd6At0AAOYMqaDmWD2GANjYZFYMpaGibE5WAlWhlVjdVgTvM7XsE6sD/uIE3EaTsft4QoOweNxLj4Nn4MvxSvwnXg93oJfwx/h/fg3ApVgQLAjeBLYhPGEdMJ0QjGhjLCdcJhwFt5L3YR3RCJRh2hFdIf3YhIxkziTuJS4gbiXeIrYQewiDpBIJD2SHcmbFEnikPJIxaT1pN2kk6SrpG7SByVlJWMlZ6UgpWQloVKRUpnSLqUTSleVnil9JquTLcie5EgyjzyDvJy8jdxEvkLuJn+maFCsKN6UOEomZT6lnFJHOUu5T3mjrKxsquyhHK0sUJ6nXK68T/mC8iPljyqaKrYqLJWJKhKVZSo7VE6p3FF5Q6VSLal+1GRqHnUZtYZ6hvqQ+kGVpuqgylblqc5VrVStV72q+lKNrGahxlSbrFaoVqZ2UO2KWp86Wd1SnaXOUZ+jXql+RP2W+oAGTcNJI1IjR2Opxi6Nixo9miRNS81ATZ7mQs2tmmc0u2gYzYzGonFpC2jbaGdp3VpELSsttlamVqnWHq02rX5tTW0X7QTtAu1K7ePanTqYjqUOWydbZ7nOAZ2bOp9GGI5gjuCPWDKibsTVEe91R+r66fJ1S3T36t7Q/aRH1wvUy9Jbqdeg90Af17fVj9afrr9R/6x+30itkV4juSNLRh4YedcANbA1iDGYabDVoNVgwNDIMNhQZLje8Ixhn5GOkZ9RptEaoxNGvcY0Yx9jgfEa45PGz+nadCY9m15Ob6H3mxiYhJhITLaYtJl8NrUyjTctMt1r+sCMYsYwSzNbY9Zs1m9ubD7OfJZ5rfldC7IFwyLDYp3FeYv3llaWiZaLLBsse6x0rdhWhVa1Vvetqda+1tOsq62v2xBtGDZZNhts2m1RW1fbDNtK2yt2qJ2bncBug13HKMIoj1HCUdWjbtmr2DPt8+1r7R856DiEOxQ5NDi8HG0+Onn0ytHnR39zdHXMdtzmeM9J0ynUqcipyem1s60z17nS+foY6pigMXPHNI555WLnwnfZ6HLbleY6znWRa7PrVzd3N7FbnVuvu7l7inuV+y2GFiOKsZRxwYPg4e8x1+OYx0dPN888zwOef3nZe2V57fLqGWs1lj9229gub1NvjvcW704fuk+Kz2afTl8TX45vte9jPzM/nt92v2dMG2Ymczfzpb+jv9j/sP97lidrNutUABYQHFAS0BaoGRgfWBH4MMg0KD2oNqg/2DV4ZvCpEEJIWMjKkFtsQzaXXcPuD3UPnR3aEqYSFhtWEfY43DZcHN40Dh0XOm71uPsRFhHCiIZIEMmOXB35IMoqalrU0WhidFR0ZfTTGKeYWTHnY2mxU2J3xb6L849bHncv3jpeEt+coJYwMaEm4X1iQOKqxM7xo8fPHn85ST9JkNSYTEpOSN6ePDAhcMLaCd0TXScWT7w5yWpSwaSLk/UnZ08+PkVtCmfKwRRCSmLKrpQvnEhONWcglZ1aldrPZXHXcV/w/HhreL18b/4q/rM077RVaT3p3umr03szfDPKMvoELEGF4FVmSOamzPdZkVk7sgazE7P35ijlpOQcEWoKs4QtU42mFkztENmJikWd0zynrZ3WLw4Tb89FciflNuZpwQ/5Vom15BfJo3yf/Mr8D9MTph8s0CgQFrTOsJ2xZMazwqDC32biM7kzm2eZzJo/69Fs5uwtc5A5qXOa55rNXTi3e17wvJ3zKfOz5v9e5Fi0qujtgsQFTQsNF85b2PVL8C+1xarF4uJbi7wWbVqMLxYsblsyZsn6Jd9KeCWXSh1Ly0q/LOUuvfSr06/lvw4uS1vWttxt+cYVxBXCFTdX+q7cuUpjVeGqrtXjVtevoa8pWfN27ZS1F8tcyjato6yTrOssDy9vXG++fsX6LxUZFTcq/Sv3VhlULal6v4G34epGv411mww3lW76tFmw+faW4C311ZbVZVuJW/O3Pt2WsO38b4zfarbrby/d/nWHcEfnzpidLTXuNTW7DHYtr0VrJbW9uyfubt8TsKexzr5uy16dvaX7wD7Jvuf7U/bfPBB2oPkg42DdIYtDVYdph0vqkfoZ9f0NGQ2djUmNHUdCjzQ3eTUdPupwdMcxk2OVx7WPLz9BObHwxODJwpMDp0Sn+k6nn+5qntJ878z4M9dbolvazoadvXAu6NyZ88zzJy94Xzh20fPikUuMSw2X3S7Xt7q2Hv7d9ffDbW5t9VfcrzS2e7Q3dYztOHHV9+rpawHXzl1nX798I+JGx834m7dvTbzVeZt3u+dO9p1Xd/Pvfr437z7hfskD9QdlDw0eVv9h88feTrfO448CHrU+jn18r4vb9eJJ7pMv3QufUp+WPTN+VtPj3HOsN6i3/fmE590vRC8+9xX/qfFn1Uvrl4f+8vurtX98f/cr8avB10vf6L3Z8dblbfNA1MDDdznvPr8v+aD3YedHxsfznxI/Pfs8/QvpS/lXm69N38K+3R/MGRwUccQc2acABhualgbA6x0AUJMAoMH9GWWCfP8nM0S+Z5Uh8J+wfI8oMzcA6uD3e3Qf/Lq5BcC+bXD7BfXVJgIQRQUgzgOgY8YMt6G9mmxfKTUi3AdsZn9NzUkF/8bke84f8v75DKSqLuDn878AGrB8L5SbybkAAACKZVhJZk1NACoAAAAIAAQBGgAFAAAAAQAAAD4BGwAFAAAAAQAAAEYBKAADAAAAAQACAACHaQAEAAAAAQAAAE4AAAAAAAAAkAAAAAEAAACQAAAAAQADkoYABwAAABIAAAB4oAIABAAAAAEAAAUeoAMABAAAAAEAAAD0AAAAAEFTQ0lJAAAAU2NyZWVuc2hvdDSzy5oAAAAJcEhZcwAAFiUAABYlAUlSJPAAAAHXaVRYdFhNTDpjb20uYWRvYmUueG1wAAAAAAA8eDp4bXBtZXRhIHhtbG5zOng9ImFkb2JlOm5zOm1ldGEvIiB4OnhtcHRrPSJYTVAgQ29yZSA2LjAuMCI+CiAgIDxyZGY6UkRGIHhtbG5zOnJkZj0iaHR0cDovL3d3dy53My5vcmcvMTk5OS8wMi8yMi1yZGYtc3ludGF4LW5zIyI+CiAgICAgIDxyZGY6RGVzY3JpcHRpb24gcmRmOmFib3V0PSIiCiAgICAgICAgICAgIHhtbG5zOmV4aWY9Imh0dHA6Ly9ucy5hZG9iZS5jb20vZXhpZi8xLjAvIj4KICAgICAgICAgPGV4aWY6UGl4ZWxZRGltZW5zaW9uPjI0NDwvZXhpZjpQaXhlbFlEaW1lbnNpb24+CiAgICAgICAgIDxleGlmOlBpeGVsWERpbWVuc2lvbj4xMzEwPC9leGlmOlBpeGVsWERpbWVuc2lvbj4KICAgICAgICAgPGV4aWY6VXNlckNvbW1lbnQ+U2NyZWVuc2hvdDwvZXhpZjpVc2VyQ29tbWVudD4KICAgICAgPC9yZGY6RGVzY3JpcHRpb24+CiAgIDwvcmRmOlJERj4KPC94OnhtcG1ldGE+Ci4D4ZoAAAAcaURPVAAAAAIAAAAAAAAAegAAACgAAAB6AAAAegAAPFs0MOaZAAA8J0lEQVR4AeydC7xN1dbAB7meud7PREguUUQviRBXIYUUucVHkURuL1KIVIQSIr28b0XlEUrSS0oedUUPyqNE0e0SPSTtb439fWe31p7rnLP3Pvux1t7/+fud315rrDnnmvM/x5l77bHmHCNfwEpCggAEIAABCEAAAhCAAAQgAAEIQAACEIAABCAQRwL5MDzGkSZVQQACEIAABCAAAQhAAAIQgAAEIAABCEAAAkECGB5RBAhAAAIQgAAEIAABCEAAAhCAAAQgAAEIQCDuBDA8xh0pFUIAAhCAAAQgAAEIQAACEIAABCAAAQhAAAIYHtEBCEAAAhCAAAQgAAEIQAACEIAABCAAAQhAIO4EMDzGHSkVQgACEIAABCAAAQhAAAIQgAAEIAABCEAAAhge0QEIQAACEIAABCAAAQhAAAIQgAAEIAABCEAg7gQwPMYdKRVCAAIQgAAEIAABCEAAAhCAAAQgAAEIQAACGB7RAQhAAAIQgAAEIAABCEAAAhCAAAQgAAEIQCDuBDA8xh0pFUIAAhCAAAQgAAEIQAACEIAABCAAAQhAAAIYHtEBCEAAAhCAAAQgAAEIQAACEIAABCAAAQhAIO4EMDzGHSkVQgACEIAABCAAAQhAAAIQgAAEIAABCEAAAhge0QEIQAACEIAABCAAAQhAAAIQgAAEIAABCEAg7gQwPMYdKRVCAAIQgAAEIAABCEAAAhCAAAQgAAEIQAACGB7RAQhAAAIQgAAEIAABCEAAAhCAAAQgAAEIQCDuBDA8xh0pFUIAAhCAAAQgAAEIQAACEIAABCAAAQhAAAIYHtEBCEAAAhCAAAQgAAEIQAACEIAABCAAAQhAIO4EMDzGHSkVQgACEIAABCAAAQhAAAIQgAAEIAABCEAAAhge0QEIQAACEIAABCAAAQhAAAIQgAAEIAABCEAg7gQwPMYdKRVCAAIQgAAEIAABCEAAAhCAAAQgAAEIQAACGB7RAQhAAAIQgAAEIAABCEAAAhCAAAQgAAEIQCDuBDA8xh0pFUIAAhCAAAQgAAEIQAACEIAABCAAAQhAAAIYHtEBCEAAAhCAAAQgAAEIQAACEIAABCAAAQhAIO4EMDzGHSkVQgACEIAABCAAAQhAAAIQgAAEIAABCEAAAhge0QEIQAACEIAABCAAAQhAAAIQgAAEIAABCEAg7gQwPMYdKRVCAAIQSA2Bw4cPy4cffijNmjVLTQO4KwQgAAEIQAACEIBARhL4/fff5bnnnpNu3bpJ/vz5M5IBnYYABNwJYHh054IUAhCAgO8IdO/eXf71r3/J8OHD5d577/Vd+2kwBCAAAQhAAAIQgID/CKjRUQ2OCxculNGjR8vdd9/tv07QYghAIGEEMDwmDC0VQwACEEgegccff1z69esXuuGiRYukY8eOofN0PtCVni+88IIsW7ZMHnvsMSlXrlyeuvvf//5X/v3vf8uWLVtEH6TLly8vJ510kpxzzjlSpEiRPNVN4cwigC79Od76MuTo0aPSo0cPqVu37p8XOPIFAXTZF8NEI3MhgB7nAigPl0eOHBl66X3CCSfI66+/Ls2bN89DjRSFAATSiQCGx3QaTfoCAQhkJIGPPvpIzj//fPn111+D/S9evLh8/PHHUq1atbTmsXbtWpk8ebIsXrxYfvnll2Bfp0yZIjfddFPU/VZDo76hX79+vXz11Veu5QsVKiRNmjSRPn36SNeuXaVAgQKu+RBmNgF0yRz/I0eOSIUKFeTnn38OXjzrrLOkZ8+e0rdvXylYsKBZAIknCKDLnhgGGpFHAuhxHgFGWFwNja1bt5ZAIBAsUalSJdHnU315S4IABCCgkwMJAhCAAAR8SuDHH38M1KpVS5/yQn9PPPGET3sTWbO//fbbwLXXXhvIly9fqM9Z/b/88ssjq8SW66GHHgpYb+eNurLqdPu0jLqBp59+2lYLhxAIBNAldy149dVXXf+/dO5asWKFeyGkKSWALqcUPzePEwH0OE4gI6ymf//+jrneMkQGjh8/HmFpskEAAulMgBWP1i9KEgQgAAG/Erj66quDjryz2t+2bVuxfshnnabdp2Xsk8GDB4tlcHX0TVd36krH66+/XkqWLOm4ltPJ/Pnz5ZprrnFkqVixogwaNEhOO+00+f7772XDhg0ya9Ys+e233xz59KRly5YyY8YMqVmzpnENQWYRQJeyH2/rQVpee+01mTRpUnB+0nN76tSpk+j/dokSJexijlNEAF1OEXhuG1cC6HFccUZU2U8//SRnnnmmfPnll6H8o0aNknvuuSd0zgEEIJCZBDA8Zua402sIQCANCEybNk2st8uhnqjBTf0Sqj/CdEx2/0FZ/StatKiMGzcu6N9SfQpFk6y38GKtuJKdO3eGip166qnB7dbhxsvt27dL79695Z133gnlzTpQQ+W+ffuyTvnMQALoUuSDrnOUbrPeuHGjo5D+WH3llVdE/59IqSOALqeOPXeOHwH0OH4so61Jn5Muuugi+eOPP4JF9dls1apVQVm0dZEfAhBIIwLpvJyTvkEAAhBIVwKbNm0KWD4HHVtaZs6cmZbdtX5ABG688UZHX62v4UDjxo0Dn332Wcx9/uSTT4w6rRUS2dZ36NChgBUUwyhz3nnnZVuGC5lBAF2Kbpyt1cOBYcOGBfLnz+/4f6pevXrAMvJHVxm540oAXY4rTipLEQH0OEXg//+21s4Ux9xu+XsMfPfdd6ltFHeHAARSSgAfjynFz80hAAEIRE9ADWDWyjzHQ12HDh2ir8gnJdRAoYZG+1/Tpk0D1paePPXAioLtqFPrtwLV5FinGkX+8pe/OMoNHDgwxzJcjI6Atdo0yFg565+Ok9cTuhTbCD3zzDOGr1Y1Ph48eDC2CimVZwLocp4RUoEHCKDHqR0EK5BYoHbt2o5npYsvvhh/j6kdFu4OgZQSwPCYUvzcHAIQgED0BPr16+d4mCtdunTA2uobfUU+KLFy5UpjVVTDhg3jYph4++23HRzV8DhgwIBcqVg+IR3l5s6dm2sZMkROwG5g1uNnn3028sIpyokuxQ7+kUcecfw/6Zh37tw59gopmScC6HKe8FHYIwTQ49QPxHvvvWcE7nvsscdS3zBaAAEIpIQAPh6tJ1wSBCAAAb8Q+Pjjj8UyvIn6L8pK6kC9W7duWadp82lFr5YGDRqItT0n1CcNPmFtoZLKlSuHZLEeaOCYChUqhPwQaT0FChQI+njU+2aXNNjMOeecE7q8bds2Ud+QpPgQsKKVOyqyDI9y1VVXOWReO0GX8jYiffr0kaeeespRyZQpU4IBoxxCThJOAF1OOGJukAQC6HESIEdwiyFDhsjYsWNDOcuUKSNffPFFVEEAQ4U5gAAEfE0Aw6Ovh4/GQwACmUagVatWsnr16lC3O3bsKIsWLQqdp9OBRptWo6o9TZ061RFQx34tlmPlt2TJEkfRRo0aydq1a6VgwYIOOSfJIeBHw6OSQZdi148ffvhB/va3v8mBAwdClRQpUkR27NhBsJkQkeQdoMvJY82dEkcAPU4c20hrPnr0aPAFsuWPO1TklltukYcffjh0zgEEIJAZBDA8ZsY400sIQCANCKiB8Yorrgj1xArMIFu3bg3+YA8J0+RAVzXWr1/fsRpRVxlaW3dE+x2vtG7dOmnSpInjPlq3tZ1dNGo4KfkE/Gp4RJfypiuzZs0KRru212L5T5VJkybZRRwngQC6nATI3CLhBNDjhCOO6AYvvPCCdOnSJZTX8t0smzdvTstn11AnOYAABAwCGB4NJAggAAEIeI+AvjU+/fTT5csvvww17h//+IfMnj07dJ5OB127dpUFCxY4umT5UhRdBRnvdOutt8rEiRONaqdPny59+/Y15AgSS8Cvhkelgi7FrhvqPsKKfOpY9VioUKHgtrwqVarEXjElYyKALseEjUIeI4Aep35ALGdyctZZZ8lHH30Uaswll1wiy5cvD51zAAEIpD8BDI/pP8b0EAIQSAMC48aNkzvvvDPUE/VF+Omnn6alb0FdxamrHfVhNSsVLlxY9u/fL8WLF88Sxe3zl19+EStKtmzatMlRpzK2gttIixYtHHJOEkvAz4ZHdClvuqGG/hkzZjgqsQI+yeTJkx0yThJPAF1OPGPukHgC6HHiGUdyh6VLl8pll13myKqGRzVAkiAAgcwggOExM8aZXkIAAj4moMFVatWqJYcPHw714n/+53+MYAyhiz4/GDp0qDz44IOOXqivpkT6styzZ4/UqVNHjhw54rivFTFcNm7cKKeccopDzkniCPjZ8KhU0KXYdWPVqlXSunVrRwUajEADTemLAFJyCaDLyeXN3RJDAD1ODNdoaz333HPlgw8+CBVTv74aMJG5PYSEAwikNQEMj2k9vHQOAhBIBwK9e/eWp59+OtQV9Y+jkZTT1RimRlaNemhP8+bNk+7du9tFcTvWwBajR4+WRx55xLVOjSL+7rvviga7ICWegJ8Nj+hS3vRDt1tXrFhRNCKtPenK43CDpP06x/EngC7Hnyk1Jp8Aepx85tnd8dVXX5W2bds6Lutz16BBgxwyTiAAgfQkgOExPceVXkEAAmlCQLf/nn322Y7gJ+kc+ER9AKmhz54Stc1a/WbqFs4xY8bIwYMH7bc0jq+99lrR4BekxBPwo+ERXYqfXrhtt77++uuNLdjxuyM12Qmgy3YaHPuVAHrszZFTtzb6IjcrlSpVSrZv3y66sp0EAQikNwEMj+k9vvQOAhDwOYELL7xQ1qxZE+pFugdbGDFihIwaNSrUXz24/PLL5aWXXnLI8nqycOFCuf3222XXrl2Oqtq0aSO7d++Wzz//3CHXEy3TuXNnQ44gvgT8ZnhEl+I7/m7brcuVKxf08RrfO1FbOAF0OZwI534kgB57d9TeeOMNadmypaOB/fv3l6lTpzpknEAAAmlIwHLeT4IABCAAAQ8SsH6Aa3QVx9/NN9/swZbGr0nt2rVz9Ff7b20zj98NrJqsCNbGPcqWLRuwomYH72MFsQlUrlzZyGMZPwLWFtC4toXKTALhOv/ss8+amTwiQZfiPxDHjh0LWEGkjP8/64VA/G9GjSEC6HIIBQc+JoAee3/wrIB9jvndch8U+Oabb7zfcFoIAQjkiYBGDSVBAAIQgIAHCYQb4Swfg4F9+/Z5sKXxa1KVKlUcD6RqhHr99dfjdoOxY8ca9V9wwQWGQdHN6KttsVZjxq0tVOROwC+GR3TJffziIbWCDhj/p1ZU1HhUTR0uBNBlFyiIfEcAPfbHkFm7eIz53Qoq6I/G00oIQCBmAmy1tn7hkCAAAQh4jYBu9dUoy9bsHmqaOuDOLgBKKJOPD9QJvJufn61bt0rdunXz3DP15Xj33Xc76rEMncGo1eXLl3fI9cR6Ky9vvvmmQ37SSScFt2cThdGBJa4nfthqjS7FdciNyi666CJ56623HPL77rtPhg0b5pBxkncC6HLeGVJD6gmgx6kfg2hacPHFF4v1UjlUpHTp0vL1119L0aJFQzIOIACBNCMQs8mSghCAAAQgkDACVgAZ443wJ598krD7eaFiy8hn9Nn6yjVWI8bS1gkTJhh1W0FrAhs2bMi2Ol1pqfcP/1uwYEG2ZbiQdwLhvL221RpdyvsY51ZD165djf87lZHiSwBdji9PaksNAfQ4Ndzzctfnn3/emOOnTZuWlyopCwEIeJwAKx6tXzgkCEAAAl4ioCv/Tj75ZPn5559DzTr//PNl7dq1ofNoDnTlkAZSSWVq3bp1MHp0Tm2wHkTlqquucmSxfP+IRqcMXwXnyJTLyYEDB6RGjRpy5MgRR845c+ZIjx49HLLwk0qVKsm3337rEF9yySWyfPlyh4wTJ4G86Nz69esdlVWoUEGqVq3qkEVyEonORVKPPQ+6ZKeRuOOBAwcGI87b79C8eXNjBbL9OsfREUCXo+NFbm8SQI+9OS65teq3334T3UFi+c0OZbVcbIj1gj1Pz3uhyjiAAAS8R8DjhlGaBwEIQCDjCNx///3Gm+Ann3wyZg4zZ8406rO+jZIqs4x1ubZ/xowZRps0yEte06233mrUaxlyI6rWMoQaZatXrx5R2UzO5Bedi3aM0KVoicWW39pWbfzfNWzYMLbKKOVKAF12xYLQZwTQY58NmK25t9xyizHPL1u2zJaDQwhAIJ0IEFwmnUaTvkAAAr4nYL0FNiIqn3jiiYHDhw/H3De/GIHGjx9vPISeddZZMfdbC+7duzegQXnCDa3WaseI6n300UeNshqB8Y8//oiofKZm8ovORTM+6FI0tPKW94knnjD+76xVy3mrlNIhAuhyCAUHPiaAHvt48Kymf/zxx8Y8b/l+9HenaD0EIJAtAQyP2aLhAgQgAIHkE5g7d67xINarV688NcQvRqDhw4cbfY9kpWROcG666SajznLlygWs7ds5FQtdW7hwoVFejZj6g4eUPQG/6Fz2PTCvoEsmk0RJlixZYvzflS1bNlG3y7h60eWMG/K07DB67P9hPeecc4y5fvPmzf7vGD2AAAQMAvh49N7ud1oEAQhkMIHGjRsHoyzbEaxZs0YuuOACuyiqY/UZ+fbbb0dVJt6Z1cfiGWeckWO11pYpmThxoiNPq1atZNWqVQ5ZNCclS5aUQ4cOOYoMHTpUrO3sDll2J2+88Ya0bNnSuLxu3TqxHpgNeXYCa4WkqE9J9X3Yvn176dSpU3ZZ8yTX+7z//vtBP0m7du0KRuC2jKSSP39+qVatmtSrV0+aNWsmjRo1ytN9ciscq85ZTykGm759+0rbtm1zu6VxPRKdMwrlIMg0XTp+/HjQr+y2bdtk586dIV0qUaJE0AftKaecEhwr/Yx3WrRokVxxxRWOaq2Vyw6/t46LnERFINN02SvzYlSDROZcCWSaHqdyTs51MGLMYLnYEf2OtyfrZbs8/fTTdhHHEIBAOhAwTJEIIAABCEAgJQQso5Tx5tdytp2StqTipnfddZfR/y5dusTcFCsojFGf9b0diOZtutuYaB2WcS/idq1YsSJgGV1DbbnxxhsjLhtJxt9//z2gEbi13ooVK4buo+3M7u+yyy4LbNmyJZLqk54nvM1eiGqdKbpk/bANWMb2oC7pyuDwsQg/twzagcsvvzzwxRdfxFVPVq9ebdzbMjLE9R6ZWlmm6HK6zYuZqq/Z9TtT9Ngrc3J245BXufViOFC0aFHHfF+oUKHAd999l9eqKQ8BCHiMAFutPTYgNAcCEMhcAvoDPvyH/bhx4zIGyIMPPmj0/9JLL425/9YqT6M+5fvTTz9FXOcLL7zgWsc333yTax0bN24MWCs2jfKDBw/OtWw0GayIz8Y9tJ9VqlQJ3l+DcuiDfLhuFS9ePLBjx45obpWUvOHt9ILhMVN0SX2qhvPX85o1awbatGkTsFZku/pMtVY9BiL5n4hUgZYuXWq0w1qxG2lx8uVAIFN0Od3mxRyGNCMvZYoee2VOTqSSXXfddcZ8P2LEiETekrohAIEUEMDwmALo3BICEIBAOAH90a6rh+w/+gsUKBDQt/qZkqZNm+bov7Jo3rx5zN13C1BRvnz5qOqbOnWq0SYNLqOrELJL1hbnwDXXXBPIly+fUVb7dMcdd2RXNCa5Bh+y602pUqUC8+fPdwTA2bdvX0CNuPZ8ety0adOY7pnIQuFt9ILhMVN0SQ2Idv66glaNgPakc9KVV17pyKdl8uqP1X4PHXN7O/S4fv369iwcx0ggU3Q53ebFGIc7bYtlih57ZU5OpCK57SypVKlSjs9ZiWwPdUMAAokhgOExMVypFQIQgEBUBB555BHjh3bHjh2jqsPvmefNm2cw0NV6sabbb7/dqE8dmUeTunfvbtRRu3Zt1yoOHjwYNCoWLlzYKGM3ouiW8ngm+w9sXdlo+QR1rV4D6px66qlG2/bs2eOaP1VCOys99oLhMVN0yf4jV7e/bdq0yVUNfvvtN4f7AB2nYsWKBY4dO+aaP1qh5ffL0FPLz2201ZDfhUCm6HK6zYsuQ5nRokzRY6/MyYlWtlq1ahlzvrr9IEEAAulDAMNj+owlPYEABHxMoEmTJsZD1+LFi33co+ibrr4Qw41OefHrdvXVVxv1de7cOeKGWQEJAm5+7oYNG2bUoSsMy5Qp47hfnTp1AtqG8JWPd999t1E+LwL7D+xbbrklx6rcVpW++uqrOZZJ9sVwHfCC4TFTdMn+I/e2227LcegfffRRh77ruGVnqMyxIpeLVgAoo+4OHTq45EQULYFM0eV0mxejHed0z58peuyVOTnR+mQF/DPm/H79+iX6ttQPAQgkkQCGxyTC5lYQgAAE3Ah89dVXhnFKVxv98ssvbtnTVrZ7927jwVONGd9//31Mfb7++uuN+jSoSqTJbfuPtufzzz83qrD7p9SAQK+99looj24RtRvT7rnnntC1eBzoatnRo0cH/3RLdU7JzS/WU089lVORpF+zs9JjLxgeM0WXJk2aFFCjn/7l5rPxueeec+i1jtXWrVvjoi9du3Y16h4yZEhc6s70SjJFl9NtXsx0vQ3vf6bosVfm5HD+8T7/9NNPjTlfX/xqkCgSBCCQHgQwPKbHONILCEDAxwTGjx9vPHC1a9fOxz2Kvem6wjHc8LRu3bqYKhw5cqRRl0aXjjS5BYbRlalu6fDhwwHdgq0GSN2Gak8alMPep3gbHu33yu3YzZi6cOHC3Iol9bqdlR57wfCILpkqEB6FXn3Shuu+WSoyiVtABV1VTMo7AXTZZOiHedFsdWZL0GNz/BM5J5t3i7/Evroz6znA/hI3/nekRghAIJkEMDwmkzb3ggAEIOBCQP0OZj1kZX1OmTLFJWf6i5o1a2awmDVrVkwdd4tIXaRIkcCBAwdyrU8fdrPGIutTDSsaqTra5CXDo1uwHF1p4KWUxTvr0wuGR3TJqSG6GrtevXqO/5G///3vzkwxnmngJo24njX+WZ/xWk0ZY7PSphi6bA6lH+ZFs9WZLUGPneOfyDnZeafEnfXv39+Y9/v06ZO4G1IzBCCQVAIYHpOKm5tBAAIQcBLYsWOH8aClP7RVnolp4MCBBo/evXvHhOLXX38NuK2gHDx4cI716VbqcH+NOibDhw/PsVx2F71ieFSDjm4DzzLk6OeZZ56ZXbNTJre3T4+9YHhEl5zqEB50SYMabdu2zZkpxrMNGzY4dFR1QAM2xStwTYzNSpti6LJzKP0yLzpbzRl67NSBRM7Jzjsl7mzp0qXG3F+6dOm4raRPXMupGQIQiIQAhsdIKJEHAhCAQIII2H0DZhlcsouanKAmeKraV155xXjwrF69esxt1G3NWVyzPgsWLBjQICtuSVc6Vq1a1SjTokWLmB9+vWJ4fPLJJ41+eS2wjI5J1jhlfXrB8KjtQpcCweAx7du3d4yR+uFavXq1IopLGjdunKN+1YNofLPGpRFpXgm6/OcA+2Ve/LPFHGURQI+TMydn8U70508//RTQl1hZ3/1Zn8uXL0/0rakfAhBIAgEMj0mAzC0gAAEIZEfAzZdZbivysqsrHeTqI65UqVLGg+fOnTtj6p46Jnfbvq0PtBdeeGFgxIgRgZkzZwbU2HHppZca99V8uuIyL77rvGB4/PDDDwO6zTzrQV4/77jjjpiYJrqQvY167BXDY6bpkq4E++KLLwJLliwJjB071vj/0GjtXbp0CWhwrHimtm3bOvRUdWDOnDnxvEXG15VpupzdgPtpXsyuD5kszzQ9TtWcnEwdC39e0vm/Z8+eyWwC94IABBJEAMNjgsBSLQQgAIHcCGzfvt34ga0PWStXrsytaFpf79Wrl8FlwoQJMff50KFDwQdXZRvNn27x0YiSeU3hD9K6SiOZSaOC16hRw9F3XUGmP2K8mMLHyCuGR2WVSbrkFgHdPjYPPPBAQP2KxTP95z//CW6rtt9HVygrd1J8CWSSLruR89u86NYHZMzJ9rkyEXNysnVMo9Hb+6TH6jLn6NGjyW4K94MABOJMAMNjnIFSHQQgAIFICdx3333GA1axYsUC6rsok5Nu/w1/8DzttNMCf/zxR56wqEG3W7dugRNPPNGo336/unXrBqZPnx7QbT/xSKk0PKpxoXHjxo7+amTuePUtHnzC67CPhR57yfCY1dZM0KXcDI86Njpf6arhvKwIzmKqnxMnTnToqt6jY8eO9iwcx5lAJuhyODI/zovhfeDcSSAT9DgVc7KTcuLP1Md2+DOAnuvKexIEIOBvAvm0+dY/NAkCEIAABJJMwArsIZs3b3bctUOHDmI9YDlkmXjSqFEj2bRpk6Prr7/+urRs2dIhi+XEMuyKFclZvvvuu+Dfzz//LJUqVRLLl6SccsopUqJEiViqzbaMFe1XrB9FoevWikcZNWpU6DxRB9ovvfeaNWtCtzj77LNl1apV8te//jUk89qBtYXX0STL8ChXXXWVQ+aVk3TWpSNHjojl81Ss7Yyyd+9e+frrr2XLli1BXQ5/dDzjjDOC8goVKuRpaKzgR2L98HTU8f7778u5557rkHESfwLprMt2Wn6dF+194Dh7Aumsx6mYk7Mnnbgrp556qnz55ZeOG1xzzTUyd+5ch4wTCEDAZwT8bTel9RCAAAT8ScAyfLm+1c0u6Ik/exl7q19++WWDj2VEi73CFJZMxYpH68dXoHXr1g6G6k/0hx9+SCGJyG6t/jZ1FV3WX6z+PSO7m79ypUKXwglZxseA9YLEoVvWo29A25aXVcmLFi0y6lS/q6T0JJAKXfbzvJieWuD/XqVCj8OpJWpODr9Pss4HDBhgfBcUL1487q49ktUf7gMBCPwfAbZaowkQgAAEUkDAbUuh/njftWtXClrjzVtaq5yMh8+FCxd6s7E5tCrZP0yOHTsW3J6q+pT15xejYw4YuWQRSLYuZQddt1aff/75If3K0rPnn38+uyI5ynXrv7Xa2Khvw4YNOZbjon8JJFuXmRf9qytebnmy9Tg7FvGek7O7TzLkGsU66zvF/mnt1kjG7bkHBCCQIAIYHhMElmohAAEI5ERAg3vYH6j0WH0Lkv4kYG2xDPzlL39xcKpSpUrg8OHDf2bywVEyf5howJju3bs7mDVo0CCgQTtI/ieQTF3KjdbWrVsdeqZz2M0335xbMdfrQ4cONerq06ePa16E6UEgmbrMvJgeOuPFXiRTj3Prfzzn5NzulcjrljuEQJEiRYzvhGHDhiXyttQNAQgkmACGxwQDpnoIQAAC4QT0R5BG6Qs3PA4cODA8a8afP/TQQwanK664ImD5nfMNm2T+MBk8eLCDV/369QMHDhzwDSsamjOBZOpSzi0JBLdVW75CHfp2wQUX5FbMuK5BAwoUKOCo5/TTTw/oj09S+hJIpi4zL6avHqW6Z8nU49z6qq4u4jEn53afZFxv1aqV4ztBn5c1MB4JAhDwLwEMj/4dO1oOAQj4lIBuHww3Our5vHnzfNqjxDVbH6TbtWtn8Ordu3fibhrnmpP1w2TmzJkOTpaD9oAVQCfb3hw9ejS4elT9npH8QSBZuhQpDV2lbZ/LovXJqFFaw1e2FC1aNPDJJ59E2gTy+ZRAsnSZedGnCuKTZidLjyPFkdc5OdL7JDrfXXfd5fhu0e8Z3QFjBdhJ9K2pHwIQSBABDI8JAku1EIAABLIjMH78eOOBSh+qtm/fnl2RjJbrNmErGrPBrFevXgH1Def1FP7mPhHbhT788MNAoUKFQowqVqwYsKJC5ogm6wfTRRddlGM+LnqHQCJ1af/+/QErenjwr2fPnhGtKj7xxBNDOqdzmBWxPWJYGkzGiiDvKF+4cOHA4sWLI66DjP4lkEhdzqLCvJhFgs9EEUikHid7Tk4Uo1jqdQs2pt8xr776aizVUQYCEPAAAQyPHhgEmgABCGQWAbcVfKVLl84sCFH2Vt9ya1RrffC0/9WuXTuwcePGKGtLbvYzzjjD0eZo/OD985//DOTLly/099JLLxmN15WLuqU6i0vBggUD69atM/LZBStWrAjl1+jXJH8QSKQuhfsHyy1QjK5WzNK5rM9IjIb6sqBv375GWTVCvvXWW/4YCFqZZwKJ1GVtHPNinoeICiIgkEg9TtacHEE3k55l7969xneEfs8MGTIk6W3hhhCAQHwIYHiMD0dqgQAEIBARAfVNGO6DRx+m1KhGypmARm3UlVhZRo6sT/UPpyu1cjO25Vx7Yq5u2bIlcMIJJzjarFuhtC+RJPX7mdVP/ZwyZYpRbOTIkY48mk8DzLj9de7cOegnKX/+/KEyXbt2NepE4D0Cidal8B+5J598cmDPnj2uIA4dOhSoU6dOSIdU5zTKdU56rSuX77///kDlypUd5bSsRrTevHmz670Qph+BROuyEmNeTD+98VqPEq3HiZ6TvcYzvD0aTFC/H+x/5557bng2ziEAAZ8QyKfttP6hSRCAAAQgkAQCH3zwgVgPTsadrC2KMmrUKEOOwCSwatUqsVYNymeffWZcvOOOO2Ts2LGGPBkC6w29WIYa+fHHH0WPrZWYMnv2bDl48KBx+0aNGkm3bt3E8sMo5cqVE8vPnVSvXl2soEOOvNa2bLGMNSGZnt93332hc2srltSsWVOsFaEhWbQH1uozmT59erTFyJ9AAqnQJcuvolhBXRy9soyPYkWclpYtW0qxYsWCev3ee+/JmDFjxApaFMpbpkwZsba1iuZ3S1q35S5BrIAxjsuWewC5/fbbxfLnFfwfcFzkJC0IpEKXmRfTQnU81YlU6HEi52RPwc2mMdaLUnnxxRcdV60XzfLDDz9I8eLFHXJOIAABHxDwiYGUZkIAAhBICwKWUczx9tb6mgieL126NC36l6xO6MqqCRMmBFdKZTHUz4cffjhZTTDu079/f9extbcvp+NZs2YZdeq2InsZXTFmT8OHD3dct+eN9JitS3ai3jhOhS6Fr66JVH80krUGzMopWcb4gLoAyKpTfTlahvdc/ZDmVCfX/EEgFbrMvOgP3fBTK1Ohx4mck/3A/sEHHwx9Z2R9d+jn8uXL/dB82ggBCIQRYKt1GBBOIQABCCSSQNu2bV0fpL799ttE3jZt69ao1++8807QZ5xuy9mxY0fK+jp48GDXsbU/MOd0/Oyzzxpt79Onj6POZcuWOfLceuutjus51Z/dNTWGk7xFIBW6pP9LakDUH3sXX3yxEW3arj+lSpUKXHjhhYGXX345YnBdunQJtGjRIvDUU08FdKs2KTMIpEKXmRczQ7eS2ctU6HGi5+Rk8ovlXqtXr3Z9vrFWycdSHWUgAIEUE2CrtfUkTYIABCCQDAKWf0exfrAb22KrVasmu3btSkYTuIfPCFgRp8UKuBFstW4x0q3cFSpU8FkvaK4XCESrS9bzqVh+GWXfvn3BP8tXadAVQI0aNYLzmBf6RBsyk0C0upyZlOi11wlEq8eZNicfPnw4+J1jGWAdQ9m4cWNZv369Q8YJBCDgfQIYHr0/RrQQAhBIEwLvv/++WAEYjN5ceeWVYkWQNeQIMpvAV199JVbQDd2ZEAQR7t8xs+nQ+2gIoEvR0CKvlwmgy14eHdoWKQH0ODJS6ndYfV3ak74E05diJUqUsIs5hgAEPE4Aw6PHB4jmQQAC6UPggQceCAZRCO/RQw89JLfddlu4mPMMJqBv+C+//HKxfH8GKdSrVy8YrMbyk5fBVOh6LATQpVioUcaLBNBlL44KbYqWAHocObFevXrJzJkzjQJLliyRDh06GHIEEICAdwlgePTu2NAyCEAgzQhccskl8sorrxi90q20zZo1M+QIMpeAFfAlFJ27QYMGYvl2lMqVK2cuEHoeMwF0KWZ0FPQYAXTZYwNCc2IigB5Hjm3atGliBfYxCujLen1pT4IABPxDAMOjf8aKlkIAAj4noIYj9ZdmT7plxAq0IMWKFbOLOc5wAlb0atGt1X//+99lwYIFUrx48QwnQvdjJYAuxUqOcl4jgC57bURoTywE0OPIqW3cuFHUp2N4at26taxcuTJczDkEIOBhAhgePTw4NA0CEEgfAuqPpmzZskaH1H/Nli1bDDkCCCxatEjat28vGlSGBIG8EECX8kKPsl4igC57aTRoS6wE0OPIyB07diz44vXo0aOOApUqVZK9e/c6ZJxAAALeJoDh0dvjQ+sgAIE0IaDbqTWCYXjq0qVLcEVbuJxzCEAAAhCAAAQgAAEIZDIBtwAzyuP777+XMmXKZDIa+g4BXxHA8Oir4aKxEICAXwlMnTpVBgwYYDT/rrvukjFjxhhyBBCAAAQgAAEIQAACEMhkAhpob/HixQaCN998U5o3b27IEUAAAt4kgOHRm+NCqyAAgTQj0K9fP3n88ceNXj3zzDPSs2dPQ44AAhCAAAQgAAEIQAACmUzgjjvucA0kM3nyZNcX+pnMir5DwMsEMDx6eXRoGwQgkDYEmjZtKu+++67RH5U1adLEkCOAAAQgAAEIQAACEIBAJhN44okn5IYbbjAQ9O3bV6ZPn27IEUAAAt4kgOHRm+NCqyAAgTQjULJkyWD06vBu7d+/X8qVKxcu5hwCEIAABCAAAQhAAAIZTSA7H+n60t7thX5Gw6LzEPAwAQyPHh4cmgYBCKQHga+//lqqVq1qdKZEiRJy8OBBQ44AAhCAAAQgAAEIQAACmU5Ao1efdNJJBgaeoQ0kCCDgaQIYHj09PDQOAhBIBwIrVqyQSy+91OjK2WefLR988IEhRwABCEAAAhCAAAQgAAEIiJx44ony008/GSh2797t+mLfyIgAAhBIOQEMjykfAhoAAQikO4Fx48bJnXfeaXSze/fuMm/ePEOOAAIQgAAEIAABCEAAAhAQadiwoXz00UcGimXLlrm+2DcyIoAABFJOAMNjyoeABkAAAulO4Nprr5U5c+YY3RwxYoSMHDnSkCOAAAQgAAEIQAACEIAABES6du0qCxYsMFCMHTtWNOo1CQIQ8D4BDI/eHyNaCAEI+JzAWWedJR9++KHRC13tqKseSRCAAAQgAAEIQAACEICASWDYsGFy//33Gxd69Ojh+mLfyIgAAhBIOQEMjykfAhoAAQikM4Hjx48HfdP8+uuvRjfVv6P6eSRBAAIQgAAEIAABCEAAAiaBWbNmSc+ePY0LDRo0cH2xb2REAAEIpJwAhseUDwENgAAE0pnAtm3bpHbt2q5d/O9//yslS5Z0vYYQAhCAAAQgAAEIQAACmU5g7dq1csEFFxgYChUqFAw6c8IJJxjXEEAAAt4igOHRW+NBayAAgTQj8Nprr0mbNm2MXpUrV072799vyBFAAAIQgAAEIAABCEAAAv9H4Pvvvxd9bnZL33zzjVSuXNntEjIIQMBDBDA8emgwaAoEIJB+BGbPni3XXXed0bHzzjtP3nvvPUOOAAIQgAAEIAABCEAAAhD4k0CJEiXkxx9//FPw/0cbNmyQRo0aGXIEEICAtwhgePTWeNAaCEAgzQg8+OCDMnToUKNXHTt2lEWLFhlyBBCAAAQgAAEIQAACEIDAnwROO+002b59+5+C/z9asmSJdOjQwZAjgAAEvEUAw6O3xoPWQAACaUZg4MCBMnnyZKNX119/vcyYMcOQI4BAIgioP9F///vfsmXLFvn999+lfPnyctJJJ8k555wjRYoUScQtqRMCEICAKwHmI1csCCEAgRwING3aVN59910jx+OPPy433HCDIUcAAQh4iwCGR2+NB62BAATSjMCVV14pCxcuNHo1bNgwue+++ww5AgjEi4AaGkePHi3r16+Xr776yrVadczepEkT6dOnj3Tt2lUKFCjgmg8hBCAAgbwQYD7KCz3K+olAIBCQfPny+anJvmhrp06d5KWXXjLaOmLECBk5cqQhRwABCHiLAIZHb40HrYEABNKMgEbh02h84WnSpEmiqyFJEEgEgfHjx8uQIUPk+PHjEVdfrVo10Qf4Xr16RVyGjBCAAARyI8B8lBshrvuVwIEDB2T+/PmyePFi2bVrl2igE/3erVChQjDgie4quOaaa4Iv+PzaR6+0u2/fvq47hdhB5JURoh0QyJkAhsec+XAVAhCAQJ4I1KhRQ3bu3GnUoQ+q3bp1M+QIIJBXAqpb+kPHnipWrCiDBg0S9ZGk0SHVGfusWbPkt99+s2cLHrds2TL4cF+zZk3jGgIIQAAC0RBgPoqGFnn9QkBdltx7772ifrz1OLfUsGFDmTt3rtStWze3rFzPhsA999zjulOoffv2snTp0mxKIYYABLxCAMOjV0aCdkAAAmlJQP3n/frrr0bfVq1aJa1atTLkCCCQFwK60qJWrVoOY/epp54a3G5dsmRJR9XqpL13797yzjvvOOR6oobKffv2GXIEEIAABCIlwHwUKSny+YmAvry79NJLg9+r4e0uWrSoHD161HW3QeHCheXpp5/mpXM4tAjP1V+6206hs846SzZu3BhhLWSDAARSRQDDY6rIc18I5EDgjz/+kPz58+eQg0t+IKAO9EuXLu3a1M2bN0v9+vVdryGEQKwEPv30U2NFRU6ra3/88Uc5//zz5ZNPPnHc8rzzzpP33nvPIeMEAhCAQDQEmI+ioUVePxDQXQL60njNmjWO5qps4sSJcsYZZ8gvv/wir732mugW4P379zvyFSxYUFavXi3qhocUHYHnnntOrr76aqMQL0oNJAgg4EkCGB49OSw0KlMIqAPqlStXyrJly4K+YXbv3h38PHz4sFStWjVoQNBtGfrXtm3boL+YTGGTDv3cunWr1KtXz7Ur3377bdAHkOtFhBCIkcDy5culXbt2jtLqe+qyyy5zyOwnX3zxRXCOOXbsWEisqwrUDykJAhCAQKwEmI9iJUc5rxLo16+faBRle+rQoYMsWrTIWDCg/h41eFt4cDf1//jZZ59J+C4Ee50cmwTUYOu2U0gXaqhB+IQTTjALIYEABDxDAMOjZ4aChmQSAX0DqtstZsyY4dgSmRODv/71r8G3qbo1kuQPArqdunXr1kZjNdqhGnl4SDLQIMgjAd023axZM0ctAwYMEN2ilFPq0aOHzJs3L5RFfVGF+4kMXeQAAhCAQAQEmI8igEQW3xDYsmWLnHnmmaK7krJS2bJlZceOHVK8ePEskeNzwYIF0rVrV4dMTzQKswZzI0VOQPlnt1NIjbyVK1eOvDJyQgACSSeA4THpyLlhphN4/vnng9svdItjLKlNmzby5JNPysknnxxLccokkcDs2bPluuuuM+5YpkyZYIAP4wICCOSRgPqe0tUU9h9GBQoUCPqiatCgQba1a7AZjb6ZlbZt2ybqG5IEAQhAIFYCzEexkqOcFwlcccUVwZWN9raNGTNG7rrrLrvIONZt1WvXrnXIS5UqFdzhpIsKSJER0EUb+nzjlvQZplGjRm6XkEEAAh4hgOHRIwNBM9KfgAYYGTx4sEyfPt3orDqj/uc//xncQqBvU3Ul3IcffigvvviiPProo0Z+zbNp0yZjW4eREUFKCWi0w6FDhxptqFOnjuFTz8iEAAIxEujYsaMsWbLEUVofyPWHj/qXIkEAAhBIFgHmo2SR5j6JJKCrGmvWrOm4he5e2bt3bzAYm+NC2MmUKVPk5ptvDpOKzJo1S6699lpDjsCdgAar0mcY+4vVrJz6zKNb3kkQgIB3CWB49O7Y0LI0InDo0CFp2bJl0FgY3q3OnTsHt1CrT0e3NGfOHOnTp0/Qf4n9um7TVsfVJO8SGDRokKvhuHnz5vLmm296t+G0zNcE1q1bF/QrFf5wrr6ppk2b5uu+0XgIQMBfBJiP/DVetNadwIQJE+S2225zXGzYsKHrc70jk3Wyc+dOqVGjRrg4GCjlX//6lyFHkD2BcuXKue4Y0kUdffv2zb4gVyAAgZQTwPCY8iGgAelOQH/8t2/fXlasWGF0dciQIfLAAw8Y8nCBPuzoQ489lS9fXrZv3y5s07BT8dbxVVddJbq1Pjx16dJF1O8PCQKJInDrrbcGX2iE18/DeTgRziEAgUQTYD5KNGHqTzQBt+3SulMp/Nk8u3ZokEiN8m5PpUuXDka9xt+3nUrOx6effrrrjqF7771Xhg8fnnNhrkIAAiklgOExpfi5eSYQcDMaar9vvPFGeeyxxyJCoG9L1d9a+AomnFNHhC9lmXTbx8svv2zcv3///jJ16lRDjgAC8SLwyy+/SNOmTY3VGOrvceXKldKiRYt43Yp6IAABCORIgPkoRzxc9DiBgwcPihoJA4GAo6Xqbz3SgI8arG3+/PmO8nryySefiLrfIUVG4KKLLpK33nrLyHzHHXfI2LFjDTkCCEDAOwQwPHpnLGhJGhLQbdJu/lvatWsnS5cuFfUPE2nS6MgaJdmedCWl1kPyJgG3MdOW3n777TJu3DhvNppWpQ2BPXv2BH/QHDlyxNEn/QG1ceNGOeWUUxxyTiAAAQgkigDzUaLIUm+iCbz77rvBF3nh91mzZo3oSshIkq7GGz16tJF18eLFctlllxlyBO4E9PfT8uXLjYsDBw6USZMmGXIEEICAdwhgePTOWNCSNCOgUavVEbVGdbQnDSSjbzirVatmF+d6fNNNNxkrJP/2t78ZWzdyrYgMSSOgK870gTU83X333a4PoOH5OIdArAR++OGHoI498sgjrlWobyrVzSJFirheRwgBCEAgXgSYj+JFknpSQUB9qrv5D/zyyy9dfTe6tVEDyfTs2dO4NH78eFFXBKTICHTq1EleeuklI/MNN9wgjz/+uCFHAAEIeIcAhkfvjAUtSTMCw4YNk/vvv9/o1ZgxY+Suu+4y5LkJtC6t054KFSokP//8M9Gt7VA8dNy4cePgyrLwJulbbzU+kiAQbwJHjx6VyZMni84zuj0sp6SrsfXHEAkCEIBAIggwHyWCKnUmm8Att9ziuppu//79osFOIkm6OvLCCy80shL0zUCSo6Bbt27y7LPPGnl4njGQIICA5whgePTckNCgdCCwd+9eqVWrVtAoaO+P+mncunWrFCxY0C6O6FgNCW7Gql27dkW9ejKiG5IpzwTq1asXHO/winSbtW63JkEgngQWLlwY1CudE+ypTZs2snv3bvn888/t4uCxluncubMhRwABCEAgLwSYj/JCj7JeIqBbod3cGumL/0h3DWQX2VqDELoZ0rzUfy+1RVeNur0w7dq1qzz33HNeaiptgQAEwghgeAwDwikE4kFAt2To1ozwpAFFNLBILEnLDhgwwCiqTpabNWtmyBGknoAamnUrTnhSPzTqj4YEgXgRePjhh0UjbNpT2bJlRbdaq1P7AwcOSIMGDURfitiTrtbQSJtlypSxizmGAAQgEDMB5qOY0VHQgwRatmwpb7zxhqNlGon6999/d8hyOvnuu++kYsWKRhYNQrhkyRJDjsCdQHa/r+DozgspBLxEAMOjl0aDtqQFgcOHD0uFChVEozjaU/HixYM/+k888US7OOLjESNGyKhRo4z86qetSZMmhhxB6glUqVJFvvnmG6Mh06dPd/UXZGREAIEICOgK2jvvvNORUx3eq9N6u0Hx9ddfl4svvtiRT090XrnnnnsMOQIIQAAC0RJgPoqWGPm9TuDss8+WDRs2OJpZokSJXN2Z2Auo33ctE57UqKnfzaTICOhLe3UnE540mOPKlSvDxZxDAAIeIoDh0UODQVPSg8DcuXPlH//4h9EZDQ4zZcoUQx6p4MYbbxQ1WIWnzz77TGrXrh0u9vS5RtnVqLqpTCeffHLETsFjbaeuOPvPf/5jFH/mmWdcnYwbGRFAIBcCbi4Y1OCt/1/ly5c3Srdo0ULefPNNh/ykk04S3Z5doEABh5wTCEAAAtEQYD6KhhZ5/UKgTp06os/a9lS5cmXXF8v2PPbjY8eOubpZOvfcc+X999+3Z+U4BwLqpkgD8oQn9Z/59ttvh4s5hwAEPEQAw6OHBoOmpAeBdu3ayfLly43OqG/HunXrGvJIBeqH7cUXXzSy6xZKNXD5Kc2ePVuuu+66lDb5kksucR2neDaqWLFihp9PrX/+/PmiDrJJEMgLgYkTJxrRMAsXLizqxL5Ro0auVa9evVpatWplXFuwYIF06dLFkCOAAAQgEAkB5qNIKJHHjwSqVq0qX3/9taPpuntJdzhFk/Tl3vHjxx1FNAjh+vXrHTJOsiegvu71BUd40lWpH3zwQbiYcwhAwEMEMDx6aDBoiv8J6Oq2SpUqib7ZtKfTTjvNNbCDPU9ux02bNhXdVm1P+fLlC95Lfc34Kalj6J6Wg+hUpmQYHnVc/vjjD6ObL7zwgnTq1MmQI4BApAT0hUONGjVEVw/b05w5c6RHjx52kXGsc9S3337rkCfj/8FxQ04gAIGICKgf51QHI9NtjG4/9rM6wHyURYLPdCSgO2T27Nnj6JoaIzVoWzSpaNGihhsm9dGu/+OkyAiMHj1ahg8fbmSuX7++bN682ZAjgAAEvEMAw6N3xoKWpAGBp556Svr06WP0ZNCgQcEgD8aFCAX6hrR06dKiPmLsSQ0PbsFL7Hm8eJwJhsfsttXoeLz88suiK2NJEIiVwG233SYTJkxwFD///PNl7dq1DpnbydVXX21Ef6xevbrs2LHDLTsyCEAghQT88H3JfJRCBeHWCSeg7oy2bdvmuI/6cg9/gefI4HJSsGBBY2ECL/1cQOUgcvMhq9k1mOP27dtzKMklCEAg1QT+FwAA///fJfRYAAA9Y0lEQVTtnQncTdX6+B+SqETKEArRJELKbVSGMiSVhkv6aTDUbTArKiokdUuhfppvmm6SkBIVytBwC11XoiRlypCMIXH+69n/e87v7LP2ed/zvmfaZ7/f9fm8n7PXs9d69lrfdd69zn72Ws9TLGSSkCAAgZQQ6NKli7z44ouWrunTp0vLli0teaKChQsXSqNGjaziV199tbz55puW3O+CDz74QG677basNrNNmzYyatSotLVhx44dcsQRR3jq//DDD6VFixae5xBCID8C69evl1q1asnu3btdRV955RW57rrrXDKvzJgxY6RHjx6uUwcffLDs3btXihUr5pJHZw4cOCCff/65LF26VFatWuX8rVu3TooXLy7Vq1eXunXrSpMmTTzvVdF6UnWs7dE+f/LJJ9K2bVtp3759qlSjBwK+ITBu3Di54YYbstqe1q1by7Rp0zzbkK37kTaGe5LnkCBMMYGGDRvK119/7dJ65JFHypYtW1yyvDL6uK1zZWy66qqrZMKECbFi8nEI6O/2Xr16WWerVasmq1evtuQIIAABHxFQwyMJAhBIDQHz4K2GfNffoYceGjIGgqQu8MQTT7h0hq8xYsSIpPRSOX0ENm7c6DlmOnZz5sxJ34XRHHgCxmhvfbcqVKgQMobDhPr+1ltvWfX1e2mMiFb9P//8MzRz5szQ3/72t1DlypU964XvR+HPdu3ahZYsWWLpSqXg/fffD5122mmR9mj7SBAIIoGXXnop8j0P/49l+tMYHuOizeT9SBvBPSnuUHAiTQTOOecc63+wRIkSIWP4TviK+hzg9X97/fXXJ6yDgqHQ2LFjPTkeffTR4IEABHxOoJi2z9wISRCAQJIEdu7cKWXLlnXewEer0hVAuiInmXTllVfK22+/balg5ZyFxDeCn3/+2VkF5tWgL774Qho3bux1ChkE8iVQrlw52bZtm6vcwIEDZfjw4S5ZvMzs2bOlWbNm1mmv76WuZNTvcmzS1QUnnXSSs+JDV0DqasnoVKZMGfn3v/8tNWvWjBYnfayrv++8804xxlCXrt69e8vIkSNdMjIQCAIBXVVlXlZltSvHH3+8GEO/ZxsyeT/SBnBP8hwGhGkk0KpVK5kxY4Z1hc2bN8tRRx1lyb0EujugatWq1qm7775bHnzwQUuOwJvAP/7xD7npppusk4cffrjoTiMSBCDgYwI+N4zSPAjkDAHzMO/5Fu72229Pug+6msncRlx/ZmtkaOvWrUnrRkF6CCxfvtw1XtHjt2jRovRcFK2BJ/DLL794fq8WL16ccN/NixBPHWYbtaXD/Jh3lTXby0Kvv/66a6WH2WoZMq4LXOX0+37eeedZ+gorMFu7Q506dQqZreDWdfRaxhhZWNXUgwAECkkg0/cjbSb3pEIOFtUKTaB79+6e84556ZawTvPSzFOHrmgmJU7gtdde8+SoK1BJEICAvwmIv5tH6yCQOwSM3zTPyfC5555LqhPffPONp96LL744Kb1UTi+BZcuWeY6bGkmMr6D0XhztgSWg2/Sjjdjh4127diXc54kTJ3rqWLt2raUj+iH/kEMOCc2bN88qowLd5l27dm1L75o1azzLJyrUlytqVCxVqpSlO9x3/TSrRhJVSTkIQCBFBDJ9P9Jmc09K0eChJmECjzzyiOf8Y3YdJazD+Ej11PHpp58mrIOCIefFZ/TcHz42/jPBAwEI+JwAhkefDxDNyx0CgwcP9vxRYbYvJtUJfegOT6zRn08//XRSeqmcXgK6Qit6vKKP//Wvf6X34mgPLAF9kRH9XdLjihUrFqi/Tz31lKVDV1Dv37/f0hP9kG8culvnowVevpfM9rToIgU61pWVZhubq62nnHJKqEOHDtbKx3vvvbdAuikMAQgkTyDT9yNtMfek5McNDQUjMGnSJNc8FJ6D1f96oine4oRff/01URWUMwTi+bxVf/okCEDA3wQwPPp7fGhdDhHQ4AbhHyPRn8lsh9ZVRGpUiNanx/pmT7c4JZLUmDB//vyQPiDcc889znbFpk2bhpo3bx4yflJCxi9a6KuvvkpEFWUKQCDeFjQdv7lz5xZAE0Uh8H8E+vfvb90PjL/Q/yuQwNG1115r6TD+Gj1r6oPV0KFDnT/dUp1X8lr99MILL+RVJc9zGjwrfO87+eSTQ9GrS+rVqxc5p2UGDRqUpy5OQgACqSeQ6fuR9oB7UurHEY15E1ixYoVrvgnPS127ds27YtTZbt26WTrq168fVYLDRAjooosw/+jP8uXLJ1KdMhCAQBYJEFzG3LVIEEgFgWuuuUYmTJjgUnXQQQeJicDokhUkM378eDGre6wqF1xwgXz88ceWPCwwxkYnoI2JXivmTa0YI1j4VNxPE4nWCU5x6qmnxi2TqhO//fabGONbqtQVSo86yzdRyAtVN5FKGvxDne57JYICeVFBlgiBjh07yhtvvOEqqsGn9H89kWR+b0ilSpVk06ZNruLmpYQMGzbMJStoRgNg6L0pOmm7tH2FSRqw64wzzpAbb7xR+vTpI2ZVZkRNy5Yt5YMPPojkjeFRhgwZEslzAAEIpJ+An+9H2nvuSen/DhSVK9SqVUtWrlzp6q4GXNIgaokkDSj45ZdfuooWJCicq2IRzowePVp69uxpEdDAPca1iyVHAAEI+IhAFo2eXBoCgSLQokUL6y3c0UcfnVQfdWWiuV1Yf++8806eeo877jirjuoxkWidlY4NGzYMqb+2WN0mEm3I/LDKU3cqTsbbKhHbnnTmW7dunYquxNWhq1Xjtf/dd9+NW48TEMiLgNeqCfPSIK8qrnPxAstoMKRkk9cW7m+//TZZtZ711cdt9P8XKx49MSGEQFoJ+Pl+pB3nnpTW4S9SyuPtavrpp5/y5bBhwwZnp1L0nKXH7H7JF51VIJ6/TWMYtsoigAAE/EWArdb+Gg9ak8MErrjiCteDsP6oqFmzZqF7pIYArwiuiWzNiPaBpO3IViTaeJ0vCoZH7bvX+Ol4aHAPEgQKQ+D++++37jNm1UXCqtTFgn4Ho//OOeechOvHK6guHXQ7dLTeRO5V8fTlJ8fwmB8hzkMg/QT8ej/SnnNPSv/4F6UrmBX2rvktPNc9/vjj+WJ49tlnrbpmx03owIED+dalgJuAun4Js4/+NLu13AXJQQACviOA4dF3Q0KDcpVA3759rclQDX6FTe3bt7f06SRrtl/nqzLa8JiNSLT5NbCoGB5Lly7tOYYaNIMEgcIQ8IpIrd8zs3U6X3XqIzH6h7oelyhRIrRgwYJ86+ZX4Pnnn7d0JxNYJr/rYXjMjxDnIZB+An69H2nPuSelf/yL2hV0t1DsHGq2+IZ2794dF4Vxt2S9lFMdxmVK3DqciE9AA8nFjoHmjVuW+JU4AwEI+IIAPh7N3YoEgVQQMBFd5dZbb7VU/f7772IMA5Y8L4ExTEmnTp2sIuZHj5hAMGKCy1jnogVmy7SofzRNJhKtmDey0addx8ZRs5gtJC6ZMRiIebB3yVKZUf+U/fr1S6XKAuvS/g0fPrzA9QpSwUTklS1btlhV/vGPf8gNN9xgyRFAID8CZgu/VK5cWUzQKlfR3r17iwkU5ZJFZ7777jsxKxvFRNCMFsvgwYPlgQcecMkKmvn6668d3ebhK1L1zjvvlIcffjiST/UBPh5TTRR9ECg4AT/ej7QX3JMKPpbUyJ+AMbTLVVddZRUcMGCAPPTQQ5ZcBfr7W30URyf1Dblo0aJ8f8tH1+H4/xMwAa3k0UcftXCcd955WfcdbzUKAQQg4CbgC/MnjYBAAAhMnz7d8y3c999/X6DerV271tkabf5TXfpKlSoVWrJkSUK6shn1MaEGFpFCVapUcY1heEw1Kh8JAoUloP4Mw9+l8GfJkiVD5uWHp0pd6ejl91V9yP7xxx+edRIVbt68OWQCNbnaoz4ndZtjOhMrHtNJF90QSJyAn+5H2mruSYmPHSULTuDqq692zXfhOdgYHkO6ujE6vfDCC5Zvx7Jly4bMi8DoYhwXgMAdd9zhyV/97JMgAAF/E2DFo5kxSBBIBQGNdqdR72LTqFGjpEePHrHiuPlLLrlEpk2bZp3X1Uy6qinVKdVRH1PdvlzW5xUFUftT0O9ELjOg7aknoFHrmzVr5kRsjdV+/vnnO+eMf1nZuHGj6Opir/tJly5dRFdpR0eKjtWVX3779u1ifEY6q7DDZXVVpUZtP/TQQ8OitHyy4jEtWFEKgQIT8Mv9SBvOPanAw0eFAhLYtWuXs8J/8eLFVk3j51h0btJ51QRys6JYmxeEMnnyZDHBDa26CBIjcPPNN4vxmWkVvvTSS8UE3rTkCCAAAR8R8LddlNZBILcIGKOh9Saudu3aCa/+ueuuu6z65nYRatOmTdqcUGcy6mNujWbyrVVn1zp+sX8alY8EgWQIbNu2LWS261vfrdjvWmy+fPnyIWP4TubSTl3z8BUyW5tc1z/zzDND2q5MJFY8ZoIy14BAYgSyfT/SVnJPSmysKJU8AePqJNShQwfX/Bc718bmTzjhhJT4U06+9bmt4frrr/fkritRSRCAgL8JEFzG3+ND63KMgHkDam2r0B8f+W2t3bNnT+iWW27xnExbtWqVp+PqZBBlOupjMm3NxbqNGjXyHNMhQ4bkYndosw8JaKTNjh07hqIDSsU+8Gi+Tp06zn1IH86TTXq/uuiii1zf7dNPPz1k/Jkmqzrh+hgeE0ZFQQhkjEA27kfaOe5JGRtiLhRFYNKkSSFdcKBB2rzmXZXVr18/pJGvd+zYEVWTw8ISiGfw7dy5c2FVUg8CEMgQAbZam1mBBIFUEjBv4+Tll1+2VN59990ybNgwKVasWOTcgQMHnG2JGgBm2bJlEXn4oG3btvLWW2+JiUwdFqX00/ifka5du7p0pjuwjOtiAc+os+v58+dbvbznnnuc74J1AgEECknAPHjLt99+Kxs2bHD+NKjVMcccI7rlukaNGmL8ShVSs7ua8WHlONefMmVK5IQxOspHH30kRx55ZESW7gO2WqebMPohUHgCmbofaQu5JxV+nKiZGgIatE0DuBkf7c5vfA20Vq1aNalevbozB6fmKmhRAldccYWzXT2WRvfu3eWZZ56JFZOHAAR8RADDo48Gg6YEg4D6VTNL/j39r1WsWFH0Id1suXCi0qr/tdWrV1sdN4FknGizGr3NvEm1zqdCkI2oj6lody7pMKvCHINMbJs1ovff//73WDF5CPiagL4o+Z//+R95/fXXI+1s0KCBzJw5U8wW7ogsEwcYHjNBmWtAwN8EuCf5e3xoHQRSTcC4npL333/fUqu+9NV/OgkCEPAvAQyP/h0bWpbDBNTZuq5uHDp0qOhxQdKFF14oZmu2nHTSSQWpVqCy+na2cePGogFxwslEohWzbUSKFy8eFvGZJAF1dv3uu+9aWtQ5to4xCQK5RKBPnz5itoxFmlyvXj2ZNWuWHH300RFZpg4wPGaKNNeBgH8JcE/y79jQMgikg0CTJk1k7ty5lmrjI19GjBhhyRFAAAL+IYDh0T9jQUsCSEC32ep25s8//9zZSm1cKMTtpf6AvvHGG6Vu3bpxy6TiRDajPqai/bmkw/iikfHjx1tNbt++vUycONGSI4CAXwmMGzdOTDCbSPNM0CzHjYCu4vZKf/zxh+ifRvdMh6sIDI9e1JFBoOgQ4J5UdMaankIgTEAjhy9fvjycjXwa3+kyaNCgSJ4DCEDAfwQwPPpvTGhRQAmYKHjyr3/9Szp16iSbN2929dJEg3XOuYRpyKjfN31gnzdvXkS7Xlv9sx1xxBERGQepIaC+O722fqjvR683tqm5KlogkFoC6pbhrLPOkr179zqKK1eu7Bgdjz/++LgXChsGdQX37Nmz45Yr7IkWLVo4W7zD9fGbGibBJwSCT4B7UvDHmB5CwIuAunX57bffrFPPPvusdOvWzZIjgAAEfEQgQ0FsuAwEIPBfAjfddJNn9DvjmDqtjPwQ9TGtHfSh8ocffthzrE888UQftpYmQcAmYIyNIbOlOvI9LlmyZOiLL76wC0ZJjP+lSHmNfu2VzArvkAm0FfnT6KAFSaeddlrkGuYnVeiOO+4oSHXKQgACOUqAe1KODhzNhkCSBMwuCuc3g875sX9Tp05NUjvVIQCBdBNgxaOPjMA0pWgQeOedd+Syyy6zOpvOFTt+ifpodTrggldeeUU6d+5s9bJcuXKeb2ytggggkGUCDzzwgNx///2uVlx77bWufDijKyLXr1/vuJbQoA+arrnmGk93Az179pTRo0eHq8qTTz4pt912WySf18E333wj9evXd/nPrVOnjugqKN3aTYIABIJLgHtScMeWnkEgLwLr1q2TqlWrehZZsGCBE7zT8yRCCEDAFwQwPPpiGGhEUSKwe/duUb9oO3fudHVbjVGrVq2SsmXLuuThjPo0KUzAGT9FfQz3pah8arRf3RLqlcL+77zOIYOAHwhs3LhRatWqZd2rCtK2eIGU9EXL8OHDI6rivXjRB401a9aI+qbVY324ePnll0VdV8SmRo0aSceOHUX9T1aoUEFKly4tNWvWFL23kiAAgdwnwD0p98eQHkCgsAT05WLDhg09q+tLT3UDQ4IABHxMIN1LKtEPAQjYBMzDuLVNwNwmQgMHDrQLG8lTTz3llB8wYIDn+byEvXv3dl1Lt01u2rQpryqcSxGBpUuXutjrGIf/jDElRVdBDQTSQ2Dw4MGR72v4e1vQz3j3LJVH6zJGSM9O3Hrrra5y0XUSOTYBKDz1IoQABHKPAPek3BszWgyBVBGYMWOG5++BEiVKhPbv35+qy6AHAhBIEwFJk17UQgACeRBYtGiR5+RZvHjx0BtvvBGpuWXLllCPHj1cZU2Amsj5/A5eeuklV12zEii0YcOGuNXUd9KOHTtC6g+SlDwBsyrLxT/aULJw4cLkL4AGCKSRQN++feN+f6O/y3kdq59Tr9S1a1eX7vfee8+rWCj2xUle1/I6F30/9bwAQghAIGcIcE/KmaGioRBIOYFXX33V9bshPOeb7dcpvxYKIQCB1BNgq7W5a5EgkA0CV1xxhUyePNnz0n/5y1/0pYCzrdC8xYuU6d69uzz99NNigjJEZPEO/Bj1MV5bgyw/7LDDRKOJxybz5lYuvvjiWDF5CBQJAhrt+pNPPnH6alYrONupK1WqVCT6TichAAH/EeCe5L8xoUUQiCbw+OOPiwlMFy1yjs844wz58ssvLTkCCEDAXwQwPPprPGhNESLw008/yamnniq7du1KqNdm5Y+MHDkyobLqP1An4v/85z9OeROJVubOnSuNGzeOW3/69OnSunVr57yJRCsffPBB3LKcSJyA+pv74YcfrAoaeOa6666z5AggEHQCP//8s9SoUcN5uaJ9jeffMegc6B8EIOAPAtyT/DEOtAICeREw7qhkxIgRVpF27drJlClTLDkCCEDAXwQwPPprPGhNESOgK34uueSSPI2PGiRBVzm2b98+YTrpivqYcAMoGCHQpEkTx+gbEfz34LHHHvN8cxtbjjwEgkRAg11dfvnlMnXqVKdbdevWdVZ268sREgQgAIFME+CelGniXA8ChSPQpUsXefHFF63Kt9xyi4wdO9aSI4AABPxFAMOjv8aD1hRBAitWrJBHHnlEpk2bJhqVTX8E6/bcU045RTp16iSdO3eW8uXLJ0wmnVEfE24EBSMEOnToIOPHj4/kwwd33XWX55vb8Hk+IRBEAiaojBi/j07XGjRoIMa3o1SpUiWIXaVPEIBADhDgnpQDg0QTIWAIXHrppfLuu+9aLIYMGSKDBg2y5AggAAF/EcDw6K/xoDVFnMC+ffscf4Bly5YtNIn77rtPdBJOJukP8YceeigZFdT9LwH1R6N+aWLTjTfe6PnmNrYceQgEiYCJXu1srW7ZsqVMmDBBypQpE6Tu0RcIQCDHCHBPyrEBo7lFloD6vzcBNq3+P//886KrIUkQgIC/CWB49Pf40DoIFJhAv379RLfxJpN0RdKdd96ZjArq/pfAo48+Kv3797d46BZ7rze3VkEEEAgYAQ2q1bZtW9GgMiQIQAAC2SbAPSnbI8D1IZA/gZo1a8qqVausgrpjLOyj3jqJAAIQ8A0BDI++GQoaAgEIBJHAa6+95hlEpmHDhrJw4cIgdpk+QQACEIAABCAAAQhAICUEwm6o9uzZY+lbtGiRqOsWEgQg4G8CGB79PT60DgIQyHECs2fPlmbNmlm90C2m27dvt+QIIAABCEAAAhCAAAQgAIH/T0Ajz1evXt0Tx4YNG6RixYqe5xBCAAL+IYDh0T9jQUsgAIEAEtBtIbo9xCtpMKHKlSt7nUIGAQhAAAIQgAAEIACBIk9g5syZ0qJFC4vD4Ycf7rzEL1asmHUOAQQg4C8CGB79NR60BgIQCBiBUCgkGixox44dVs/mzJkj559/viVHAAEIQAACEIAABCAAAQiIjB07Vm699VYLhQac+fzzzy05AghAwH8EMDz6b0xoEQQgEDACZ599tucPoxdeeEFuuummgPWW7kAAAhCAAAQgAAEIQCA1BPr06SOPP/64pUyjWWtUaxIEIOB/Ahge/T9GtBACEMhxAt26dfP8YTRgwAB56KGHcrx3NB8CEIAABCAAAQhAAALpIXDppZfKu+++aylXY2SvXr0sOQIIQMB/BDA8+m9MaBEEIBAwAqNGjfL8YdS+fXuZOHFiwHpLdyAAAQhAAAIQgAAEIJAaAieffLIsX77cUvbRRx9J8+bNLTkCCEDAfwQwPPpvTGgRBCAQMALxnGLXq1dPFi9eHLDe0h0IQAACEIAABCAAAQgkT2D//v1SunRp2bdvn6Xsl19+kUqVKllyBBCAgP8IYHj035jQIghAIGAENm7c6PnD6NBDD5WdO3cK0fgCNuB0BwIQgAAEIAABCEAgaQI//PCD1K5d29JToUIF0d/XJAhAIDcIYHjMjXGilRCAQI4TqFixomzatMnqxerVq6VatWqWHAEEIAABCEAAAhCAAASKMoHp06dL69atLQRNmzaVWbNmWXIEEICAPwlgePTnuNAqCEAgYASaNWsms2fPtnqlP5r0xxMJAhCAAAQgAAEIQAACEPg/AmPGjJEePXr8n+C/R3fccYeMHj3akiOAAAT8SQDDoz/HhVZBAAIBI6A/mvTHU2x6+umn5eabb44Vk4cABCAAAQhAAAIQgECRJqAGxieffNJi8Mwzz0j37t0tOQIIQMCfBDA8+nNcaBUEIBAwAs8995znD6S+ffvKo48+GrDe0h0IQAACEIAABCAAAQgkR6BVq1YyY8YMS8n8+fPlnHPOseQIIAABfxLA8OjPcaFVEIBAwAh89tlnnj+Q2rVrJ1OmTAlYb+kOBCAAAQhAAAIQgAAEkiNQq1YtWblypaVk27ZtcsQRR1hyBBCAgD8JYHj057jQKghAIGAEtm/fLmXLlrV6pT+oVqxYYckRQAACEIAABCAAAQhAoKgS2LVrl2NcPHDggAvBcccdJz/99JNLRgYCEPA3AQyP/h4fWgcBCASIQPXq1eXnn3+2evTrr79K+fLlLTkCCKSKwG+//Sb//ve/ZcmSJfLnn3+KRlmvWrWqNG7cWEqXLp2qy6AHAhCAAAQgUCQIMK+mf5jnzJkjF1xwgXWhNm3ayHvvvWfJEUAAAv4lgOHRv2NDyyAAgYARuPzyyz23VU+fPl1atmwZsN7SnWwTUEPj0KFD5csvv/Q0eGv7DjnkEMcFQNeuXeWaa66REiVKZLvZXB8CECiiBEKhkBQrVqyI9p5u5wIB5tXMjtJjjz0m/fr1sy56zz33yLBhwyw5AghAwL8EMDz6d2xoGQQgEDACI0eOFA0mE5vUOHTvvffGislDoNAENGDRgAEDZP/+/Qnr0BW59913n9x4440J16EgBCAAgcIQ2LRpk7z++uvOy7hVq1bJ2rVrnftVpUqVpEqVKs5q7E6dOnn6Ri7M9agDgWQJMK8mS7Dg9Tt06CDjx4+3Kn7wwQdy0UUXWXIEEICAfwlgePTv2NAyCEAgYAQWLlwojRo1snpFgBkLCYIkCOjDvD6wR6fKlStLz5495cQTT5TNmzfLV199JePGjZM//vgjuphz3KxZM3n22WdF/Y+SIAABCKSSgLp6eOCBB2TEiBGO24f8dDds2FBeffVVqVOnTn5FOQ+BtBFgXk0b2jwVewWWOfjgg0W3uR922GF51uUkBCDgLwIYHv01HrQGAhAIMAF1jn3UUUfJ1q1bXb085phjZN26dS4ZGQgUhoCucDzhhBPkxx9/jFSvXbu2s926XLlyEZkefP/999KlSxeZO3euS64ZNVSuX7/ekiOAAAQgUFgC+tJDfbOp+4fYdOihh8revXs9V2mXKlVKXnzxRenYsWNsNfIQSDsB5tW0I/a8gPo/P/roo61z55xzjsyfP9+SI4AABPxNAMOjv8eH1kEAAgEjoKsbp06davVqzZo1TrAP6wQCCBSAwLfffmutDNKVGvEe2DXa+tlnny1Lly51XeWss86Szz77zCUjAwEIQKCwBHR1dfPmzWXevHkuFSpTNySnnXaa7N69Wz788EPp1q2bbNy40VWuZMmSMmvWLDn33HNdcjIQSDcB5tV0E/bWr/7PW7dubZ28++675cEHH7TkCCAAAX8TwPDo7/GhdRCAQMAIxPPzOGnSJNHgMyQIJENg2rRpcskll7hUTJkyRdTgHS+tWLHCMVbu27cvUqRHjx4yatSoSJ4DCEAAAskQuOWWW+SZZ55xqbj00ktl8uTJUrx4cZdc/T3qqqaff/7ZJVf/j8uWLZPY1duuQmQgkGICzKspBpqgOvV/PnjwYKs0/h0tJAggkBMEMDzmxDDRSAhAICgE4vl55A1uUEY4u/3QbdNNmjRxNeL222+XMWPGuGSxmeuuu05ee+21iFh9qsX6iYyc5AACEIBAAQgsWbJE6tevL+puJJx0C+XKlSulTJkyYZHrc8KECXLNNde4ZJq5//77nSBY1gkEEEgTAebVNIHNR63XDiH8O+YDjdMQ8DEBDI8+HhyaBgEIBI+APniVL19etm3b5uqcRufTt7gkCCRDQH2o6aqg6Af8EiVKOD7VGjRoEFe1Bptp3Lhx5Px3330n6huSBAEIQCBZAldccYWzsjFaj26V1BdueSXdVv3pp5+6ihx55JGiUbCPOOIIl5wMBNJFgHk1XWTz1qu+pjds2OAqpK5hYu8JrgJkIAAB3xLA8OjboaFhEIBAUAno9rJ3333X1T19mFJH2sWKFXPJyUCgoAQuu+wyeeedd1zVNJq6/lhXP2kkCEAAApkioKsaNTJtdNJ5TgOqqWEhr/Tkk0/KHXfcYRUZN26cdO7c2ZIjgEC6CDCvpoust97Vq1fLcccdZ50cOHCgDB8+3JIjgAAE/E8Aw6P/x4gWQgACASPw2GOPSb9+/axe6SozjUhMgkAyBL744gvHP1r0qkfVpz7Wxo4dm4xq6kIAAhAoEAGv+a5hw4aibkfySz/++KMcf/zxVrEOHTrIP//5T0uOAALpIsC8mi6y3nrffvttufLKK62TM2bMkIsvvtiSI4AABPxPAMOj/8eIFkIAAgEjsGDBAjnjjDOsXqmPvWuvvdaSI4BAQQn07dvXiRQbW+/pp5+Wm2++OVZMHgIQgEBaCHhtl+7Tp4+oQTKRVKdOHdGowtFJ3ZVo1OuDDjooWswxBNJKgHk1rXhdynVl44gRI1wy/Du6cJCBQM4RwPCYc0NGgyEAgVwnsH//fjnqqKMsP489e/aUJ554Ite7R/t9QGD37t1y3nnnWauK1N+j+hJt2rSpD1pJEyAAgSAT2Lp1q+PTOBQKubr5/PPPS5cuXVyyeBkNcvX6669bp5cuXSqnnHKKJUcAgXQRYF5NF1lbb/PmzWXWrFmuE/h3dOEgA4GcI4DhMeeGjAZDAAJBIODl57Fu3bryn//8Jwjdow8+ILBmzRrnwXznzp2u1uhqIV11W6NGDZecDAQgAIFUEpg/f77zAiRW57x580RXQiaSBg8eLEOHDrWKTpkyRTTqLQkCmSTAvJp+2mrg1d8pe/bscV0M/44uHGQgkHMEMDzm3JDRYAhAIAgEvPxeab/0R23VqlWD0EX6kEUCW7ZscR7W462gVR9rahQoXbp0FlvJpSEAgSATePbZZz1dO/zwww+evhu9WGggmRtuuME69eijj4pufSVBIFMEmFczQ/r999+XNm3aWBfDv6OFBAEEcooAhsecGi4aCwEIBIXAkiVLpF69elZ3CrIFzaqMoMgT2Lt3r4wZM0YefPBB0W2OeSWNCqsP9SQIQAAC6SDQq1cvGTVqlKVa/TNWqFDBknsJdHXk+eefb50iWJaFBEGaCDCvpglsHLXqdmj06NGus4ceeqhs2rRJ9JMEAQjkJgEMj7k5brQaAhAIAAH1T7Vs2TJXT6666iqZMGGCS0YGAokQeOutt6R///6yatUqV3GNAPnTTz/J8uXLXXLNaB2vyJFWQQQQgAAECkhAt0JPnTrVqvX7778nvNo6XmTrv/71r/LGG29YuhFAIJUEmFdTSTMxXSeddJJ89913rsJXX321vPnmmy4ZGQhAILcIYHjMrfGitRCAQIAIePmuKleunGzevJlonQEa50x05fHHHxeNFBudjj76aCdYkQZn0JUCDRo0kHXr1kUXcVYdacRYDXZEggAEIJBKAs2aNZPZs2e7VGok6j///NMlyyuzYcMGqVy5slVE/SS/8847lhwBBFJFgHk1VSQT1xPvRYO+kNcX8yQIQCB3CWB4zN2xo+UQgECOE9BAMqeddprVi4I43rcqIyhyBB555BG56667XP3WwA0afCHaoDhz5kxp0aKFq5xmhgwZIoMGDbLkCCAAAQgkQ+DMM8+Ur776yqWibNmy+bqBiK6wfft20TqxSY2aek8jQSAdBJhX00E1f51jx46VW2+91VWQbdYuHGQgkLMEMDzm7NDRcAhAIAgETj75ZGsL7L333usZxTMI/aUPqSWgvhz1+xKdqlWr5kStrlixYrTYOW7atKl8/PHHLrkGM9Lt2SVKlHDJyUAAAhBIhoCXO5EqVarI2rVrE1a7b98+KVmypFX+L3/5i3z++eeWHAEEkiXAvJoswcLXv+yyy6yVzGyzLjxPakLATwQwPPppNGgLBCBQ5AjoSrNhw4a5+n3GGWfIl19+6ZKRgUAsgZEjR1pRXUuVKiW6YrZRo0axxZ38rFmzpHnz5tY5tjFZSBBAAAJJEjjuuONk9erVLi2HH3647NixwyXLL6MvRfbv3+8qxjzpwkEmRQSYV1MEshBq/vjjD2eXxs6dO121+X3iwkEGAjlLAMNjzg4dDYcABIJAwGu7dbFixUT9WiUa9TMIHOhDwQioz8bjjz9eYn+gv/LKK3LdddflqeyYY46RX375xVWmdevWMm3aNJeMDAQgAIFkCBx77LGyZs0alwo1Rmqwq4Ik3Wq5e/duV5UmTZrIJ5984pKR8S8BHSsNfpbNdNFFF4muZoyXmFfjkcmM3OvFKNusM8Oeq0AgEwQwPGaCMteAAAQgkAcBr+3Wr776qmhQEBIEvAj069dPHnvsMdeps88+Wz799FOXzCvToUMHGT9+vOtUzZo1ZeXKlS4ZGQhAAALJEPCKTlupUiXrxUd+19Ct1rrlOjrxsiSahv+Px40bJzfccENWG5rfd4Z5NavDI3feeaf8/e9/dzWCbdYuHGQgkNMEMDzm9PDReAhAIAgEvLZb66o1Xb1GgkAsgfXr10utWrWsFUCJrHZUXWPGjJEePXq41B588MGyd+9e0dW2JAhAAAKpINCwYUP5+uuvXaqOPPJI2bJli0uWVyYUCknx4sWtIhrhVrdgknKDgN8Nj8yr2f8eabBF3QUUnd58801R4yMJAhDIfQIYHnN/DOkBBCCQ4wQWL14s9evXd/VCA4PodlgMQS4sZAyB22+/XZ566ikXC92Wr1savYIwuAqazMSJE0Uf2mPTunXrRLdhkyAAAQikgsC5555rrcJWf43qyy3RuW3Pnj1SunRpqznXX3+9vPTSS5YcgT8J+N3wyLya3e+NBpzSwHjRiW3W0TQ4hkDuE8DwmPtjSA8gAIEAEPDakvbFF19I48aNA9A7upBKAuXKlZNt27a5VA4cOFCGDx/uksXLzJ49W5o1a2adzu/7psEddCv3d999Jz/++KMTCVuNlWXLlhX15VajRg1p376982kpT4PgwIEDzqpg9R3Wtm1b59ppuAwqIQCBQhJo1aqVzJgxw6q9efNmJ4iEdcJDoPeYqlWrWmfuvvvuPP31WRUQZJWArnKdM2dOVtugfpF1VZ1Xyta8qm3x09yarXn1ueeek+7du7uGhm3WLhxkIJD7BMwWBhIEIAABCGSZwL333hsyM4rr79Zbb81yq7i83wiYVbCu70j4O2NWzSbcVGOo89Tx+eefWzrMA1HIGCpDf/vb30JmVaVnvXAb9NNsiQxdfvnloRUrVli6Uil4//33Q+YBMtIebR8JAhDwFwFjSIj8j0bfJ5YuXZpwQxcuXOipw6x2TFgHBSGQF4FMz6vaFj/OrdmcV83qaOv/3GyzzmvYOAcBCOQYAVY8ml9CJAhAAALZJuC13Vp9YanfoUMOOSTbzeP6PiEwd+5c0WiusWnXrl2i25ISSW+//bZceeWVVlHd6lSlShWXvFGjRmIe/F0yzaiPSf3TVSzffPON5W9SVz/Onz/f0mcpKqBA26IO6GfOnOmq2bt3bxk5cqRLRgYCEMguAQ0Uof+vsenDDz+UFi1axIo988YYIm3atLHO6eprDahFgkCyBDI9r2p7/TS3Znte1V0UuusnOrHNOpoGxxAICIEcM5TSXAhAAAKBJXD66adbb3zfeOONwPaXjhWcgNmOZH1HjD/QAiky/iEtHSa4jLMCI1aRMSC6ylauXDk0depUVzFdLWK2RLnKmZ9IIRNB1FUumcyqVatCJsp7yPiFs66j1zLGjWTUUxcCEEgDgUmTJnn+vz7xxBMJX80Ew/LU8euvvyasg4IQyItApudVbYsf5la/zKsDBgyw/sdNBPS8hoxzEIBADhKQHGwzTYYABCAQSALG+br146tly5aB7CudKhyB/v37W98R4we0QMquvfZaS4dZbeCpI/rhyKxACOm2R69kgkW4tj6rMfCwww4L7du3z6t4wrKtW7c6RsVSpUpZbdZrhP+Mv7eEdVIQAhDIDAF1uRD+H43+7Nq1a8IN6Natm6XDBGNLuD4FIZAfgUzPq9qebM6tfppX//zzz5DZaWH9j3/99df5DRvnIQCBHCOA4THHBozmQgACwSWwd+/ekK4oi35AU595q1evDm6n6VmBCHTo0MH1/dDvitk2nbAO4zje01fjPffc46kj+uGoX79+nmXCwtGjR1tti2eoDNfJ6/P1118PHXXUUS6dp5xySkgZxK58VB+pJAhAwH8ETEAP1/+w3rPUP2ui6cwzz7Tqm2BaiVanHATyJZDpeVUblK251W/z6rRp06z/7wsvvDDfMaMABCCQewQwPObemNFiCEAgwAQeeOAB60fYsGHDAtxjulYQAl6rf9q1a5ewiniBZZYvX+6pY9SoUSF9yNc/4wPSs0xYOH78eOu7a/w/hk8X+HPEiBERfSeffHLI+IWL6KhXr17knBoyBg0aFDnHAQQg4B8CGvgp+mVa+Pinn37Kt5EbNmxwAlaF64Q/jU++fOtSAAKJEsj0vKrtytbc6rd59aqrrrLuD+qigQQBCASPAIbH4I0pPYIABHKYgD5omWAyrh9itWvXzuEe0fRUErj//vtd3w19EC/I6qHmzZtb9c8555yUNFG3O4cNA/pZokSJkG7BLmzasWNHSLeA64NSrJ6LL77YdS0Mj4WlTD0IpJfABx984PpfDd8jHn/88Xwv/Oyzz1p169atG9KV2yQIpIqAn+dV7WMq51Y/zaubN28OlSxZ0vU/riukNeI3CQIQCB4BDI/BG1N6BAEI5DgBdaodfjgLf86ZMyfHe0XzU0Fg4sSJ1nejdOnSoU2bNuWrXlcMhr9P4U81Di5YsCDfuvkV2L17d0gNAmG9+plO/6QYHvMbEc5DwD8EGjZs6Lo36P2hatWqIb1vxEvq+01XOkffU/SYgGvxiCEvLAG/zqvan0zOrZmeV73csyTyQqKw40w9CEAguwQwPGaXP1eHAAQgYBFYtGiR9bBFhD8LU5EU7NmzJ1SuXDnr+9G7d+88eehW6lh/ifoQP3jw4DzrJXoyNmCNrtr97rvvEq1e4HKZfkAqcAOpAAEIRAi89dZb1j1L7z8azTZeGjlypFVHV3ezGioeMeSFJeDXeVX7k8m5NdPzaoMGDVz/42XKlAlt27atsMNIPQhAwOcEMDz6fIBoHgQgUDQJqHPt6JUeGiFYt8iQIKDbiqO/G3qs25XGjh3rCUdXOh533HFWnaZNm1pbmD0V5CHU4DFt27Z16a5QoUJo1qxZedRK/lSmH5CSbzEaIFC0CVx99dWu+0T4HvbQQw+FdHVjdHrhhRcs345ly5ZN68uM6OtzXPQI+GleVfrZmFszOa96vWDv0aNH0fvi0WMIFCECxbSvZvInQQACEICAjwhMnjxZrrjiCleLzMOY3HTTTS4ZmaJHwKz4kWbNmonZfm91/vzzz3fO1axZUzZu3Cgff/yxmKiRVrkuXbqIMVTKwQcfbJ2LJzB+1eTHH3+UpUuXyrfffismUI1Lt4k0LSbCtpiVSnLsscfGU5MSudnGLcZ3XESXeWiUIUOGRPIcQAAC/iKwa9cuMf5kZfHixVbDzJZq0f9pvR/pfeXLL790lTEvVkTnxNatW7vkZCCQKgLZmle1/X6ZWzM5rxojo4wZMyYyfMWLFxezS0Jq1aoVkXEAAQgEiwCGx2CNJ72BAAQCQkB/iJ5wwgmycuXKSI9OPfVU56FNf6CRijaB7du3S8+ePeWll14qEIjy5cvLfffdJ/qjv6DJRJKVJk2axK1mVi5Jr169pFSpUnHLpOpEJh+QUtVm9ECgqBMw2yjllltuEeOnMWEUOg9q+dNPPz3hOhSEQGEIZGNe1Xb6ZW7N1LxqgsqIvhzduXNnZJjatWsnU6ZMieQ5gAAEAkigCK3upKsQgAAEcoqAOtk2047r75///GdO9YHGppeARozt2LFj6PDDD3d9T2K/N3Xq1Ak9/fTTIbPqqNAN0gBHsXpj8+oSwBg2k97CnV8jM7klLL+2cB4CECgYgUmTJoUuueQSJ/J97D0knK9fv35I50BcjBSMLaWTJ5DJeVVb65e5NVPz6l133WX9lpg5c2byA4cGCEDA1wRY8Wh+4ZAgAAEI+JGAvn3Xt8JbtmyJNE+3pH3zzTfCqscIEg4MAeMc39n+vGHDBtG/33//XY455hjn+1OjRg0x/tGS5qSrE4y/SDH+2GTdunWyevVqWbJkibPl2fzScek3QSAceaVKlVzyVGUytTIjVe1FDwQgYBP49ddfne2Va9euFXXVYCL4SrVq1aR69erOvcuugQQCmSOQiXlVe+OXuTUT8+qmTZuc/211vRBOupp5wYIF4SyfEIBAQAlgeAzowNItCEAgGARGjx7tbKmN7s2rr74qnTp1ihZxDIGsEVBD+MCBA2Xq1KmuNpjVEzJ9+nTHoOA6kYJMJh6QUtBMVEAAAhCAAAQKRSDTc2sm5tX+/fvLo48+6uIxe/ZsMQEVXTIyEIBA8AhgeAzemNIjCEAgQAR0dVm9evVk2bJlkV6deOKJToCPgw46KCLjAALZJLBv3z654IIL5LPPPnM148033xQTzdYlS0UmEw9IqWgnOiAAAQhAAAKFJZDJuTXd86ruxjj++OOdHRlhHu3bt5eJEyeGs3xCAAIBJoDhMcCDS9cgAIFgENCoxMYflqsz48aNk86dO7tkZCCQTQIa7VoDIEWnO+64Q3TVbqpTuh+QUt1e9EEAAhCAAAQKQyBTc2u659U+ffqI8dsaQaDR6r/99lvHGBkRcgABCASWAIbHwA4tHYMABIJEoFWrVjJjxoxIl2rXru38YCtRokRExgEEsklA/TyWK1dO1DdpOJ177rkyb968cDZln+l+QEpZQ1EEAQhAAAIQSIJApubWdM6r69evl1q1ajl+XMModNv1I488Es7yCQEIBJwAhseADzDdgwAEgkFA33ibKJ9OYI9wj1588UW58cYbw1k+IZB1ArriUb+r4dSmTRt57733wtmUfabzASlljUQRBCAAAQhAIAUEMjG3pnNe7dmzp2v3Q8WKFeX777+XI444IgV0UAEBCOQCAQyPuTBKtBECEICAIXD77bfLU089FWGhvnKWL18urHqMIOEghQQ0+qRuldZUunRpef755yU/v6JlypRxInSGmzFo0CAZMmRIOJuyzxYtWsjMmTMj+u655x4ZNmxYJM8BBCAAAQhAwI8E/Dq3pmte1aj1utpx7969keF45plnpHv37pE8BxCAQPAJYHgM/hjTQwhAICAEfv31VznhhBPkt99+i/Toueeek65du0byHEAgVQRi/UrlFyhm7ty50qRJE9flp0yZIu3atXPJNNO3b1+Xr6e3335bLr/8cqtcPIGu/l28eHHkdLp8SUYuwAEEIAABCEAgBQTSNbf6dV697bbb5H//938j5E477TRZtGiRFC9ePCLjAAIQCD4BDI/BH2N6CAEIBIjAqFGjpFevXpEeVahQQb755hvRTxIEUkkg9uHo2GOPdaJWV61a1bqM+nU866yzHL+j4ZNnn322fPLJJ3LwwQeHRZHP2G1XTz75pOjDSSJJv+9qeNy/f3+keJ06deTrr7/2vFakEAcQgAAEIACBLBNI19zqx3n1q6++Ev0t8Oeff0ao626FZs2aRfIcQAACRYMAhseiMc70EgIQCAiBffv2Sb169Zwt1uEuXXXVVTJhwoRwlk8IpIRA7MORKlXj48CBA52HhsMOO0zWrVvnGCMffPBB0e1j4XTUUUc5Kxq0vFfSrdHDhw+PnIq3VVr1r1mzxglYo8cLFiyQl19+WbZu3RqpGz5o1KiRdOzYUTTwkhridXt4zZo1nYA34TJ8QgACEIAABLJJIF1zq9/mVd1arfOyviwMp8suu0wmT54czvIJAQgUIQIYHovQYNNVCEAgGAQ+/PBDUSfgGukwnN544w3561//Gs7yCYGkCXg9HCWiVCNZ68pcfeCIl9R4OWLEiMhpNUKqLDbFbtGKPZ9ffty4cdK5c+f8inEeAhCAAAQgkBEC6Zpb/TavDhgwQB5++OEI08MPP9zZmaD+HkkQgEDRI4DhseiNOT2GAAQCQCD2B52uMNO3ypUqVQpA7+iCHwioYXvhwoXy0UcfOX/z58+X3bt3ezbtyCOPlLp168pdd90ll1xyiWeZaGG3bt2cYDVhmUa+1gjYsalPnz4uX5Cx5/PLY5DPjxDnIQABCEAgkwTSNbf6aV794osvRF9CRrtEefXVV6VTp06ZRM21IAABHxHA8OijwaApEIAABBIloP5ymjZtKvPmzYtU0eAckyZNiuQ5gEAqCejDkgY4Wr9+vfOnEa7LlSsnGl1dDY8FSRdeeKHj/1HraFR23U6N0bwgBCkLAQhAAAJBIJCqudUv8+qePXukYcOGsmzZssjwaBBEDYZIggAEii4BDI9Fd+zpOQQgkOME1FijP+42b94c6QlvlCMoOPApgZ9//llq1KgRcRUQz7+jT5tPsyAAAQhAAAK+IuCnebVfv37y2GOPRfioX3JdAal+l0kQgEDRJYDhseiOPT2HAAQCQOD99993trbqG3NN5cuXlyVLlsgxxxwTgN7RhaAROHDggOjK3KlTpzpd0+3ZGjCmZMmSQesq/YEABCAAAQiknYCf5tVPP/1Uzj//fNE2aVK/jhrZ+qSTTko7By4AAQj4mwCGR3+PD62DAAQgkC+BWIfil156qbzzzjv51qMABDJNINo3aYMGDUR9O1apUiXTzeB6EIAABCAAgUAQ8Mu8qj6g69evL99//32EK7twIig4gECRJ4Dhsch/BQAAAQjkOgH199isWTOZO3dupCu6oqxt27aRPAcQ8AMBjV6tW6s1KvuECROkTJkyfmgWbYAABCAAAQjkJAG/zKtDhw6VwYMHRxji1zGCggMIQMAQwPDI1wACEIBAAAisXbtWdAWZ+nusVq2azJkzR2rWrBmAntGFoBGYPHmyYxTXoDIkCEAAAhCAAASSI+CHefWTTz6RNm3ayO+//y74dUxuPKkNgSASwPAYxFGlTxCAAAQgAAEIQAACEIAABCAAAQhAAAIQyDIBDI9ZHgAuDwEIQAACEIAABCAAAQhAAAIQgAAEIACBIBLA8BjEUaVPEIAABCAAAQhAAAIQgAAEIAABCEAAAhDIMgEMj1keAC4PAQhAAAIQgAAEIAABCEAAAhCAAAQgAIEgEsDwGMRRpU8QgAAEIAABCEAAAhCAAAQgAAEIQAACEMgyAQyPWR4ALg8BCEAAAhCAAAQgAAEIQAACEIAABCAAgSASwPAYxFGlTxCAAAQgAAEIQAACEIAABCAAAQhAAAIQyDIBDI9ZHgAuDwEIQAACEIAABCAAAQhAAAIQgAAEIACBIBLA8BjEUaVPEIAABCAAAQhAAAIQgAAEIAABCEAAAhDIMgEMj1keAC4PAQhAAAIQgAAEIAABCEAAAhCAAAQgAIEgEsDwGMRRpU8QgAAEIAABCEAAAhCAAAQgAAEIQAACEMgyAQyPWR4ALg8BCEAAAhCAAAQgAAEIQAACEIAABCAAgSASwPAYxFGlTxCAAAQgAAEIQAACEIAABCAAAQhAAAIQyDIBDI9ZHgAuDwEIQAACEIAABCAAAQhAAAIQgAAEIACBIBLA8BjEUaVPEIAABCAAAQhAAAIQgAAEIAABCEAAAhDIMgEMj1keAC4PAQhAAAIQgAAEIAABCEAAAhCAAAQgAIEgEsDwGMRRpU8QgAAEIAABCEAAAhCAAAQgAAEIQAACEMgyAQyPWR4ALg8BCEAAAhCAAAQgAAEIQAACEIAABCAAgSAS+H9RC4OaAqNCIwAAAABJRU5ErkJggg==;" vertex="1" parent="1">
          <mxGeometry x="635" y="309.49" width="453.76" height="84.51" as="geometry" />
        </mxCell>
        <mxCell id="raWA9acyGIPrlW4xChrn-23" value="" style="shape=image;verticalLabelPosition=bottom;labelBackgroundColor=default;verticalAlign=top;aspect=fixed;imageAspect=0;image=data:image/png,iVBORw0KGgoAAAANSUhEUgAABRoAAAE0CAYAAABDzI9+AAAMPmlDQ1BJQ0MgUHJvZmlsZQAASImVVwdYU8kWnluSkEBoAQSkhN4EASkBpITQAkgvgo2QBAglxkAQsaOLCq5dRMCGrooodkDsiJ1FsPdFEQVlXSzYlTcpoOu+8r2Tb+7988+Z/5w5d24ZANROcUSibFQdgBxhnjgm2J8+PimZTuoBCPwpAypQ53BzRcyoqHAAbej8d3t3E/pCu2Yv1fpn/381DR4/lwsAEgVxKi+XmwPxIQDwKq5InAcAUcqbTc8TSTFsQEsME4R4sRSny3GVFKfK8T6ZT1wMC+IWAJRUOBxxOgCq7ZCn53PToYZqP8SOQp5ACIAaHWKfnJypPIhTILaGPiKIpfqM1B900v+mmTqsyeGkD2P5XGSmFCDIFWVzZvyf5fjflpMtGYphCZtKhjgkRjpnWLfbWVPDpFgF4j5hakQkxJoQfxDwZP4Qo5QMSUi83B814OayYM2ADsSOPE5AGMQGEAcJsyPCFXxqmiCIDTFcIWiBII8dB7EuxIv5uYGxCp/N4qkxilhofZqYxVTwFzhiWVxprIeSrHimQv91Bp+t0MdUCzPiEiGmQGyeL0iIgFgVYofcrNgwhc/YwgxWxJCPWBIjzd8c4hi+MNhfro/lp4mDYhT+JTm5Q/PFNmcI2BEKfCAvIy5EXh+shcuR5Q/ngrXzhcz4IR1+7vjwobnw+AGB8rljPXxhfKxC54Mozz9GPhaniLKjFP64KT87WMqbQuySmx+rGIsn5MEFKdfH00R5UXHyPPHCTE5olDwffAUIBywQAOhAAlsqmAoygaCtr6EP/pP3BAEOEIN0wAf2CmZoRKKsRwiPsaAQ/AkRH+QOj/OX9fJBPuS/DrPyoz1Ik/Xmy0ZkgacQ54AwkA3/S2SjhMPREsATyAj+EZ0DGxfmmw2btP/f80Psd4YJmXAFIxmKSFcb8iQGEgOIIcQgog2uj/vgXng4PPrB5owzcI+heXz3JzwldBAeE24QOgl3pgiKxD9lOQ50Qv0gRS1Sf6wFbgk1XXF/3BuqQ2VcB9cH9rgLjMPEfWFkV8iyFHlLq0L/SftvM/jhaij8yI5klDyC7Ee2/nmkqq2q67CKtNY/1keea+pwvVnDPT/HZ/1QfR48h/3siS3GDmLnsdPYRewY1gDo2EmsEWvFjkvx8Op6IltdQ9FiZPlkQR3BP+INXVlpJXMdax17Hb/I+/L4BdJnNGBNFc0QC9Iz8uhM+Ebg09lCrsMourOjswsA0veL/PH1Jlr23kB0Wr9zC/4AwPvk4ODg0e9c6EkA9rvD2//Id86aAV8dygBcOMKViPPlHC49EOBTQg3eaXrACJgBazgfZ+AGvIAfCAShIBLEgSQwGWafAde5GEwHs8B8UAxKwQqwFlSATWAr2An2gAOgARwDp8E5cBm0gxvgHlw93eAF6AfvwGcEQUgIFaEheogxYoHYIc4IA/FBApFwJAZJQlKQdESISJBZyAKkFFmFVCBbkBpkP3IEOY1cRDqQO8gjpBd5jXxCMVQF1UINUUt0NMpAmWgYGodOQtPRaWghuhBdhpaj1ehutB49jV5Gb6Cd6At0AAOYMqaDmWD2GANjYZFYMpaGibE5WAlWhlVjdVgTvM7XsE6sD/uIE3EaTsft4QoOweNxLj4Nn4MvxSvwnXg93oJfwx/h/fg3ApVgQLAjeBLYhPGEdMJ0QjGhjLCdcJhwFt5L3YR3RCJRh2hFdIf3YhIxkziTuJS4gbiXeIrYQewiDpBIJD2SHcmbFEnikPJIxaT1pN2kk6SrpG7SByVlJWMlZ6UgpWQloVKRUpnSLqUTSleVnil9JquTLcie5EgyjzyDvJy8jdxEvkLuJn+maFCsKN6UOEomZT6lnFJHOUu5T3mjrKxsquyhHK0sUJ6nXK68T/mC8iPljyqaKrYqLJWJKhKVZSo7VE6p3FF5Q6VSLal+1GRqHnUZtYZ6hvqQ+kGVpuqgylblqc5VrVStV72q+lKNrGahxlSbrFaoVqZ2UO2KWp86Wd1SnaXOUZ+jXql+RP2W+oAGTcNJI1IjR2Opxi6Nixo9miRNS81ATZ7mQs2tmmc0u2gYzYzGonFpC2jbaGdp3VpELSsttlamVqnWHq02rX5tTW0X7QTtAu1K7ePanTqYjqUOWydbZ7nOAZ2bOp9GGI5gjuCPWDKibsTVEe91R+r66fJ1S3T36t7Q/aRH1wvUy9Jbqdeg90Af17fVj9afrr9R/6x+30itkV4juSNLRh4YedcANbA1iDGYabDVoNVgwNDIMNhQZLje8Ixhn5GOkZ9RptEaoxNGvcY0Yx9jgfEa45PGz+nadCY9m15Ob6H3mxiYhJhITLaYtJl8NrUyjTctMt1r+sCMYsYwSzNbY9Zs1m9ubD7OfJZ5rfldC7IFwyLDYp3FeYv3llaWiZaLLBsse6x0rdhWhVa1Vvetqda+1tOsq62v2xBtGDZZNhts2m1RW1fbDNtK2yt2qJ2bncBug13HKMIoj1HCUdWjbtmr2DPt8+1r7R856DiEOxQ5NDi8HG0+Onn0ytHnR39zdHXMdtzmeM9J0ynUqcipyem1s60z17nS+foY6pigMXPHNI555WLnwnfZ6HLbleY6znWRa7PrVzd3N7FbnVuvu7l7inuV+y2GFiOKsZRxwYPg4e8x1+OYx0dPN888zwOef3nZe2V57fLqGWs1lj9229gub1NvjvcW704fuk+Kz2afTl8TX45vte9jPzM/nt92v2dMG2Ymczfzpb+jv9j/sP97lidrNutUABYQHFAS0BaoGRgfWBH4MMg0KD2oNqg/2DV4ZvCpEEJIWMjKkFtsQzaXXcPuD3UPnR3aEqYSFhtWEfY43DZcHN40Dh0XOm71uPsRFhHCiIZIEMmOXB35IMoqalrU0WhidFR0ZfTTGKeYWTHnY2mxU2J3xb6L849bHncv3jpeEt+coJYwMaEm4X1iQOKqxM7xo8fPHn85ST9JkNSYTEpOSN6ePDAhcMLaCd0TXScWT7w5yWpSwaSLk/UnZ08+PkVtCmfKwRRCSmLKrpQvnEhONWcglZ1aldrPZXHXcV/w/HhreL18b/4q/rM077RVaT3p3umr03szfDPKMvoELEGF4FVmSOamzPdZkVk7sgazE7P35ijlpOQcEWoKs4QtU42mFkztENmJikWd0zynrZ3WLw4Tb89FciflNuZpwQ/5Vom15BfJo3yf/Mr8D9MTph8s0CgQFrTOsJ2xZMazwqDC32biM7kzm2eZzJo/69Fs5uwtc5A5qXOa55rNXTi3e17wvJ3zKfOz5v9e5Fi0qujtgsQFTQsNF85b2PVL8C+1xarF4uJbi7wWbVqMLxYsblsyZsn6Jd9KeCWXSh1Ly0q/LOUuvfSr06/lvw4uS1vWttxt+cYVxBXCFTdX+q7cuUpjVeGqrtXjVtevoa8pWfN27ZS1F8tcyjato6yTrOssDy9vXG++fsX6LxUZFTcq/Sv3VhlULal6v4G34epGv411mww3lW76tFmw+faW4C311ZbVZVuJW/O3Pt2WsO38b4zfarbrby/d/nWHcEfnzpidLTXuNTW7DHYtr0VrJbW9uyfubt8TsKexzr5uy16dvaX7wD7Jvuf7U/bfPBB2oPkg42DdIYtDVYdph0vqkfoZ9f0NGQ2djUmNHUdCjzQ3eTUdPupwdMcxk2OVx7WPLz9BObHwxODJwpMDp0Sn+k6nn+5qntJ878z4M9dbolvazoadvXAu6NyZ88zzJy94Xzh20fPikUuMSw2X3S7Xt7q2Hv7d9ffDbW5t9VfcrzS2e7Q3dYztOHHV9+rpawHXzl1nX798I+JGx834m7dvTbzVeZt3u+dO9p1Xd/Pvfr437z7hfskD9QdlDw0eVv9h88feTrfO448CHrU+jn18r4vb9eJJ7pMv3QufUp+WPTN+VtPj3HOsN6i3/fmE590vRC8+9xX/qfFn1Uvrl4f+8vurtX98f/cr8avB10vf6L3Z8dblbfNA1MDDdznvPr8v+aD3YedHxsfznxI/Pfs8/QvpS/lXm69N38K+3R/MGRwUccQc2acABhualgbA6x0AUJMAoMH9GWWCfP8nM0S+Z5Uh8J+wfI8oMzcA6uD3e3Qf/Lq5BcC+bXD7BfXVJgIQRQUgzgOgY8YMt6G9mmxfKTUi3AdsZn9NzUkF/8bke84f8v75DKSqLuDn878AGrB8L5SbybkAAACKZVhJZk1NACoAAAAIAAQBGgAFAAAAAQAAAD4BGwAFAAAAAQAAAEYBKAADAAAAAQACAACHaQAEAAAAAQAAAE4AAAAAAAAAkAAAAAEAAACQAAAAAQADkoYABwAAABIAAAB4oAIABAAAAAEAAAUaoAMABAAAAAEAAAE0AAAAAEFTQ0lJAAAAU2NyZWVuc2hvdDNS1k8AAAAJcEhZcwAAFiUAABYlAUlSJPAAAAHXaVRYdFhNTDpjb20uYWRvYmUueG1wAAAAAAA8eDp4bXBtZXRhIHhtbG5zOng9ImFkb2JlOm5zOm1ldGEvIiB4OnhtcHRrPSJYTVAgQ29yZSA2LjAuMCI+CiAgIDxyZGY6UkRGIHhtbG5zOnJkZj0iaHR0cDovL3d3dy53My5vcmcvMTk5OS8wMi8yMi1yZGYtc3ludGF4LW5zIyI+CiAgICAgIDxyZGY6RGVzY3JpcHRpb24gcmRmOmFib3V0PSIiCiAgICAgICAgICAgIHhtbG5zOmV4aWY9Imh0dHA6Ly9ucy5hZG9iZS5jb20vZXhpZi8xLjAvIj4KICAgICAgICAgPGV4aWY6UGl4ZWxZRGltZW5zaW9uPjMwODwvZXhpZjpQaXhlbFlEaW1lbnNpb24+CiAgICAgICAgIDxleGlmOlBpeGVsWERpbWVuc2lvbj4xMzA2PC9leGlmOlBpeGVsWERpbWVuc2lvbj4KICAgICAgICAgPGV4aWY6VXNlckNvbW1lbnQ+U2NyZWVuc2hvdDwvZXhpZjpVc2VyQ29tbWVudD4KICAgICAgPC9yZGY6RGVzY3JpcHRpb24+CiAgIDwvcmRmOlJERj4KPC94OnhtcG1ldGE+CiDBa04AAAAcaURPVAAAAAIAAAAAAAAAmgAAACgAAACaAAAAmgAAVdQmg3IUAABAAElEQVR4AeydCfwN1fvHH0u2KPuusi9lKdqQslXWSEjkV+Gn1ZolCqEsIbKmSIkKLYgSUaH4hyIhSUgUkn2Jmv955veb+5szZ+793vu9M3Nn7v2c1+u+7pxnzvo+Z+bMnDnneTJowhEcCIAACIAACIAACIAACIAACIAACIAACIAACIAACMRBIAMmGuOgh6ggAAIgAAIgAAIgAAIgAAIgAAIgAAIgAAIgAAI6AUw0oiOAAAiAAAiAAAiAAAiAAAiAAAiAAAiAAAiAAAjETQATjXEjRAIgAAIgAAIgAAIgAAIgAAIgAAIgAAIgAAIgAAKYaEQfAAEQAAEQAAEQAAEQAAEQAAEQAAEQAAEQAAEQiJsAJhrjRogEQAAEQAAEQAAEQAAEQAAEQAAEQAAEQAAEQAAEMNGIPgACIAACIAACIAACIAACIAACIAACIAACIAACIBA3AUw0xo0QCYAACIAACIAACIAACIAACIAACIAACIAACIAACGCiEX0ABEAABEAABEAABEAABEAABEAABEAABEAABEAgbgKYaIwbIRIAARAAARAAARAAARAAARAAARAAARAAARAAARDARCP6AAiAAAiAAAiAAAiAAAiAAAiAAAiAAAiAAAiAQNwEMNEYN0IkAAIgAAIgAAIgAAIgAAIgAAIgAAIgAAIgAAIggIlG9AEQAAEQAAEQAAEQAAEQAAEQAAEQAAEQAAEQAIG4CWCiMW6ESAAEQAAEQAAEQAAEQAAEQAAEQAAEQAAEQAAEQAATjegDIAACIAACIAACIAACIAACIAACIAACIAACIAACcRPARGPcCJEACIAACIAACIAACIAACIAACIAACIAACIAACIAAJhrRB0AABEAABEAABEAABEAABEAABEAABEAABEAABOImgInGuBEiARAAARAAARAAARAAARAAARAAARAAARAAARAAAUw0og+AAAiAAAiAAAiAAAiAAAiAAAiAAAiAAAiAAAjETQATjXEjRAIgAAIgAAIgAAIgAAIgAAIgAAIgAAIgAAIgAAKYaEQfAAEQAAEQAAEQAAEQAAEQAAEQAAEQAAEQAAEQiJsAJhrjRogEQAAEQAAEQAAEQAAEQAAEQAAEQAAEQAAEQAAEMNGIPgACIAACIAACIAACIAACIAACIAACIAACIAACIBA3AUw0xo0QCYAACIAACIAACIAACIAACIAACIAACIAACIAACGCiEX0ABEAABEAABEAABEAABEAABEAABEAABEAABEAgbgKYaIwbIRIAARAAARAAARAAARAAARAAARAAARAAAW8J/Pnnn7R582baunUrXbx4kQoWLEjFihWjG264gbJnz+5tYZAbCPyXACYa0RVAAARAAARAAARAAARAAARAAARAAARAIAAEeGJx2LBh9PXXX9O+fftsS5w1a1aqWbMmde7cmdq0aUOZM2e2DQchCLhBABONblBFmiAAAiAAAiAAAiAAAiAAAiAAAiAAAiDgIIExY8ZQ//796e+//4461SuvvJIGDx5MDz74YNRxEBAE4iGAicZ46CEuCIAACIAACIAACIAACIAACIAACIAACLhMYO7cudS+fXspl8KFC1P37t2pXLlydOTIEdqwYQO9/vrr9Ndff0nh2FOvXj2aPn06lS5dWjkHAQg4SQATjU7SRFog4AMCJ0+epHfffZeWLFlCU6ZMoQIFCsRdKuj+iBshEhAE0I/QDUAg9QjguvemzZ999lk6f/48dejQgSpVquRNpsjFMQK4ThxDiYRAIGkJ8ArGsmXL0s8//xyqY5kyZfTt07lz5w7J+ODHH3+kTp060erVqyU5e3hi8uDBg4ocAhBwkgAmGp2kibRAIIEEvvzyS5o4cSItXLiQzp49q5dk0qRJ9Nhjj6WrVND9kS5siGQhgH5kAQIvCKQAAVz33jbyqVOnqFChQnTmzBk94+uuu44eeOAB6tq1K2XJksXbwiC3qAngOokaFQKCAAgIAtu3b1c+JPEKx3bt2tnyOXHiBN188820bds26fxNN91EX331lSSDBwQcJ6DBgQAIBJrAb7/9pnXs2FHLkCGDJm4Q0q9FixbpqtsLL7ygZcqUSUrLmrbVL3R/aDNnzkxXfoiUnATQj5KzXVErEIhEANd9JDrunFu2bJnteC1WvmgfffSRO5ki1bgI4DqJCx8ig0BKEhC71ZR7vVhgEpGFWNmoXXLJJVK8bt26RYyDkyDgBAGsaHR86hYJgoB3BMTEHvXs2ZP4i5XZscJfXsnYpUsXsi6lN4ezO4buDzsqkMVKAP0oVmIIDwLBJ4DrPjFtKF4IaPny5TRhwgQSE4vEfrO7++67iZ8XLr/8crMYxwkigOskQeCRLQgEnABvg65Tp45Ui8cff1zf0SYJLR5WqTFnzpyQ9M0331T0PIZO4gAEHCKAiUaHQCIZEPCawJAhQ4h1Mpldjhw5aPTo0fTwww+TWJFoPhXVMXR/RIUJgdIggH6UBiCcBoEkJIDr3h+NunXrVn3b9MaNG6UCVa1alT7++GNdN5d0Ah5PCeA68RQ3MgOBpCLAhl5YTcY///wTqlfmzJl1HY3VqlULyawHbBzmhhtuCIl37txJrNsRDgTcJICJRjfpIu2EEti3bx/t37+fatasmdByOJ05Dy789Wrq1KlS0jVq1CD+QlW+fHlJHosHuj9ioYWw4QigH4UjAzkIJC8BXPf+adsLFy7oHyJHjBghvZCWLFmSPvnkE7xgJrCpcJ0kED6yBoEkIHDXXXfRokWLpJpUr16dWFc/dPJKWALj+fzzz3WL4UWKFAlMmaMqqBP7r5EGCPiNwMWLFzWh/FbLmDGjxnpwkskNHDhQ0rMhLnStdu3a2unTp+OuJnR/xI3QlQTE9nddvwrrWOEft5OfHfqRP1snaP3InxS9K1XQ2gvXvXd9I9qcXnvtNUV/s5hs1I4dOxZtEgjnMAFcJw4DRXIgkGIE1q1bp7/f8vuf+Sd2s6UYieBXVywe0sQORX2cbtCggcb+ZHKsxwUOBJKOwKhRo6Sb74wZM5KijmIlgjK4XHvttY69NHzxxRcSNx7AxOrJNNm1b99eiidWVqYZBwGiJ2B+kODjt99+O/rICQiJfpQA6FFkGbR+FEWVkjpI0NoL170/u+P48eOl8Zn7VatWrfxZ2BQoFa6TFGhkVBEEXCbQq1cv5b7O9/Zp06a5nDOSd5KAdXyeMmWKk8knPC1snRZXJVxyEfj++++Jl5CfP39er1i2bNnou+++C/xWIWFdmlj/xu+//x5qMFbsvm3bNipatGhIFs8BdH/EQ8+9uMKiuJS4mGiktm3bSjI/edCP/NQa/ytL0PrR/0qemkdBay9c9/7tp507dybxwVUq4KRJk3SjcZIQHtcJ4DpxHTEyAIGkJ3D27FkSu9lo06ZNUl1ZXyOrx6hbt64kh8efBLZs2aLPWYidmHoBc+bMSSxjNSfJ4DDRmAytiDqECPCFKrZMEyu9NRwbTBk0aJDhDey/WDVIbKnQ7CZPnkyPPvqoWRT3MXR/xI3Q8QSCNuHAANCPHO8GcScYxH4Ud6UDnEAQ2wvXvT873NGjR6lChQp0+PDhUAGzZ89Ou3fvhnGYEBHvDnCdeMcaOYFAshJgOwQVK1akU6dOSVXMmzcvsTGwq666SpLD408Cffr0oTFjxoQKd+utt9KqVavI+gwYChCkg4SvqUQBQMBBAsOGDZOWkgvDKNq5c+cczCExSYlVmsqWaWE9TBPWCx0vEHR/OI407gTFmCL1a79vneYKox/F3eyOJxDEfuQ4hAAlGMT2wnXv3w42a9YsaRzh/tWtWzf/FjiJS4brJIkbF1UDAQ8I/PHHH1qPHj2Ue7rx3MBqtc6cOeNBSZBFvATERLF2xRVXSG3JW6qTwUFHYzK0IuqgE/j22291QxnGTZb/P/3006Sg07p1a+kGxHVzUw8idH/4q9uY+zQfB2GikQmiH6Ef+YtAsEqD6z5Y7eX30rKRvAIFCkjPElmzZtV++eUXvxc9KcuH8TEpmxWVAgFXCfDiGTZyysbirM8IVn/Hjh1dLQsSd47ABx98ILWn2HGg/fDDD85lkKCUsHVaXJVwwSdw4cIFuv7662nz5s2hynTo0IFmz54d8gf1gHVOVq5cmT8KhKrAeicPHTpEuXLlCsmcPIDuDydpxp+Wdfm833U0GjVGPzJI+OM/qP3IH/S8L0VQ2wvXvfd9Jdocu3btStOnT5eCC4NvNHHiREkGj/sEcJ24zxg5gEAyEViwYAHxNts9e/ZI1br99ttp7969JCamJDl7OI4w/qXIIfAfgRYtWtDChQtDBWNVcGvWrKGMGTOGZEE7wERj0FoM5bUl8Mwzz9Dw4cND5/LkyUM7duygggULhmRBPXjqqado5MiRUvFZv4/4+iHJnPZA94fTRNOfXlAnHLjG6Efpb3enYwa5HznNIgjpBbm9cN37s4etWLGCGjZsKBUuX758xMbm2IgAnLcEcJ14yxu5gUBQCbz44oskVkFLxc+fPz+JLbbEOvxZ/y4bDD1w4IAURqxip+3btxPf5+H8TUDsLtB1bp4+fTpU0FGjRlHfvn1D/sAdJGglJbIFAccIfP3115p4QJaWHL/88suOpZ/ohMqUKSPVTdxktDlz5rhaLOj+cBVvzIlzm5t/Qdk6jX4Uc1O7GsHch/g4KP3IVSg+Tjyo7YXr3r+dirdPi5dTaTzhfiaslPq30ElaMlwnSdqwqBYIOExATDYp9+xatWppwoK9lJP4kKSE4/v70KFDpXDw+JeAMAojtSGrN2E7DUF10NEY1JZDuXUCrKuiUqVK0kVZs2ZN7Z9//kkKQt98841UNx4wxLZp7cSJE67UD7o/XMEad6JBm3BAP4q7yV1JIGj9yBUIAUo0aO2F6z4Ynevf//638lzRpUuXYBQ+CUqJ6yQJGhFVAAGPCIjdesr9unjx4trvv/9uW4LbbrtNCV+sWDFNqBizDQ+hvwhwO1WtWlVqwxo1amj8kTCIDhONQWw1lDlEgK0ymV/GeGXjli1bQueDfjBo0CCpflxXocPBlWrNnz9fu+qqq5T8hO4Pja13mzkbx0L3hytlQaIyAYO38e/nlWjoR3Lb+cln9B/j38/9yE/cElUWo52Mfz+3F677RPWS2PNdvny5Mp6zkRg49wngOnGfMXIAgWQhMHbsWOVezYtNNmzYELaKbATVeGYw//O9By4YBL766itNqM6R2nHGjBnBKLyllJhotACBNzgETp48qQkdjNKFKJTkBqcCUZS0SZMmUv140Jg5c2YUMWMLMm7cOCUf3l5lWLYWhme0okWLKmH45cS6dD+2nBE6GgLmhwU+9uuEA/pRNK2ZuDBB6UeJI+SvnIPSXrju/dVv0ioNr5gQhuSU8VwYE0grKs7HQQDXSRzwEBUEUowAv3flzJlTuU8LI6dpkihcuLASr1GjRmnGQwD/EBCG26Q2vOKKKzReDR80h4nGoLUYyhsiMGzYMOki5EnHU6dOhc4nwwEvj7e+bPLXKicddH84SdOdtKx9wI8TjehH7rS9k6kGoR85Wd+gpxWE9sJ1H8xeVqFCBeXZYvHixcGsTABKjeskAI2EIoKAjwj07t1buUcLK8RRlbBt27ZK3JIlS0YVF4H8QeDo0aPaZZddJrUj7+IMmoPVafEkDxc8AuICpFKlStHx48dDhX/++eeJLTQni+M62lkJE0phSeildKSazz33HD399NNSWmJykzZu3Ghrsbtu3br02WefSeGF7g/as2cPLFZKVJz1+N36LPqRs+3tVmp+70f79u2j1atX05kzZ+i6666j6tWrx4RCrMjS4589e1aPy2nE4n7++Wdas2YNnT9/noROHN2CYyzxnQ7r9/bCde90i3uXntDjRZ9//rmUodAFRgMHDpRk8MRPANdJ/AyRAgikEoGDBw9S6dKliZ9lzE6sZqQOHTqYRbbHEydOpG7duknnLrnkEv3ZxvpcIQWyeIS9A+I8eaxo2rQp3X333ZYQ7nnjyXvdunW0bdu2uAqXJ08eatmyZVxpxBt5wIABNGLEiFAyYkEV7d69my699NKQzPcHQZsZRXlBgAkIU+/SLP/ll1+uHTt2LKngiAk9qY7iZqL7ndqqDN0fwekuRtsb/35a0Yh+hH7kBIG33npLy549u3TPY6MV0bo33nhDY+t8xjXC/4899li00XWVFFmyZJHi9+jRI+r4bgQ014WPcd27QTk102zTpo3U17l/sQzOWQIYH53lidRAIBUI8LOLdfxnVVXiI2hU1Wf9+db47D9w4EBU8TnQRx99pFWpUiWUziOPPBJ13HgDxpv3Aw88ECq3HYdoZKwuLNGODf5Yn4vZOFCQHFY0it4GFywCdl96eNafvxpH6/jrjNDnGG1wV8I1bNgwYpnnzZtHYvm7lHd6vkhJCfzXc/jwYX1FqNhqLp2O5mtZkSJF6LfffpPiCd0ftHTpUkkGj0wgnj739ddfS4kVKlSIhL4OSRaNJ60+F00a5jDoR2Ya3hwnYz8SH0/0+5HQu6tAfO+999L8qiwexvSv/6dPn1bii+2g+pd45YRJ8Ouvv1LZsmWV1QMcZNmyZSQMYplCx3aYjO2F6z62PuDH0LzahVe9mN2tt96q7Fgwn8dxbARwncTGC6FBAAT+QyB37tzSjj2W8o493rkXjVu1ahXVq1dPCbp+/Xq64YYbFLlZsGnTJhKLeUio6TKLqWfPniT0zEoypz1O5S2MptLChQvjKl7r1q2J38MT7Z544gmaNGlSqBhiYRXx7htecRkIF6RZUZQVBJjAo48+Kn2p4Nl+Vpobi5s1a5aUhrhYPfenpZh3+vTpSpmc+sIC3R+x9BZnwgahz8VaU/SjWInFHz4Z+9GSJUuUe51xT45mVeIHH3wQNn40qxLFw2TY+Lx6Ph6XjO2F6z6eHuGPuLwqwrjGjP9rr73WH4VLklLgOkmShkQ1QMBDAmIhh3Jv5nv0li1boi6F+MBpm4bYUhw2DaECS2vfvr1i7dgYH+J9FgqbsTjhdN516tSxrb9Rl2j+xaRnpCJ7do6NtIlFRlJ9+vXr51n+8WYEYzDxEkR8Twn89NNPygUnZvtjLkMQXv7GjBkj3Vj4xih0jsVcV2sEXjpvXYrNaUdjyYzTeumll5Ry8U1Q6NOwZgW/iUAQ+pypuGkeoh+liciVAMnWjxgSW7cP9+B33333pcnxtddeCxv/X//6V5rxX3755bDxu3Tpkmb8SAGSrb1w3Udq7eCce+WVV5Q+L/ReB6cCPi8prhOfNxCKBwI+JfDFF18o92Z+PhI7NqIu8bvvvmubhti9oaTBasd4EjFbtmy2cYxnM7FzUIkbr8CtvK+55ppQXdhy9/33368J/cPakCFDwv7Ebr1QnLQWAsVb71jjW7eC58iRI6Zt8LHm52R4TDQ6SRNpuU6AbxbGTY//eYJLGBCIOd8gvPwNGjRIqivX14mbnx90f8TcYEkQIQh9LhbM6Eex0HIubLL1IyYjtvMo9zrjPj948OA04QkDLmHjR6PPZuXKlWHjjx49Os38IwVItvbCdR+ptYNzbtGiRUqfz58/f3Aq4POS4jrxeQOheCDgUwJ2H4GEEZCYSjt58mTl/s7vy3///beUzty5czVhdFQKW7FiRe3ee+9VVjYKw6FS3Hg9buYtjJTqdWK92zt37kyzqLt27dIyZ84c4iCMEqYZx8sA27dv1zJmzBgqHz8f8+7OIDjoaBStBRcMAmxtWSimJbZEZbgHH3yQZs6caXij/meLzuKrUdTh3QjIVrO5PuGc2Haj6MOoX78+rVixIlyUqOSJ1P1hLmA8FsXM6aR1zPkYFsjYOjb/xGoDEjdtuvLKK0l8+SKxzD5mC7dp5Ws9n94+JwYSxdJb165d6c4777RmkaY/rT6XZgKmAKnWj8QDGn355ZckHlp0/ShGP2J9KSVKlKCrrrpKbyf+d9MlWz9iVtzHb7nlFlq7dq2ETnyJ1i0HMt9Ijq/xm2++mf7v//5PCnbZZZeReEAjoXJCkls93Last4j1A5kd68Dh+KwTNb0u2dor1a57u3aPZ+wyxiK7dKOVOWENU6gbUHSfip0OusX3aMuBcOEJpNp14pfnrPAtgjMgEAwCrB/xhRdekArLzyesXzFaJ7ZAk5jIk4KXL1+eduzYIclGjRpF/fv312UVKlTQ9fY2aNBA9/P76XfffRcK/8wzz9DQoUND/ngP3MybrTKfOXOG7rrrLuKxLi3XsWNH3bo2h+Nn0UTPD9iVl3VGCiM/oVNi4ph++OEHKlmyZEjmy4MgzIaijCDABIRyV2k2n2f3xU0zaeHwMnVx05B+99xzT1z1TZTuD2uh47UoZk3P6r948aImFBlrbCWtcOHCEkMrU8PfvHlzbevWrdakfOE3ymj8J9r6bKr0I/76u2rVKr0fscU/g3+4f74n8X2Kv4760VnLneh+ZGYkDMJo4mFPYz204sFJE4YptA0bNpiDRDxmPb2sX8iIX7duXe2bb76JGMd8kvs0f8Xn+GKyWBMfdWLSiWROy6ljv7VXqlz3kdov3rHLugXK2sbR+LmPxuvsVvGKybF4k0V8QSBVrpNke85C5wUBPxDg5xDrONCqVauoiyYm/TW751XeOmx1wgCfJiYgtZEjR2p//fWXdFoYwZPKISYapfPxetzMm/V2v/7661E9w23btk1aLchjvB/dxo0bpfbgPsLPzH532Drt9xZC+XQC/MJpvfHGO+nmd7R847fWuXHjxnEV22vdH9bC8o2SX+Ct9RLWzKxB4/ILi8xKHpxn8eLF9fxZ6X3WrFmVMLly5dJ2794dV95uRLbySvQEUar0I9aJamXP/tKlS2v8EFajRg1bfac8UWWnC8eNvhFLmta6JLofxVL2VAzrt/ZKleverq85NXaJFRa29xRrW0fyi5UNdkWMSSassSvlECv8Y0oDge0JpMp1kmzPWfatCSkIeEuA9UJb7/+8ECJaF84QjFj9Fm0Seji3JxojFcbLvNu0aRPi7XeDaHfccUeorNxHgrDgChONkXo6zvmGgN0qAL9YhHIL0tSpU6UbCt9UeJVPPM5L3R/mcoptpp5aM2Plv+aBWmw101gfCH/pM9zBgwc1nrg1h+Pj2rVrG0F8828tY6IniFKlH/GEoZk9r47lF3Sz49Ur/OJvDsfHTuhTNefjxLG1jInuR07UKZnT8Ft7pcp1b+5TTo9dfrGGyde+tX9VrlzZXHUcp5NAqlwnyfaclc7mTolorOtYqOuRfvyMw0aPwrk+ffpI4Tl+06ZNtRMnToSLogm1QEqcli1barx6NlUcGyyx3pvFNuaoq2+3mKNmzZpRxzcCejnZZ+Rp/HuV97fffivpopw3b55RBF/+200ip8cgrpeVw0Sjl7SRV7oI/PHHH8qqIR6wkt3NmTNHGWzi/drCA791ABO6P2JCyVZgrWnw0ns755ZFMbu8zDLzAzCvXGRjEXbu/PnzWpkyZZT67N+/3y54wmRW3omeIEqVfmSeaGQrb+E+bvCWE34QNLeT0BGjXbhwIWF9xi5jc/n4ONH9yK6MkP2PgN/aK1Wue24Bt8Yuv1jDnD59unS/4r5Wq1at/3U+HKWbQKpcJ8n2nJXuBk+BiHaTV3zPCPdMxEiqVq2q3GM4zi+//BKWGKuFsI577D979mzYOMl2ws5itNCfqx0+fDjNqi5fvlzhx0ZOeEV+rM6ryT67cnmVt3mHAb/HWo3l2JUt0TIep83XiNATH5NFcq/Lj4lGr4kjv5gJjBs3Trqo+ALzqw6FmCsXIQLX0Xwz4eN4dSh5qfvDTYtiEbDpp8wPwD169IgY3G7l6LJlyyLG8fqktR8keoIoVfqReaLxySefjNjsL730knK9RnoIj5iYSyf91o9cqmbSJOu39kqV697Nscsv1jCfeuop5X7VrFmzpLl2ElmRVLlOku05K5F9xu95Y6LRuxY6d+6c/q5nHf/TUjHFW6OtFqQ5jUGDBqWr8F5N9tkVzou8hfFAaQwUhmXtiuI7Ga+6tPYNXkXvV4eJRr+2DMqlE+CtruXKlZMuKt6+mArL6Pfu3SvV27ixsNGE9DovdX+YdUwKa2Yaf2kzHG/RMurD/04rGR4/frw2bNgw/cdbpCM5O31KM2bMiBTF83NmVnyc6InGVOlHEyZM0PiFnH9p6Vx85513pD7N7fT999973lciZei3fhSprDgnTHGLPmT+4br/T69we/xwc+zildHcprySIhp3//33h/qAsIYZTZSowpj1Uhl9TFgfjSouAkUmkCrjY7I9Z0Vu1dQ+i4lGb9uf34mM+7LxnyVLFo0XRtg5fr+y05nKRvGsRl7s4tvJvJjss8uXZV7kzTsjDbYlSpRIN6dwdXBLzqt7eRWjUXb+r169ulvZxZ0uJhrjRogE3CTAloPNFxMf9+rVy80sfZU2r2C01n/9+vXpLqOXuj/ctCiWbgA2Ee10XixYsMAmZOJE1j6Q6AkH9CO1L1itxPN2lfQ+4KmpOyPxWz9yplbJm4rf2itVrns3xy6/WMO0M3TFKznh4ieQKtdJLKSC8JwVS31SLSwmGr1tcV5ME06fL39wGjx4sDZr1ixt9OjRtrrm+dmhU6dOcT2DejHZF46q23mvXr1aerfmHUlBcnYfs3iFph8dJhr92CooU4gAW5a2vmx98803ofPJfmA30Lz++uvprjZ0f6joJk+erPSx7du3qwETKLFeA4meaEQ/kjsDf2E0617j9mLrcH5zfutHfuPjt/L4rb1w3Xuz0sLoh+ZVh/HqZzbS5H/WQ5UrVy5l3PPbCmxzmYN0jOtEba0gPGeppYbEIICJRoOEd//Hjx/X7AyhWp8LrP68efNqvBsnXuf2ZF+k8rmd92233RYa/woUKKCdOXMmUnF8d85uJ96DDz7ou3JygTDR6MtmQaGYAFsz41VB5ptoqllF7Natm1R/ZsFfqdLroPtDJscvXLyt29zHWIG135y5fHyc6IlG9CO5h1gNJLEBop07d8qBfODzWz/yARJfF8Fv7YXr3ruJRjetYW7YsEEa87ifZcuWzXfGq3x9cUYoHK4TGU5QnrPkUsNnJmA2mmGMSxkyZNB27NhhDiYds6VjI6zxz+90hw4dksKZPVZVWRyPDaH4bXeIucxuH3/yySdau3btNLNOVIOn+b9SpUratGnTHDMM4vZkXyRubuZt3Sn5/PPPRyqKL8+xWjmzDnnjOvnzzz99V15MNPquSVAgg8DQoUOVQYqXiaeS+/jjjxUGJUuWjAtBquv+MMN79dVXFb5+MwTD5TU/TPBxoicauUzoR5pucbFp06ZS+/DX0ZUrVzIi3zk/9iPfQfJRgfzYXql+3bv5AmTueuYXe6etYfJzlLVvNW/e3Jw9juMkkOrXiRlfUJ6zzGXGMQj4jQDvnGEDg2wolLdNT5kyRXv//fc1/ih17Ngxx4vr1VhnV3A387755ptD4x/rOnSDnV2dnJY9/fTToXoY4znrzfWbw0Sj31oE5dEJsH4KVs5qXDz8nzFjRm3//v0pRYi/4uXJk0fiwCx+/vnndHNIdd0fBjjegs9fSs19rG/fvsZpX/2by8jHfphoTLV+xKsydu3apS1atEgbNWqUoheHv+6zqod9+/b5qu+YC+PHfmQuH45lAn5sr1S77uUW8WZFo9vWMM1K8I0+Nnv2bGtV4Y+DQKpfJwa6ID1nGWXGPwiAgDdjXTjObk00LlmyRHrnY0OPQXVsZdwYv41/3qHnN4eJRr+1CMqjE1i4cKFyATVo0CAl6bDeBeMmYvyPHTs2LhaprPuDwbHl7lKlSklceUUHTyb50Rntbvz7YaKROaVSP7LTiWK0B/+PGDFC4y/Ofnbm8vKxX/qRn5klsmx+ba9Uuu6t7e/WC5A5H/NEoNPWMP/44w99m7S5b7E1U25TOGcJpPJ1wiSD9pzlbOsjNRAINgEvxrpwhNzIm7cbs3VmY+zjhSaRtvGHK5uf5DfeeGOoPka9/LajChONfuoxKEuIgPlB27h44jGCEko4gAe8lddgYPyzHhO+acbrUlH3Bz/816hRQ2LKumROnz4dL07X4hvtbvz7bYIoFfpRWhON3DaXXnqpbg3Qr/qEjP5j/PutH7l2AQU0YaOdjH+/tVcqXPfWruPGC5A5D7etYY4bN04a+7hv8TZtOPcIpOJ1EsTnLPd6AFIGgeARcHusi0TEjbzfe+89aex74oknIhUhEOcmTZok1YnH89atW/uq7Bm4NKJgcCDgGwK7d++mMmXK8CR4qEziBZ5+++03EspwQ7JUOhBfYUjo5pCqLBTaUr169SRZej1CeTkJS8v0+++/6z9hgYuKFClCQh8kCYWzJPRYpDdp23jCIi+Jh+/QOaHPiIROzpDfrQOuF+e9Zs2aUBbXX389rVixgi677LKQzG8HYluuVCQx4UBt27aVZH7wJHM/OnXqFC1fvpzEljgShqrol19+oa1bt+r92Hyv4naoUqWKLi9UqJAfmiVUhqD0o1CBU/wgKO2VzNe9tQu6PXbVrVuXPvvsMz1boe+V9u7dS2LlhbUY6faLrVUktlxJ8detW0diZYQkg8d5AqlynQT1Ocv5FkeKIBBcAmIXIfF7puEGDhxIw4cPN7yu/judt1iYQ9WqVaPvvvtOL/cll1xCP/30E4kdA67Ww+3ExapxKlq0KF24cCGUFddNqHCiwoULh2QJPeCJRjgQ8BOBfv36KTP0HTp08FMRPS/Lhx9+qDARLzyel8OpDN34WpVW2cRDvtawYUOJ43XXXacdPXo0ragJP8/K+wcPHhz6xaOjM+GVcbAAiehH1uKLyUatWbNmUr8Sg7rGZXNi1bE1v3j86Efx0PM+LtrLnnkir3s383bbGuYHH3yg3KcaN25sDxnSwBNws6+GgxPk56xwdYIcBFKRgPhgLo0XsawA7NWrl8Z6y40fG62JxcWTt10+b731llQXVkmWLM5sOI7fPfgnJoR9Uz1snfZNU6AgBoErrrhCuiHwReNHS8BGeb36t9PFsGDBAq+ydzQfrx+AxdcefXuYcRPm/6BMMjoKPskS87ofhcPHW6XNluyMfjZv3rxwUSAHARBIJ4FEXvdu5m2+hzhtDZNVg4jdCcqz1YYNG9LZCojmdwJu9lW7uuM5y44KZCAQPAL8AT1TpkzSeFGpUiUtWrVA3bp1k+LyFt9oXbx5W/Nhw1zly5cPlYcNy+7YscMaLLB+ngcw3jmM/6uvvto39cFEo2+aAgVhAvzQa1woxr9YFqzxjSLVndjepIkl0RKf4sWLaydPngwcGi8fgNnAy3333SdxE0voNVaKDxdsAl72o7RIff/991If4/tXLF+A00of50EABP5DIJHXvVt5u20Nk61rGs9Uxn/nzp3RpZKYgFt91Q4ZnrPsqEAGAv4n8Ouvv2rr16/XhGogjW0h8CRh7ty5lfGCxw02pjJmzBiNV8evXbtWEyq9tD///FOp5IABA6T4Ytu1EoYFbuRtzWjWrFlSWfymw9Ba3lj9vIrcrr127twZa1KuhMdEoytYkWh6CfDNyHgINv579OiR3uSSLt4LL7yg8GnZsmXgJmK9fADu2bOnxKxy5cra4cOHk65vpGKFvOxHafHlbdJCz6fU12rVqpVWNJwHARCIkUAir3s38uZ7h5vWMBctWqRlzpxZujfxigehSy9G8ggeJAJu9NVw9cdzVjgykIOAvwk8+uij0thgvHtH+29nqLV///5Sms8//7wtBDfyNmfEY6uwNSCVhSdHk8099NBDUh257UaOHOmLamKi0RfNgEIYBHhptvXm9vHHHxunU/6fb5pNmjRRGHXq1ClQbLx6ALZ+yRJGhjRh8CYsq/Pnz+srRPkLEZz/CXjVj6IlYb1/Qf9ZtOQQDgSiJ5DI696NvN20hvnFF19owpiM9MyQI0cObdu2bdEDR8hAEnCjr9qBwHOWHRXIQCAYBKwfCazv4Gn5hXFKpaK8Wt4cj1fs2zk38jbnw+ocWE+kUZY777zTfDppjufPnx+qo1FXVrfmB4eJRj+0AsqgE2CdCcYFYvxny5YNX90t/YO3/ApLyQorVm7LepiC4OrXry+VP9yy+njq8s0332hZs2YN5SMscGnCyljEJI0H89tuuy1iOJz0BwE3+9GhQ4c0Ydlb/z3wwANRrRrOmTNnqL/xPUxYU/cHKJQCBJKIgJvXfVqYnM6bt5zyKnvjmYfVowiLkWkVI6rzvL2NdT0aafM/P1MtXLgwqvgIFGwCTvdVOxp4zrKjAhkIpDaBW2+9NTTu8Gr63377LWFAeAfbwYMH9d+pU6cSVg43M2ajpladmjzBun//fjezjSptTDRGhQmBvCAwYsSI0I3JeDBmK8FwKgG+WbLVaYOT8c8Kbzdu3KhG8JkkHoti0Vgz45WJ5pe3LFmy6DpIImH46KOPQjzR7yKR8s85N/uRVediWoZdeOWQcR0a/3ih909fQUmSh4Cb131alOLJ2y5tN6xh8gfHrl27KvcjnnT8/PPP7YoBWRISiKev4jkrCTsEqgQCHhDYu3evtIrQjYUkHlQjcFnYGYyNxQiPWxXGRKNbZJFuzATsVumxTkI4ewJs/YtXWhmTGsY/fz3ilVis3NePLl6LYtFYMxsyZIjChQ3C2P1atWql1axZU2NLZAbDNm3a+BEdymQi4HY/sk40lihRIuzXwePHj2sVK1YM9R/uR2xBNloLfaZq4RAEQCACAbev+whZa/HmbU3baWuYvNuBdWGxAT1jLDP+2eL0li1brEWAP0kJxNtX8ZyVpB0D1QIBFwnwCv1mzZqFxp9rrrlG44UfcO4TGDRoUIi7Me7zqvZEuwxcAFEgOBBIKAGxvJeuuOIKnviWyrF582YSX2UlGTwygRUrVpCwbkti67l8Qvj69u1Lo0aNUuReCQ4cOEDctidOnCA+Fqst6Y033qBjx44pRRDK8Kldu3Yk9ChSgQIFSOiVIqHEl4Q1LSms+DpG4mUqJGP/8OHDQ36x5ZVKly5NYtVnSBbrgVgNQtOmTYs1GsK7RCAR/UjoMCNhMEGqkZhsJGG9lerVq0eXXnqp3qe/+uoreu6550hszwiFzZcvH4ktZcTh4UAABNJHIBHXvVFSN/I20jb+hRJ9Eh8LDS8Ja5gkVk6H/LEc8P1KfKwlYeBFiibUh1CfPn1IWAHVx1TpJDxJQcCNvornrKToGqgECHhKQBiBCb1zVqtWjYRuRhIfvjwtQ6pmJqyAU+3ataXqi4VHJOwSUN68eSW5p55Ez3QifxBgAhMnTlRm4osUKQI4URLglVNjx47VeNWCuIGEfi+++GKUKbgTzA2LYmlZM7P7qmNmEs0x5wHnHwKJ6EfWFY3R9BsOw5amN2zY4B94KAkIBJRAIq57A5UbeRtp87/T1jDFxzyNVYQY9ynWxSg+3KWpl9hcJhwHk4AbfRXPWcHsCyg1CCSSgPjoro9BrNqLxyQ47wiw4RurTmZ+HmBjXYl02DqdSPrIO0Sgbt26oQdk40G5Y8eOofM4iI4Av7ysXr1a189UvHhxbffu3dFFdCmUGxbF0rJm1rt3b6UvGX0q2n+xCtQlIkg2PQQS0Y/4WuIJw5EjR2oNGjRQLLea+1KePHm0W265Rfvwww/TUz3EAQEQsCGQiOveKIYbeRtp878b1jDvuecejZ+lZsyYobE6B7jUIOBGX8VzVmr0HdQSBJwm8P777+vjm9PpIr20CbRs2VJ5/73rrrvSjuhiCGydFm+LcIklIPQKUaFChUjodpAK8uabb1L79u0lGTwgICxCk1Bor4PgZeG8NZv7DxwIxEIg1n4kxmHie5WwXqf/hIU3fVt/qVKlSEw0xpI1woIACCSIQKzXvZvFPHLkCAk9jXoWuXLl0tUxuJkf0gaBaAn46TqJtswIBwIgAAKpTIBVfj3yyCMSAlZDxqqdWN1TIhwmGhNBHXlKBMSyXnrwwQclmTDLTr/99hsVLFhQksOT2gT27dtHYnt4SJenVT9jatNB7aMlgH4ULSmEA4HkIYDrPnnaEjVxjwCuE/fYImUQAAEQcIuA2MWo2yiwpr9gwQIShk+tYk/8mGj0BDMyiUSgefPmtHjxYinItddeS5s2bZJk8KQ2AbGVlVq0aBHqK8KamW5cRuilSm0wqH1MBNCPYsKFwCCQFARw3SdFM6ISLhPAdeIyYCQPAiAAAi4SKFu2LO3atUvKgXeH8i7RRDhMNCaCOvIMEWDLwGxh+Ny5cyEZH7DlqhEjRkgyeFKbAPcJw4I2rJmldl+Ip/boR/HQQ1wQCCYBXPfBbDeU2lsCuE685Y3cQAAEQMBJAo899hhNmTJFSlIYidG3T19yySWS3AsPJhq9oIw8whJ49913SSgwV86vXLmShFJzRQ5B6hJ4/vnnibdKC2tmNH/+fGKdVnAgECsB9KNYiSE8CASfAK774LchauA+AVwn7jNGDiAAAiDgFoFFixaRMACjJL9s2TK6/fbbFbnbAkw0uk0Y6Uck8Pjjj9PkyZOlMKyw9OjRo4QtsRIWeASBDz74gJo2bUpsBAYOBNJLAP0oveQQDwSCSwDXfXDbDiX3jgCuE+9YIycQAAEQcJLAyZMnKV++fHThwgUpWV6tnoidopholJoBHq8JVK1albZs2SJl26RJE/rwww8lGTwgAAIgAAIgAAIgAAIgAAIgAAIgAAIgAAIqgTp16tDq1aulE7Vq1aI1a9ZIMi88mGj0gjLysCXw559/6rPumqZJ50ePHk19+vSRZPCAAAiAAAiAAAiAAAiAAAiAAAiAAAiAAAioBAYNGkTDhg2TTvAu0ePHj1O2bNkkudseTDS6TRjphyXAqxabNWumnF+1ahXddtttihwCEAABEAABEAABEAABEAABEAABEAABEAABmcDixYupefPmslD4PvvsM7r11lsVuZsCTDS6SRdpRyTQt29feuGFF6QwGTJkoGPHjtFll10myeEBARAAARAAARAAARAAARAAARAAARAAARBQCRw8eJCKFi2qnOBVjk8//bQid1OAiUY36SLtiARuvvlmWrdunRSmQoUKtH37dkkGDwiAAAiAAAiAAAiAAAiAAAiAAAiAAAiAQHgCxYoVowMHDkgBGjZsSJ988okkc9uDiUa3CSN9WwJnzpyh3LlzK1aROnToQLNnz7aNAyEIgAAIgAAIgAAIgAAIgAAIgAAIgAAIgIBKoEWLFrRw4ULpRM6cOfVdo5kyZZLkbnow0egmXaQdlsDKlSupfv36yvnx48dT9+7dFTkEIAACIAACIAACIAACIAACIAACIAACIAAC9gSGDx9OzzzzjHLy66+/pho1aihytwSYaHSLLNKNSODZZ5+lIUOGKGHWrl1LNWvWVOQQgAAIgAAIgAAIgAAIgAAIgAAIgAAIgAAI2BP4+OOPqVGjRsrJsWPHUq9evRS5WwJMNLpFFulGJNCgQQP69NNPpTC8lPfEiROUI0cOSQ4PCIAACIAACIAACIAACIAACIAACIAACIBAeAJHjhyhAgUKKAF4S/X777+vyN0SYKLRLbJINyyBCxcu6PoZWU+j2VWpUoU2b95sFuEYBEAABEAABEAABEAABEAABEAABEAABEAgCgIlS5akPXv2SCHz589Phw4dogwZMkhytzyYaHSLLNINS2D9+vV00003KecfeughmjFjhiKHAARAAARAAARAAARAAARAAARAAARAAARAIDKBNm3a0Pz585VA33//PVWqVEmRuyHARKMbVJFmRAIvvPAC9e3bVwkzZcoUeuSRRxQ5BCAAAiAAAiAAAiAAAiAAAiAAAiAAAiAAApEJjB49mvr166cEmjZtGnXt2lWRuyHARKMbVJFmRALNmzenxYsXK2G8toSkFAACEAABEAABEAABEAABEAABEAABEAABEAgogZUrV1L9+vWV0t933300Z84cRe6GABONblBFmmEJaJpG+fLloz///FMKkyVLFjp58iTxPxwIgAAIgAAIgAAIgAAIgAAIgAAIgAAIgEBsBI4fP0558uQhnnsxuxIlStC+ffvMIteOMdHoGlokbEdg27ZtdPXVVyunqlevThs2bFDkEIAACIAACIAACIAACIAACIAACIAACIAACERHoHz58rRz504lME808oSj2w4TjW4TRvoSgXnz5lHbtm0lGXsefvhhmjp1qiKHAARAAAQSRYBXXm/evJm2bt1KFy9epIIFC1KxYsXohhtuoOzZsyeqWMgXBEAABEAABCISwPgVEQ9OggAIgEDSE2jfvj3NnTtXqefSpUupUaNGitxpASYanSaK9CISGDx4MA0dOlQJ8+qrr1KnTp0UOQQgAAIg4CUBnlgcNmwYsc7YcFsLsmbNSjVr1qTOnTsTW3XLnDmzl0VEXiAAAiAAAiCgEMD4pSCBAARAAARSlsCLL75IvXr1Uuo/ZswY6t27tyJ3WoCJRqeJIr2IBFq3bk0LFixQwqxdu1Z/cVdOQAACIAACHhHggbd///70999/R53jlVdeSfwB5cEHH4w6DgKCAAiAAAiAgJMEMH45SRNpgQAIgEDwCSxbtozuvPNOpSL8zjJz5kxF7rQAE41OE0V6EQmwfkbW02h1hw4dogIFCljF8IMACICAJwR4awFvMTC7woULU/fu3alcuXJ05MgRXY/s66+/Tn/99Zc5mH5cr149mj59OpUuXVo5BwEIgAAIgAAIuEUA45dbZJEuCIBAegiwAZIMGTKkJyriOEhg9+7dtu8lN954I61bt87BnOyTwkSjPRdIXSBw4cIFuvTSS4n/ze7yyy+nY8eOmUU4BgEQAAHPCPAKxrJly9LPP/8cyrNMmTL69uncuXOHZHzw448/6moeVq9eLcnZwxOTBw8eVOQQgAAIgAAIgIAbBDB+uUEVaYIACERL4PDhw7oewIULF9KePXvo119/1XcGFSpUiIoWLarrNecP+axyCM5bAjw+sE5569zLZZddRmyV2m2HiUa3CSP9EAFYnA6hwAEIgICPCGzfvp0qVaoklYhXiLRr106SGZ4TJ07QzTffrKzOvummm+irr74yguEfBEAABEAABFwlgPHLVbxIHARAIAwBNpL47LPP0siRI3WDiWGChcTXXnstvfnmm8rzdigADlwhkEjL05hodKVJkagdAdbNyDoare7ee++lt956yyqGHwRAAAQ8IcDW15o0aSLlxV9mmzdvLsnMnl27dukPS+avhN26daMJEyaYg+EYBEAABEAABFwjgPHLNbRIGARAIAwBVifUuHFjfeePNUiOHDno/PnztvrOs2XLpusGDPch35oW/PETaNq0KS1ZskRJ6OOPP6Y77rhDkTspwESjkzSRVkQC/NVjyJAhSphnnnnG1hK1EhACEAABEHCBAG+DrlOnjpTy448/ThMnTpRkVk+HDh1ozpw5ITF/qbXqeQydxAEIgAAIgAAIOEwA45fDQJEcCIBARAKsp7x+/fq0Zs0aKRzLxo0bR1WqVKGzZ8/S8uXLqUuXLsR2GMwuS5YstHLlSqpVq5ZZjGOXCPTo0cN2EQS3Vc+ePV3K9T/JYqLRVbxI3Eygbdu2NG/ePLNIP2bjCh07dlTkEIAACICAFwT4yyzrkvnnn39C2WXOnFn/UlutWrWQzHqwYcMGXfeMId+5cyexbkc4EAABEAABEPCCAMYvLygjDxAAAYPAww8/TC+//LLh1f+bNWtGH3zwAWXMmFGSs75G1s24b98+Sc7P3Dt27CCrHnQpEDyOEJg8eTLx4gmr69SpE7366qtWsaN+TDQ6ihOJRSJQuXJl2rp1qxLkyy+/1PWdKScgAAEQAAGPCNx11120aNEiKbfq1asT35/46yscCIAACIAACPiRAMYvP7YKygQCyUeA3+OrVq0qfZjPnz8/sXXjXLly2VZ4/vz51KZNG+Uc73IcPHiwIofAWQLLli2jO++8U0mUdc3zO46bDhONbtJF2iECrDCWLU7zcmur4yXVBQoUsIrhBwEQAAHPCKxfv17/6mpe1ciZ85fbqVOnelYOZAQCIAACIAACsRDA+BULLYQFARBIL4GWLVvqKxfN8Z977jkaMGCAWaQc8zZp66RWnjx5dCvVbAEZzj0CPAlcunRpJYPLL7+cjh07psidFGCi0UmaSCssAV4eXbFiReW8F51cyRQCEAABELAh0Lt3b12/jPXUtGnTqGvXrlYx/CAAAiAAAiDgCwIYv3zRDCgECCQtAbsJqwwZMtCBAweocOHCEes9adIkeuKJJ5QwUJ+mIHFc8Pfff1P27NnJbLzSyGT//v1UrFgxw+v4PyYaHUeKBO0IvPfee9SqVSvlVI0aNWwtVikBIQABEAABlwmw8uratWvTpk2bpJxYX+Mnn3xCdevWleTwgAAIgAAIgIAfCGD88kMroAwgkLwExo4dS08++aRUwWuvvVZ5ZpYC/Nfz888/U6lSpZRT9957L7311luKHAJnCZQvX55Yj7zV8btNw4YNrWLH/JhodAwlEopEYNiwYTRo0CAlCG4wChIIQAAEEkiAv+7x6utTp05JpcibNy9t3LiRrrrqKkkODwiAAAiAAAj4gQDGLz+0AsoAAslJwG77c69evYgnIKNxlSpVou3bt0tB+dmaVahlypRJksPjLIGmTZvSkiVLlETHjx9P3bt3V+ROCTDR6BRJpBORQLt27ejtt99WwjzzzDM0dOhQRQ4BCIAACHhN4OjRo8QfRXjgtXP85Xbt2rX6FgS785CBAAiAAAiAQCIIYPxKBHXkCQKpQYB1+fGkoKZpUoXZajFbL47GtW/fnubOnasE3bZtm616NSUgBOkm0LNnT9t3my5dutD06dPTnW5aETHRmBYhnHeEAFuo2rJli5LWG2+8Qffff78ihwAEQAAEvCJw/vx5mjhxIrFC67QUI3fs2JFYpwwcCIAACIAACCSaAMavRLcA8geB5CfAH9lZtZDVrVmzhnilYzSOdzbyx3yrW7hwITVv3twqht9BApMnT6bHH39cSZHbjtvQLYeJRrfIIl2JABt9OXHihCRjD1ugYvPqcCAAAiCQCAILFiygPn366JbvzPnffvvttHfvXvrhhx/MYv2Y49jpnFUCQgACIAACIAACLhHA+OUSWCQLAiAgEeBVb3ZGEX/66Sdb3YtS5P96+CP9Aw88oJwaM2YMsTErOPcIsC7GO+64Q8mADcGwyg23HCYa3SKLdEMEzpw5Q5deemnIbz44fPgw5c+f3yzCMQiAAAh4QuDFF18k1i9jdnw/4q3TvMWD70/VqlXTLeqZwxQoUEDXM5MvXz6zGMcgAAIgAAIg4AkBjF+eYEYmIAACgkCPHj1owoQJCgvWr8jPxNE4Xjl3yy23KEEffvhhmjp1qiKHwDkCdhbDOXU2dvnXX38RWw93w2Gi0Q2qSFMiEK5zZ82alc6dOyeFhQcEQAAEvCAwevRo6tevn5QVbyHgLRzmCcRPP/2UGjRoIIVjD+uWZR2zcCAAAiAAAiDgJQGMX17SRl4gAAK8tXnx4sUKCF5MlD17dkVuJwhnebpt27a2dhzs0oAsfQRYxUa2bNlsI8cyWWybQAQhJhojwMEpZwiE0+vg9nJdZ0qPVEAABJKNAOtifPrpp6VqFS9eXLcqXbBgQUnOnrp169Jnn30myfn+tWfPHv1roHQCHhAAARAAARBwiQDGL5fAIlkQAIGwBOrVq0erVq2SzrOl6IsXL0qySJ7ff/+dChcurARp1qwZLVq0SJFD4CyBcGrsNm/eTFWqVHE2s/+mholGV7AiUTMB1iHTunVrs0g/ZguumzZtUuQQgAAIgIBbBMaNG6foguGvfLylo3r16rbZrly5kurXr6+cmz9/Pt1zzz2KHAIQAAEQAAEQcJoAxi+niSI9EACBaAhcf/31tGHDBikoT1ylZUDRHIFtNXAcq+NJTN49BOcu4yNk6wAAFZRJREFUgbJly9KuXbuUTJYtW0asl94Nh4lGN6giTYnApEmT6IknnpBk7OFOzZ0bDgRAAAS8IMA6F0uVKkWnTp2Ssps9ezZ16NBBklk9RYoUod9++00SN2rUiJYuXSrJ4AEBEAABEAgOgc8//1w3CJbIEjds2JB4pWIkh/ErEh2cAwEQcJNAxYoVaceOHVIWRYsWpV9//VWSRfJcuHCBsmTJogS58cYbad26dYocAmcJ1KxZk7766isl0VmzZtG//vUvRe6EABONTlBEGhEJDBw4kJ5//nklDL/Y8ws+HAiAAAh4QeDJJ5+ksWPHSlmx1fsvv/xSktl57r33XnrnnXekUyVLliTWQQsHAiAAAiAQTALhLKF6WZtoPlph/PKyRZAXCICAmcAVV1xBv/zyi1lEOXPmpJMnT0qytDxsfOTvv/+WgtWoUYO+/vprSQaP8wRatGih66G3pjxixAjq37+/VeyIHxONjmBEIpEIPPTQQ/Taa68pQdjaq/WlXwkEAQiAAAg4QODgwYNUunRpOnv2rJRaNKsZOcLEiROpW7duUtxLLrmEWMFyWtba/vnnH/1r7bZt23S9jqzb8cCBA5QxY0a68sor6ZprrqE6deqE3botZeqAh8vD9eaVPE2bNqW7777bgVSRBAiAAAgEj0AQJhoTNX5h7Apef0aJQcANAiVKlKD9+/dLSfPk4969eyVZWp4cOXIoz+H8/MvPo3DuEujSpQu9+uqrSibdu3en8ePHK3JHBBocCLhMQHyp1URnVX5iBt3lnJE8CIAACPyHwGOPPabcgwoUKKCJicKoEAlds0p8vq+JCUPb+EJBtiZ0zmiPPPKIJpRf28a13heFVT9t69attuk5Jfzoo480ofQ5VB4uHxwIgAAIpCoBsW0sdD+03pO98vNzciTn5fiFsStSS+AcCKQmgXLlyin3yUKFCsUMQ3ygV9JJ6/4XcyaIYEtgwIABCnse49q0aWMb3gkhVjQKwnDuEmCjL99++62SyYwZM4hXO8KBAAiAgNsEcufOTcePH5eyeeqpp2zVOkiB/utha3ussNrq1q9fTzfccINVrK9U3LdvnyJn69bly5eno0ePEq9w5BWRZpcrVy5iC3C8LdtJx4a3+vbtqyjc7tmzJ7GBATgQAAEQSEUCfC/+4osvElp11h0cyeqnl+MXr7LH2JXQ7oDMQcB3BOze5fPkyaM/y0ZbWDFxpe/ksYZno4psXBHOXQK8apGf+a3O1RWlTsxWIg0QiEQg3GoeYco+UjScAwEQAAFHCAgjLrZf8bZs2RJ1+mJbh20aQoG1bRpCd40UXjyQaXPnztXEVrRQeLEdTmvcuLEUTjwAaLVr1w6FifdAbNPW2rdvr4nt3Uo+nJeYfIw3C8QHARAAARBwiYDX4xfGLpcaEsmCQIAJCEMiyjOk0LcoPdOmVT2hukhJg59DhSGStKLivAME5syZY8tfWKN2IHX7JLCi0TqtC7+jBFjhK1uYYj0vVscWptjSFBwIgAAIuElg9erVug5Eax6nT58m1hcTjXvvvfeoVatWSlC2uMeW96yOVyYa1q2zZs2qrySsVauWNRj99ddfdPXVV9OuXbukc6wLp1ixYpIsFg+v3mQjXC+99BKdO3cubFSxlSJNa6dhI+MECIAACICAqwS8Hr8wdrnanEgcBAJJ4M4776Rly5YpZT9y5Ajly5dPkdsJWDe53XMtnkPtaDkvW7FiBTVs2FBJOD1GfZREwgns5x8hBQFnCLD+MtH3bH8//fSTM5kgFRAAARCIQOCVV15R7kEFCxaMEEM9NXnyZCUN1jUjPqaogYXEvCqkR48etmEM4dSpU5W0xQOdcTrmf145KR78pDQrVqyoCcvZysrGp59+Oub0EQEEQAAEQMAbAl6PXxi7vGlX5AICQSLw73//W3qmNN7thQqgqKshVPjYpsF6cuHcJyDU2Nny57YUCyNcKQC5kioSBYH/Egh3U+FOffLkSXACARAAAdcJ9OnTRxlchV7FmPK97777lDSErsWwaQhdKNqwYcP0H2+RjuSEfjAlbaHDNlKUiOdGjhwZSq9ChQra8uXLQ+ErV64cOsf34WeeeSZ0DgcgAAIgAAL+IuD1+IWxy1/tj9KAgB8IjB49Wnp2NCYazc+XaZVz6dKltml8+eWXaUXFeQcIRFr89eOPPzqQg5oEJhpVJpA4SGDJkiW2N5Xs2bM7mAuSAgEQAIHwBHgln/FQZPyLbdDhI1jOsF5FtlBtxDX+Bw4caAmZPq+d/ke2cp1exx9xeBKUJxzF1mwpmdtvv12qByYaJTzwgAAIgICvCPh5/MLY5auugsKAgGsE3n//fenZ0XgO5g8T0bqJEyfapvHHH39EmwTCxUGA3wfC6WvnBQ9uOEw0ukEVaYYIvPrqq7Y3lSuuuCIUBgcgAAIg4CaBLl26KPeh5s2bR52l3csUP2T98MMPUacRKaDdtuzt27dHipLuc5hoTDc6RAQBEAABzwn4efzC2OV5d0CGIJAQAkKPuPIczc/BnTt3jro8dveyqlWrRh0fAeMnwIYpjUli8/+8efPiT9wmBUw02kCByDkCw4cPt+3QNWrUcC4TpAQCIAACEQgMGTJEuQ9VqVIlQgz5VP369ZX4bIHPCcc6Hnl7s3nAd/PBCxONTrQa0gABEAABbwj4dfzC2OVN+yMXEPALgVKlSknPqvzcGsuz9PXXX6/Ef+qpp/xSvZQoR7ly5ZQ24HacMGGCK/X37URjOAX7rlBAoq4RsNMtwx26UaNGruWJhEEABEDATODdd99VBlZW33D48GFzMNtj1j9jngTk48yZM2sbN260DR+r0G7VdzyGYNLKHxONaRHCeRAAARDwDwG/jl8Yu/zTR1ASEPCCwCOPPKI8D/Mz8d69e9PM/vfff9cyZsyoxF+9enWacRHAOQK1a9dW2oDbcOjQoc5lYkopAx+LDBLmOPtPPvmEhC4/2rNnD4nOqv8LHVMkttdSpUqVQj82rV60aNGElRUZx06gW7duJHQyKBE7dOhAs2fPVuQQgAAIgIDTBM6fP0+FCxemY8eOSUn37NmTxo0bJ8nMnp07d5JYuUhCf4xZTIMGDaJnn31WkqXHIyzA6emfPXs2FL1v3740atSokN/pgzvuuEMfc410hY5GEg8Yhhf/IAACIAACPiLgx/ELY5ePOkgKF+W5556jNWvWSASEDjoSxvSoSJEiktzw8DPWd999Z3j1f/HxmObOnUu5cuWS5Ibn4Ycf1ucnDD//i4/VNH/+fMqUKZNZnNTH4sM7iY/VSh1ffPFF6tGjhyI3C1555RUSlqvNIrrmmmtoy5YtxG0G5w2Bu+66ixYtWqRkNmDAAOLryXFnmnT09JBntkeMGKGVLFnSdmZVVFSRX3bZZRp/QYMLDgE7fQzctrHodAhObVFSEAABvxJgoyfWcSVLliza1KlTbYvMKxlZl6w1Tt26dRUDK7YJpCE8cuSIZt2Gwnoj3V7NjxWNaTQMToMACICAzwj4afzC2OWzzpHCxbFTa8PPbJs2bQpLhVXTWJ/r2P/LL7+EjSMWOdnGER+Jw8ZJ1hPXXnutwqJYsWJaJBYXL15UVAQx87fffjtZMfm2Xm3atFHaj9uiV69erpQ5IVun33nnHY0nDe0u9Ghk/KK0b98+V4AgUWcJ3H///bbt/NhjjzmbEVIDARAAgQgE+EGnTp06tvejW265RRs8eLA2a9YsbfTo0Vrjxo1tw3Xq1MmRScbjx49rrKfWPN6xzsfTp09HqIEzpzDR6AxHpAICIAACXhHwy/iFscurFkc+0RDARGM0lJwNs2DBAunZ1XiO7d+/f9iMxM4hJQ7rdnT7w3rYAqXwiY4dOyptwW346KOPukLF04lGnu0Wy49tK5gjRw7t6aef1latWqUdPXpU48Hss88+08TWW9vw/EUCHdSVPuFooq1bt7ZtP7dmzh0tPBIDARBIKgI8rjzwwAO29yTjYcnuP2/evI4pSubJRKuOFFaQzWXzwmGi0QvKyAMEQAAEnCWQ6PELY5ez7YnU4ieAicb4GaYnhXDv9rxTlT+KmJ3Yxq7oZrz88ss1oZrIHAzHHhEIt9P0oYcecqUEnk00Ct1Y2nXXXWf7gteqVauIikTfeOMNjbe4WV8Ap0+f7goUJOocgWbNmintxu0IK1POMUZKIAACsREQeoG1du3aaTlz5rS9PxljjdARrE2bNs2xlYbnzp3TGjZsKOXJ4yJ/XPPKYaLRK9LIBwRAAAScJ5CI8Qtjl/PtiBTjJ4CJxvgZpieFU6dO6damjWdl83+FChW07t27a08++aRmZ2Wa53OWLl2anmwRxwECjz/+uPQOYrTdfffd50DqahKeGIP5559/qGnTpvTRRx+J+shOLLUlMQMuC218osPS2LFjpTMFCxakH3/8kcQ2bEkOj38IiJdqWrFihVIgNqTABhXgQAAEQCBRBMTLE23fvp2EzmD9d+bMGV2BuNAdTFdddRWJr66OFU185aV77rmHFi5cGEpTTDLq98c8efKEZG4fwBiM24SRPgiAAAi4T8Cr8Qtjl/ttiRzSR6BBgwb06aefKpGFjkYSugQVOQuqVatGmzdvVs4JHY1UvHhxRc4CoYOQDhw4oJxjQ37ZsmVT5KkgECusiY3kCD2LUVe3bNmyenh+9oVLDAG7+TQuyd13303vvvuu84VS5x6dl/Tu3dt29pTNpEfrdu/erSy9FTS0IUOGRJsEwiWAgHWLILcZ/0aOHJmA0iBLEAABEPCeAKv54K+Fxv2P/8XDriasWXteGKxo9Bw5MgQBEACBQBLA2BXIZkuZQgsLutJzFT9bCQvG2o4dO8IyYH3Y5mcxPhZWp7VDhw6FjVOuXDkljrA67YjO7rCZBuTE+++/rzVp0kRnaOVq+FndnbBMrZ08eTIgtUreYg4cOFDpy9xOrJveDef6isbZs2eTUDwp6iA70Slp8eLFMZk0t1sdxyslOR04fxIQy6Zpw4YNSuHEDYd69OihyCEAARAAgWQjIHTSEt/zDFe5cmVauXIl5c+f3xB59o8VjZ6hRkYgAAIgEGgCGLsC3XwoPAh4RkB8OCehd5F+/fVXfW6HV3vyCtErr7ySeJcQnD8IDBs2zHZHab169WxXB8dbalcnGk+cOEGlS5emI0eOSOUUhl9o27ZteueTTqThEZaKacqUKVIooQtA3/omCeHxDQF+od66datSHm5HsaJVkUMAAiAAAslE4PXXXydhgCZUpTJlytDatWuJVX/Yub/++ov4d8kll1DWrFntgsQlw0RjXPgQGQRAAARSggDGrpRoZlQSBEAghQiMHj2a+vXrp9RYrPTV302UE3EKXJ1oFMsz6fnnn1eK+Nxzz9GAAQMUeVoCTovTNDt+EWO9WhkzZjSLcewTAqyPYdeuXUppZs6cSQ8++KAihwAEQAAEkoXAt99+SzfddBOdP39er1LhwoX1gbxUqVJhq2hMBN522220atWqsOHSe8Kq04jH1OHDh6c3OcQDARAAARBIMgIYu5KsQVEdEAABEBAEJkyYYLujlPVmbty40XlGbuzH5jTF0llNrFxU9oGL1RyaeOlKV7biZUhJTxDR9uzZk670EMl9AmLZtG2bzZkzx/3MkQMIgAAIJIgAj3NiRXfo/seW9tavXx+xNMJgWig8W6e2c2Irm66DiPUQ8Y/148TiqlSpEsqDx88nnngilugICwIgAAIgkMQEMHYlceOiaiAAAilNYNq0adI7AL8H8K9ixYqucHFtRWPXrl1p+vTpouyymzx5Mj366KOyMEofxxVmuZXQn3/+OdWpU0eRQ5B4AgUKFFC2znOpFixYQK1atUp8AVECEAABEHCBwLPPPkvCWJmUsjAII/kND694PHjwIK1bt47++ecfXdymTRt65513jCCh/+7du9NLL70U8k+aNIlYrUg07vvvvyehlJuEgv9Q8EqVKhGvXuGt2nAgAAIgAAKpTQBjV2q3P2oPAiCQvARmzZplu6OU9WgKw8uOV9yViUZhVYgKFSpErAjU7HLlyqWbh8+ZM6dZHPXx4MGDaejQoUp41nfFe8vh/EeA2/zUqVNKwdiADxvygQMBEACBZCMgrBfq+ont7n3R1pU/1okvj0pwq0qScFufDxw4QPv37yfWlczHvCXijTfeoGPHjilpVq9endq1a0esP5I/Dglrirry7ty5cythIQABEAABEEhOAhi7krNdUSsQAAEQYAJvvfUW2S16KFKkiP6u4DQlVyYa33zzTbr//vuVsvKqC159kV7HxkPsXryEGXsqX758epNNSDx+AXVlL3wMtSlRogRF0hUWQ1Jhg/IqmYsXLyrnly9fTqwrDA4EQAAEko1AuI9isdSzf//+NGLECCXKU089RSNHjgzJWXcxy6zOzniaNUwkPxsC6NixY6QgOAcCIAACIJBEBDB2JVFjoiogAAIgYCHw3nvv2e4ozZMnDx09etQS2gGvGxuyGzdubLv/W2zbiiu7u+++2zbdw4cPx5VuIiKLlzjbuogm9UzeqFEjV6suJhjD1uWLL75wNW8kDgIgAAKJItC7d++w975o7/GjRo2yLX7nzp2ltJcsWWIbrmfPnlK4aPM1wr399tu26UIIAiAAAiCQnAQwdiVnu6JWIAACIMAE+J3BeM43/4udTK4AcnxF4x9//EG8/PLChQui/P9z5cqVox9++OF/gnQc1a5dWzG9LZTh63llypQpHSkmLgqvFnnggQcSVwCRs5hopKVLl7pWBl61yVun7Ry2u9tRgQwEQAAEIhNga9Ssl5hd5syZ9e3RrKoEDgRAAARAAAT8SgBjl19bBuUCARBIFQI879OkSROlujyfZuiIV07GIXB8onHGjBkkVlwoRWIF9uPHj1fk0QpYeX3evHl1fVPmOLz196effjKLAnGcChONu3btorJly9q2By/dbdmype05CEEABEAABFQC+/bto6uuuorEZ0f9ZDj9jGpMSEAABEAABEAgMQQwdiWGO3IFARAAATMBNtTMOuDtHC8Qu/TSS+1OpVvm+ERjp06daObMmUqBPv74Y7rjjjsUebSCTZs2ESust7rWrVvTvHnzrGLf+z/55JOoLYW6VRmxxZ0mTJjgVvL0448/Eq9ktXOLFi2iZs2a2Z2CDARAAARAwEKAvzS2aNGC2JAWu2uuuUbX85slSxZLSHhBAARAAARAwB8EMHb5ox1QChAAARDgOTqeq7NzbMw5vQab7dJjmeMTjZUrV6atW7dK+eXIkYN4S3W2bNkkeSwenhDr0aOHEoWV4vfr10+RQ5B4AphoTHwboAQgAALJQYCNwwi9jXplqlWrRkLPChUtWjQ5KodagAAIgAAIJCUBjF1J2ayoFAiAQAAJeD3R+P8AAAD//zHQURwAAEAASURBVO3dCdxM1f/A8a89ZStZsmRPIZEWJNFPyFYRpVVRiZQWISWVJBWhUEn8tCJLUtGiQmglspVdZCtUVJbnf7/3959p7pyZeWa5sz6f83rV3Pu95557zvs+z5jnzD3n5MqykriU/vjjDylatKgcO3bMUWLjxo3ls88+c8Qi3enQoYNMnz7dOO3DDz+UZs2aGXECyRfYu3evnHzyyQEr8sMPP0iNGjUCHiOIAAIIIOAUGDJkiAwYMEBatGghU6dOlcKFCzszsIcAAggggECKCfBvV4rdEKqDAAI5VmDp0qVSv379gO3/+++/JX/+/AGPRRvM5WZH46effipNmzY16nLHHXfI6NGjjXgkgZIlS8ru3bsdp+TLl8+OaecmKfUE6GhMvXtCjRBAIH0FZs6cKW3atJG8efOmbyOoOQIIIIBAjhLg364cdbtpLAIIpKhAWnc0Pvfcc9KrVy+D9qWXXpJu3boZ8XADq1atkpo1axrZmzdvLnPnzjXiBFJDgI7G1LgP1AIBBBBAAAEEEEAAAQQQQAABBHKmQFp3ND788MPy6KOPGndOG3XeeecZ8XADffv2lWHDhhnZx40bJ7fddpsRJ5AaAnQ0psZ9oBYIIIAAAggggAACCCCAAAIIIJAzBdK6o7FHjx4yduxY487t27fPnrvROBBG4J9//pHy5cvLrl27HLlz584t27dvl1KlSjnigXaOHj0qX3zxhaxbt042btwomzZtss/VIddadsWKFaV9+/b2a6DziUUnEKqjceXKlQGfUo3uSpyFAAIIIIAAAggggAACCCCAAAIIIOAvsGTJEmnQoIF/2N5P+TkaO3XqZE9S71v7PHnyyJEjR3xDEW2/9dZbcvXVVxvnXHTRRaJzQgZLuiDN559/LlOmTJFp06YZ8zv6n6cdl+3atZOnn35aqlSp4n/Y9f3ffvtNFixY4Hq5kRRYuXJlqVWrViSnRJRXO5hPPPHEgOd8++23Urdu3YDHCCKAAAIIIIAAAggggAACCCCAAAIIxC6gizM3adIkYEHaX6f9dm4mVxeDueSSS+Sjjz5y1E9XHfZfxMWRIZudiy++WObPn2/keuedd6Rt27ZG3BOoV6+eaGeWf9JORP3v119/FV35+NChQ44s+nTjokWLpEyZMo642zuTJk2SLl26uF1sROVdeuml8t5770V0TiSZ//rrLylYsGDAUxYvXhx01aOAJxBEAAEEEEAAAQQQQAABBBBAAAEEEIhIYN68edKiRQvjHF1k8vDhw0Y81oCrHY06/HjGjBmOOlWqVEk2bNjgiIW7o0OdTz/9dLFWxnacctZZZ8myZcscMf8dva4Okfak0qVLiy5Koyt2etLOnTvtxWumTp3qCdmv8e6A04vkhI5GvW/6pGigpJ3HwXrUA+UnhgACCCCAAAIIIIAAAggggAACCCAQmcDs2bPtEbz+ZxUqVEh+//13/3DM+652NN53333yzDPPOCqlQ2f16cFoUocOHWT69OnGqTqcWodph0q+HY3HH3+8LFy4MOBQXe29Peecc+T777/3FnfCCSeIDvvV3t14pZzQ0ah2xx13nOiYf//0wQcfBOxR98/HPgIIIIAAAggggAACCCCAAAIIIIBAdAI6nWDHjh2Nk2MdgWwU+P8BVzsadSEYXRDGPx08eDDoEFr/vJ79119/Xa699lrPrvdV5/X7+uuvgz4p58no29GoHaBPPfWU55DxOnr0aLnzzjsd8XjPIajzS2q9kpmaN28uQ4YMiWsVihUrJvv37zeuMWvWrIA96kZGAggggAACCCCAAAIIIIAAAggggAACUQm8+uqrcv311xvnlitXTrZu3WrEYw242tE4d+5cadmypVGnH3/8UapWrWrEgwV0NWldpEQXTPFN+nScdjLWrFnTNxxwe9SoUfLLL7/Yx+64446Qcy7qgjFXXXWVoxydv7FGjRqOGDuRC+iQdR2i7p/UPFCPun8+9hFAAAEEEEAAAQQQQAABBBBAAAEEohN4+eWXpVu3bsbJ2k+n/XVuJ1c7GnUuxkArNo8cOdJ4YjBUQ1q3bh1wkZLhw4fL3XffHerUqI4NGDDA8WSfDpnWpzDz5csXVXmc9K+ALq6zefPmfwP/v/Xf//43YI+6kZEAAggggAACCCCAAAIIIIAAAggggEBUAmPGjJGePXsa5+oDfitWrDDisQZc7WjUyuhiK3PmzHHUS3tJ165dm+1wZz2pX79+8uSTTzrO151WrVrJu+++K7ly5TKOxRLQlZHPPfdcWblypbcYXY1H5xAkxS6gi/novfdPujBPoB51/3zsI4AAAggggAACCCCAAAIIIIAAAghEJzBixAi55557jJO1L+zLL7804rEGXO9o1N7QOnXqyLFjxxx1GzdunNx2222OmO+OLhjSu3dv0Xz+SYdj62rWOnTa7aTzQOp8kJ5UoEABu0e3WrVqnhCvMQjoz8Ly5cuNEp577rmAPepGRgIIIIAAAggggAACCCCAAAIIIIAAAlEJPPHEE/LAAw8Y51544YXy+eefG/FYA653NGqFbrzxRtGhsf5JGzZ48GDHU4naIfnhhx/anYxr1qzxP8V+QlJXyNEOQDfTd999JwMHDrSfkvSUW6JECdEVrZs2beoJ8RqjQP369WXp0qVGKbo6eaAedSMjAQQQQAABBBBAAAEEEEAAAQQQQACBqAQGDRokjzzyiHHuJZdcIvPmzTPisQbi0tG4a9cue6GPQD2jJUuWlLPPPlv0icF9+/aJrr4caJUbfXpROwL79OkjOmdiLEk7Mzdu3CirVq2S1atXy2effeaYA1KHY3fo0EF0Dsjy5cvHcinO9RNo0qSJ7e0Xlscffzxgj7p/PvYRQAABBBBAAAEEEEAAAQQQQAABBKIT6N+/vwwdOtQ4uW3btvLOO+8Y8VgDcelo1EodPXrUfnrxscces7cjqah2TukQ6urVq0dyWtC8CxYskMaNGwc9ro+R6rDteAzNDnrRHHJAh73rauT+STuRA/Wo++djHwEEEEAAAQQQQAABBBBAAAEEEEAgOgEdTarzNPqnjh07ypQpU/zDMe/HraPRU7NFixaJLqW9ZMkS0aHRWVlZnkPGqzb+pptuEl35xs2UXUejXuuEE06Q++67T3QFalabdk//8ssvl1mzZhkF9u3bN2CPupGRAAIIIIAAAggggAACCCCAAAIIIIBAVAI9evSQsWPHGudef/31Aac9NDJGGIh7R6NvfXSotK5oowuw7Nmzx/eQvfJzPFa70Yv88ccf9jyQR44cke3bt9tDtXWVaR2L7t/xWbt2bTteqlQpR/3YiU7g6quvtue99D9bnyAN1KPun499BBBAINMF/vnnH8mfP3+mN5P2IYAAAggggAACCCCAQBIEunbtKhMmTDCufMstt8iLL75oxGMNJLSj0VPZYI1ct26dPXejJ1+8X3/44QfRseqzZ892XKp58+bywQcfOBatcWRgJ2yBLl26yKRJk4z83bt3D9ijbmQkgAACCGSgwF9//WX/+zN58mTZu3evnHrqqfa+vjeSEEAAAQQQQAABBBBAAAG3BK677jp57bXXjOJ69eolo0aNMuKxBpLS0aiTTV522WVG3XXYsq5Knch0+PBhueiii2Tx4sWOy+o4dR2vTopNQP9ofuGFF4xCdIh8oB51IyMBBBBAIAMF7rzzThk9erTRsjfffFOuuuoqI04AAQQQQAABBBBAAIFUE2BkTqrdkcD10b6tadOmGQd18eVhw4YZ8VgDSeloPHTokOjq0zqk2TcVK1ZMNm3aJEWLFvUNe7fXrl3r2gIx3kKtDV2NumbNmr4hiVfPruMiOWDn7rvvlmeffdZoqf4hrX9QkxBAAIGcJqCLpem8wH///bfRdP3i69NPPzXiBBBAAAEEEEAAAQQQSAUBRuakwl2IrA6tWrWS999/3zjpoYcekkcffdSIxxpISkejVjrYk246lHnIkCFGu8aMGSM9e/aUfv36ia4S7WbSeRq1k/PAgQPeYi+44AJZuHChd5+N6ASCLaN+8cUXy8cffxxdoZyFAAIIpLHA5s2bpWLFigFbUK5cOXse4YAHCSKAAAIIIIAAAgggkGQBRuYk+QZEcflzzz1Xvv76a+NM7XvTPhu3U9I6GpctWyZ169Y12pM7d255/fXXvUPHfvvtNxk0aJBj3LguGqNQbiZ9olGfbPQk7fGdM2eOZ5fXKAWeeeYZezVv/9N1ZfEVK1b4h9lHAAEEMl5An+YvUqSIsRiZNrxOnTry3XffZbwBDUQAAQQQQAABBBBIPwFG5qTfPdMaV6hQQbZs2WJUXheC0QVh3E5J62jUhlxxxRUyc+bMgG06//zz7T/CvvnmG9EfZk+69dZbZdy4cSEXatm9e7c99FnPKViwoIwfP17y5MnjKSLga+HChR1DueP1CGnAi2dwUDuNdZVx/6Srev/yyy/+YfYRQACBHCHQuHFjWbBggdHWeDy1b1yEAAIIIIAAAgggkOEC+jnrlVdesUeKVK1aVXr06CFnnnlmhrc6/s1jZE78jeNxheOPP150CkP/pAsjt2nTxj8c835SOxr1h1SfJPzzzz/DaojO9zd8+PBs8/rPuZjdwi76JqR/9PmmWbNmSbt27XxDbEchMH/+fNFh0v5JO351IZ5cuXL5H2IfAQQQyHgBnXO4bdu28uOPP3rb2qxZM/vLN52/kYQAAggggAACCCAQncD06dPthV2PHTvmLaBAgQLy2WefiT7QRIpegJE50dsl60y9Z/pgXaCkw6nr1asX6FBMsaR2NGrN9Ze9devWITsbS5QoYT/F2L59+7Aa69/RWL58eXtV6bJlyxrn67yM9evXl9WrV3uPNWjQwK5Xvnz5vDE2ohNQ1xo1agQ8ec+ePVK8ePGAxwgigAACmS6g3youWbLEfmpfF0E755xz+PIl02867UMAAQSSJMDKsEmC57JJEdAnGNevX29cW7/U/fDDD404gcgEGJkTmVeyc2/cuFEqV64csBrbtm2TQP1kATNHEEx6R6PW9aeffrKX1H7vvfdkx44dot886BMdZ5xxhj3s9oYbbpCTTjop7Gb5dzTqidrZqJNc6tN1Wvb27dvtzsfHH39cdKi1J2nHl86PpflJsQvs27dPTjzxxIAF6X3Se0xCAAEEEEAAAQQQQAABdwVYGdZdT0pLD4FQT2/pA0y7du1Kj4akcC0ZmZPCNydA1ZYuXWo/XOd/SEeX6pdQefPm9T8U835KdDT6tkKH0x48eFD06Y5oU6COxnDK0pWmR44cGZdHR8O5fqbm0Xky9YOOf/r000/loosu8g+zjwACCCCAAAIIIIAAAjEKsDJsjICcnpYC2pdQqFChgIvulS5d2n6wKS0blmKVZmROit2QENV599137Smb/LPEs+M95Toa/RsfzX5WVpZ8++238tFHH9n/LVq0KODEl1q2Pm2nKyD37dvXHsIdzfU4J7RApUqVZNOmTUamqVOnypVXXmnECSCAAAIIIIAAAggggED0AqwMG70dZ6a/gK4DoQ8f+Sedsk07XUgI5CSBCRMmSNeuXY0m165dW5YvX27E3QhkZEejP4x2PO7du9f+9kKHZutCJMWKFbPHqQcb1utfBvvRCzRs2NAepu5fwvPPP2+v/uUfZx8BBBBAAAEEEEAAAQSiF2Bl2OjtODP9BebNm2c/waXDQj2pSJEisnDhQlae9oDwmmMEhg4dak8j6N/gFi1ayAcffOAfdmU/R3Q0uiJFIVEL6CI+M2bMMM4fNGiQPPzww0acAAIIIIAAAggggAACCEQvwMqw0dtxZmYIfP/99/Lqq6/ac9DpUOpu3bpJxYoVM6NxtAKBCATuvfdeGT58uHHGjTfeKBMnTjTibgToaHRDkTJCCvTs2VPGjBlj5OnRo4foU40kBBBAICcL6FP3OhkzCQEEEEAAATcFWBnWTU3KQgABBNJT4Prrr7c73f1r369fP3niiSf8w67s09HoCiOFhBIYPHiwPPTQQ0aWjh07ypQpU4w4AQQQQCDTBXQoz8CBA2Xy5Mn2tB5Vq1a1hzTcdNNNmd502ocAAgggkCABVoZNEDSXQQABBFJYoGXLljJ37lyjhroQsi4aFo9ER2M8VCnTITB+/Hi55ZZbHDHd0RWndeVpEgIIIJDTBO655x4ZMWKE0exp06ZJhw4djDgBBBBAAAEEohFgZdho1DgnpwkwuiT6O45d9HaJOvPss8+W7777zrjcW2+9JZ06dTLibgToaHRDkTJCCsyZM0fatGlj5KlRo4b88MMPRpwAAgggkMkCuhKozhX0119/Gc1s0qSJzJ8/34gTQAABBBBAAAEEEHBXQKfx0rnrNm7cKOXKlbNX5h0wYIDkzZvX3QtlWGmMzEmvG1q+fHnZtm2bUenPP/9cLrzwQiPuRoCORjcUKSOkwDfffCPnnHOOkefkk0+W3bt3G3ECCCCAQCYLbNmyRSpUqBCwifohd+vWrQGPEUQAAQQQQAABBBBwR+CVV16Rm2++2SiMBUsNEiPAyByDJKUDxx13nPz9999GHdetWyfVqlUz4m4E6Gh0Q5EyQgps375dypYta+TJnTu3vQpYnjx5jGMEEEAAgUwVCLUS6FlnnSXLli3L1KbTLgQQQAABBBBAICUEgg0nLV68uOzZsycl6piKlWBkTireleB12r9/vxQrVixght9//90eZRXwYIxBOhpjBOT07AWOHDkiBQoUkGPHjhmZN2zYIJUqVTLiBBBAAIFMFmjYsKEsXrzYaOJ9990nTz31lBEngAACCCCAAAIIIOCeQJEiRUQ7WgKl3377LWjnTKD8OSnGyJz0utvLly+XOnXqGJXWaZyC/fwbmaMI0NEYBRqnRC5QunRp2blzp3HivHnz5JJLLjHiBBBAAIFMFli1apW0bt1aNm3a5G1m48aNRee01X/4SQgggAACCCCAAALxE9CHXXw/h3mulD9/fvnzzz+Zp9ED4vfKyBw/kBTf1YUmO3bsaNRSh0zr0Ol4JToa4yVLuQ4BnWR04cKFjpju6AS8PXr0MOIEEEAAgUwX0A9q+r6oQ1CKFi0q+pSjTilBQgABBBBAwG0BVoZ1W5Ty0l3gtttukxdffNFoRsuWLeX999834gT+FWBkzr8Wqb41dOhQ6d+/v1FNfeDh3XffNeJuBehodEuSckIKdO/eXV544QUjT+/evWXEiBFGnAACCCCAAAIIIIAAAghEL8DKsNHbcWbmC+zdu1datWolX375pbex1atXl/fee08qV67sjbFhCjAyxzRJ1UjXrl1lwoQJRvX69Okjw4YNM+JuBehodEuSckIKjBo1Su666y4jT5s2bWT27NlGnAACCCCAAAIIIIAAAghEL8DKsNHbcWbOENC1BBYtWmTPVadrCjRq1EgKFiyYMxofYysZmRMjYIJO16mZFixYYFxNV13v0qWLEXcrQEejW5KUE1Lgo48+CjgXo35rtGbNmpDnchABBBBAAAEEEEAAAQTCF2Bl2PCtyIkAAghkqkCZMmVkx44dRvP0Sd5zzz3XiLsVoKPRLUnKCSmgP9z6Q+6fdLLdgwcPSp48efwPsY8AAggggAACCCCAAAJRCLAybBRonIIAAghkkIA+dVq4cGGjRbly5ZIDBw7EdQFKOhoNdgLxEjjxxBNl3759RvEbNmwQXfWLhAACCCCAAAIIIIAAArELsDJs7IaUgIBHYP/+/bJixQr74ZjatWvLCSec4DnEKwIpK7B8+XKpU6eOUb9TTz1VNm/ebMTdDNDR6KYmZYUUuOCCC+SLL74w8sydO1eaN29uxAkggAACCCCAAAIIIIBAdAKsDBudG2ch4Cugc9n17NlTDh06ZIf14ZlJkyZJ27ZtfbOxjUDKCUybNk06duxo1OvSSy+1Fz0yDrgYoKPRRUyKCi1w6623yksvvWRkev7556VHjx5GnAACCCCQqQKHDx+WwYMHy+TJk2X79u1SrVo16d+/v1xzzTWZ2mTahQACCCCQYAFWhk0wOJfLOIGVK1dK3bp1RReN8U06HHXt2rVyyimn+IbZRiClBJ544gl54IEHjDrde++98vTTTxtxNwN0NLqpSVkhBZ599lm5++67jTy9e/eWESNGGHECCCCAQKYK9O3bV4YNG2Y0b9asWdKuXTsjTgABBBBAAIFoBFgZNho1zkHgfwJPPvmk9OvXLyDHa6+9xhfEAWUIpopA165dZcKECUZ1Xn75Zbn55puNuJsBOhrd1KSskALz5s2TFi1aGHlat24t7777rhEngAACCGSiwLFjx+zJlz1DcHzb2LRpU/nkk098Q2wjgAACCCCAAAIIJEFAH4gZOXJkwCs/9dRTct999wU8lulBRuakxx1u3LixLFiwwKjskiVL5PzzzzfibgboaHRTk7JCCmzbtk3Kly9v5KlevbqsWbPGiBNAAAEEMlGAlUAz8a7SJgQQQAABBBDINIFgI/K0nVOnTpUrr7wy05ocVnsYmRMWU9Iz6dD+X375xaiHLm5UpEgRI+5mgI5GNzUpK1uBokWL2kup+2bMly+fPblunjx5fMNsI4AAAhkp8Pvvv4u+F2ZlZRnt05UMdYU4EgIIIIAAAggggEByBfTL4Zo1a4pOQeCbtANn9erV9uc533hO2GZkTnrcZf2Z1blE/VO5cuVk69at/mHX9+lodJ2UAkMJNGjQQPRRXf+0fv16qVy5sn+YfQQQQCAjBXS4wpdffmm0TeexHT58uBEngAACCCCAAAIIIJB4gY8//lhuueUW0dF5R48etTseJ06cKGeffXbiK5MCV2RkTgrchDCqsGzZMnshI/+sOpXdBx984B92fZ+ORtdJKTCUQLAJSefOnSvNmzcPdSrHEEAAgYwRWLFihbRq1cr+0OppVP369UXfC+M9lMFzPV4RQAABBBBAAAEEwhPwPNVYqFCh8E7I0FyMzEmPG6tD+zt16mRUNlEPNdDRaNATiKeAPqmjy6n7J119tU+fPv5h9hFAAIGMFThw4IDMnz/f/nZch1I3adJEmEIiY283DUMAAQQQQAABBDJCgJE5qX8bH3zwQXn88ceNir700kvSrVs3I+52gI5Gt0UpL6SAPqZ76aWXGnm0t/2tt94y4gQQQAABBBBAAAEEEEAgcgFWho3cjDMQQCB7AUbmZG+U7BwtW7a0R0r512PRokXSsGFD/7Dr+3Q0uk5KgaEEdNUjnTzXP1WqVEk2bNjgH2YfAQQQQAABBBBAAAEEohBgZdgo0DgFAQTCEmBkTlhMSct08skny969ex3X15FT+/btk0QM/6ej0UHPTiIETjvtNPnxxx+NS+3Zs0eKFy9uxAkggAACCCCAAAIIIIBA+AKsDBu+FTkRQACBTBLYuHFjwIV2zznnHPnqq68S0lQ6GhPCzEV8BVgQxleDbQQQQAABBBBAAAEE3BVgZVh3PSkNAQQQSBeBZC8Eo050NKbLT0sG1XPSpEnSpUsXo0WDBw+WAQMGGHECCCCAAAIIIIAAAgggEL4AK8OGb0VOBBBAIJMEgk2bMX36dLniiisS0lQ6GhPCzEV8BXQuxipVqviG7O3LL79cZsyYYcQJIIAAAggggAACCCCAQGQCrAwbmRe5EUAAgUwQuPjii2X+/PlGU3bv3i06d2MiEh2NiVDmGoZA2bJlZfv27Y54uXLlZOvWrY4YOwgggAACCCCAAAIIIBC5ACvDRm7GGQgggEA6C2RlZUmxYsVEF+vxTWeccYasWrXKNxTXbToa48pL4cEEOnfuLG+++aZxeMeOHVK6dGkjTgABBBBAAAEEEEAAAQQiE2Bl2Mi8yI0AAgiks8DatWvl9NNPN5pw2223ybhx44x4vAJ0NMZLlnJDCowZM0Z69uxp5Jk9e7a0adPGiBNAAAEEEEAAAQQQQAABBBBAAAEEEAgs8Nprr8l1111nHHz11Vfl2muvNeLxCtDRGC9Zyg0poEM5ateubeQZOHCgPPLII0acAAIIIIAAAggggAACCCCAAAIIIIBAYIG7775bnn32WePg5s2b5dRTTzXi8QrQ0RgvWcoNKaBzB+hEpL/++qsjX6tWrWTOnDmOGDsIIIAAAggggAACCCCAAAIIIIAAAsEFGjVqJIsWLXJkqFChgmzatMkRi/cOHY3xFqb8oALt2rUTHSrtm0qWLCk7d+70DbGNAAIIIIAAAggggAACCCCAAAIIIBBE4OjRo1KkSBE5ePCgI4cOpZ48ebIjFu8dOhrjLUz5QQWefvpp6dOnj3E80Y/1GhUggAACCCCAAAIIIIAAAggggAACCKSJwMqVK+XMM880avvCCy/IrbfeasTjGaCjMZ66lB1SYOnSpVK/fn0jz9tvvy3t27c34gQQQAABBBBAAAEEEEAAAQQQQAABBJwCr7zyitx8883OoLW3evXqgCtRGxldDNDR6CImRUUmcPjwYSlWrJjxaO/9998vTz75ZGSFkRsBBBBAAAEEEEAAAQQQQAABBBDIgQK33367jBs3ztHyEiVKyK5duxyxROzQ0ZgIZa4RVKBZs2by8ccfO47Xq1dPvv76a0eMHQQQQAABBBBAAAEEEEAAAQQQQAABU6Bq1aqyfv16xwEdKaojRhOd6GhMtDjXcwg88sgjMmjQIEcsV65c9oIw2vtOQgABBBBAAAEEEEAAAQQQQAABBBAILLBhwwapUqWKcXDEiBHSu3dvIx7vAB2N8Ram/JACixcvloYNGxp5Xn/9dencubMRJ4AAAggggAACCCCAAAIIIIAAAggg8D8BHTKtQ6f906pVq+SMM87wD8d9n47GuBNzgVACWVlZUrZsWdmxY4cj24033igTJ050xNhBAAEEEEAAAQQQQAABBBBAAAEEEPhX4IorrpCZM2f+G7C2qlevLmvWrHHEErVDR2OipLlOUIEePXrI2LFjHcfLlCkjP//8syPGDgIIIIAAAggggAACCCCAAAIIIIDA/wSOHDkixYsXlwMHDjhI+vfvL0OGDHHEErVDR2OipLlOUIGPPvpILrnkEuP4ihUrpFatWkacAAIIIIAAAggggAACCCCAAAIIuCvw22+/yfLly2XlypWiHVglS5a0RyCed955UrBgQXcvRmmuCCxatEgaNWpklPXll1/Kueeea8QTEaCjMRHKXCOkwOHDh6VUqVKib2q+6emnn5Z7773XN8Q2AggggAACCCCAAAIIIIAAAgi4JKAdi4899ph89dVXsmXLloClFihQwF5boVu3btKpUyfJmzdvwHwEEy8wcOBA+/75XrlcuXL2vdSFdpOR6GhMhjrXNARuuOEGmTx5siPevHlzmTt3riPGDgIIIIAAAggggAACCCCAAAIIxC6gD/f069dPjh49GnZhFSpUkIcfflhuuummsM8hY/wE6tevL0uXLnVcoFevXjJq1ChHLJE7dDQmUptrBRXQiUt1AlPfdNxxx9lPOeorCQEEEEAAAQQQQAABBBBAAAEE3BF4/fXX5dprr3UUVrp0abnrrrvktNNOkz179sjXX38tkyZNkn/++ceRT3cuvvhiefHFF6VKlSrGMQKJEfj111+lRIkScuzYMccFP/nkE2natKkjlsgdOhoTqc21ggocPHjQ/gXRV9+kTzTqk40kBBBAwC0B5p5xS5JyEEAAAQQQQAABBNJRQJ9grFatmmzcuNFb/apVq9rDp4sVK+aN6caPP/4oXbt2lQULFjjiuqMdkzt27DDiBBIjMHXqVHsou+/VdGGYnTt3Sp48eXzDCd2mozGh3FwslED79u1lxowZjiw6R6M+zk1CAAEEYhFg7plY9DgXAQQQQAABBBBAIJMEVq9eLTVq1HA0SZ9w7Ny5syPm2dEVjRs0aCCrVq3yhOxXHba7ePFiR4ydxAnccsstMn78eMcFdUj7hAkTHLFE79DRmGhxrhdU4NVXX5Xrr7/ecVxXndbVp0kIIIBAtALMPROtHOchgAACCCCAAAIIZKLAe++9J61bt3Y0bdasWdKuXTtHzHfnp59+sjsndTFXT7rzzjtl5MiRnl1eEyyg82X6L+DzzjvvSNu2bRNcE+fl6Gh0erCXRIF9+/ZJyZIlxfeNS6vz888/S5kyZZJYMy6NAALpKsDcM+l656g3AggggAACCCCAQLwEdBh048aNHcXfcccdMnr0aEfMf+e6666T1157zRvWh4X853n0HmQjrgJr1qyRM844w3GNQoUKye7duyXZ61zQ0ei4LewkW6BFixYyb948RzUmTpwoN954oyPGDgIIIJCdAHPPZCfEcQQQQAABBBBAAIGcKKALvZQqVcqxiEjevHntORrr1KkTlEQXhznvvPO8x9etWyc6tyMp8QK6qrQu3OObOnbsKFOmTPENJWWbjsaksHPRYALjxo2T22+/3XG4Q4cOMm3aNEeMHQQQQCA7AeaeyU6I4wgggAACCCCAAAI5VeCyyy4THWbrm+rVqydffPGF5M+f3zfMdgoKNGvWTD7++GNHzULNs+nIGOcdOhrjDEzxkQnoilVly5aVrKws74kFChSQX375RfxXv/JmYAMBBBAIIMDcMwFQCCGAAAIIIIAAAgggYAksXbpUGjZs6HiqUWG6d+8uY8eOxSiFBXR6uVNPPdVx77RzWIdNFylSJOk1p6Mx6beACvgLXHDBBfa3KL7xF154QW699VbfENsIIIBASAHmngnJw0EEEEAAgRwkoF/i58qVKwe1mKYigEA4Avfee68MHz7cyKojDW+77TYjTiA1BIYNGyZ9+/Z1VObSSy8VfdAiFRIdjalwF6iDQ0CXZ9dl2n1To0aNRDsNSAgggEC4Asw9E64U+RBAAAEEMklAn2jR4XO6guymTZvshRV13mKdj00XWNT51XTxBn2SiYQAAjlb4NChQ6J/a3/77bcOCJ2vUddOaNq0qSPOTmoInHnmmbJy5UpHZaZOnSpXXnmlI5asHToakyXPdYMK/Pnnn/bw6f379zvybNiwQSpVquSIsYMAAgiEEmDumVA6HEMAAQQQyCSBI0eOyCOPPCJDhw4V3c4u1a1bV3TF2Bo1amSXleMIIJDBAtu2bbNXL/7jjz8crTzppJPkm2++kYoVKzri7CRXYNmyZaLv377plFNOkc2bN0u+fPl8w0nbpqMxafRcOJRAr1695LnnnnNk0Q9OAwcOdMTYQQABBEIJMPdMKB2OIYAAAghkioA+xd+qVSt7xVj/Nh1//PHy999/iz7V6J+OO+44mTBhgnTu3Nn/EPsIIJADBH799Vd57LHH5Nlnnw3YWu3QWrRokRQsWDDgcYKJFwg03P3BBx+072PiaxP4inQ0BnYhmmSBH374QWrVquWoRbVq1WTdunWOGDsIIIBAdgKB/jHWc5h7Jjs5jiOAAAIIpIPAP//8I//5z39k4cKFjupqTOdeq127tujwyA8//NCenmjXrl2OfLqAwCeffCI6TzoJAQRyhoB++TB69Gh5/PHHZd++fSEbfcMNN8ikSZNC5uFgYgT0C6Ny5crZi+V6rpgnTx7ZuHGjlC9f3hNK+isdjUm/BVQgmMBFF10kn3/+uePw4sWLpX79+o4YOwgggEAoAeaeCaXDMQQQQACBdBfQFWJ14UTf1LZtW5k5c6bkzp3bN2zP16hzM27ZssUR1/kb16xZI8WKFXPE2UEAgcwTmDZtmvTp08eew9W3dc2bN7eH365du9Y3bG/rOR06dDDiBBIr8MEHH4gu+uKb2rVrZ8/J6xtL9jYdjcm+A1w/qMAbb7wh11xzjeN4jx495Pnnn3fE2EEAAQSyE2DumeyEOI4AAgggkI4CuhjAWWedJceOHfNW/+STTxad27xw4cLemO+GLhjQqVMn35C9PWjQIHn44YeNOAEEEMgcgREjRsg999zjaJC+Z+jQaV0kSheTqlOnjmzfvt2Rp0SJErJ69WopXry4I85OYgX0HuliX75JV5r273z0PZ6MbToak6HONcMS0GEg+viv7/AOfWPTNz0d4kFCAAEEwhFg7plwlMiDAAIIIJCOAldccYX95KJv3XUo5AMPPOAbMrZ1mPQXX3zhiJ944on2E05FihRxxNlBAIHMEBg2bJj07dvX0Rh9L9AV6n07ED/++GNp1qyZI5/uPProo/LQQw8ZcQKJEfj999+ldOnScvDgQe8FdbHcn376yXh63ZshSRt0NCYJnsuGJ9C/f3975Tzf3DNmzJDLL7/cN8Q2AgggYAgw94xBQgABBBBAIIME9KnFKlWqOFqUK1cu+0t5/WM0VNJFF3XxRf+k87DpfGwkBBDILAH9AkIXDPFNOtefripdsmRJ37C93bRpU/n0008d8bJly9pfRuTNm9cRZycxAhMnTpSbbrrJcbGhQ4canceODEnaoaMxSfBcNjwBndS0atWqjuEg7du3l7fffju8AsiFAAI5UoC5Z3LkbafRCCCAQI4SeOaZZ+S+++5ztFlXiP32228dsUA7+hm7cuXKxqGrr75adPoiEgIIZI6ALgqliyP6Jl1xXheQqlevnm/Yu60LROmCUv5Jp1648sor/cPsJ0BA74feF0/SUZ46PZQOa0+1REdjqt0R6mMItGrVSt5//31vXH+hfvnlF9HhHSQEEEDAX4C5Z/xF2EcAAQQQyESBQMOfde417YAMJ9WoUcOec80370knnWRPW6SrmJIQQCC0wGeffWYvqhI6V3yPXnLJJfbK0cGuonMu6pcKf/zxhyPL5MmT5brrrnPE/HdOOeUUx+rGelznAtQ5AUmJFdi6datUrFjR8QBW586djfkaE1ur4FejozG4DUdSRGD27NmiKyn5Jh3u0bNnT98Q2wgggIAw9ww/BAgggAACOUFg3759op2CWVlZjuaOHz9eunbt6ogF2wm0qIDmXbVqlZxxxhnBTiOOAAL/L6BTDXTp0iWpHtl1/OlTz/5fPjRo0MCYozVQI/QJ57feestxSOcE1GkbSIkVCDT0/fPPP5cLL7wwsRUJ82p0NIYJRbbkCRw9etT+FmbLli3eSui3MuvWrRO+bfWSsIFAjhcI9A8wc8/k+B8LABBAAIGMFFi0aJE0atTIaJsOhdQnHcNJAwcOlMcee8zIqgtD+H/Jb2QigAACkuodjTt27LDncT106JDjboXzNKOeMHr0aLnzzjsd5+bLl090HnSdDzbcdOzYMdFr6hOgbdq0EZ0KLdy0ZMkS+8uPcPMHyqcjIXXhLLdTLO2KpC56/7SDd+fOnd7TatWqJStWrPDup9yG9S0YCYGUFxg8eLB+Xev479VXX035elNBBBBIjID1Ta3j/UHfL6y5Z7K+/vrroBWwVtQzztHzrLlngp7DAQQQQAABBFJB4IUXXgj4b9j69evDrp61sEDAMp5++umwyyAjAjlZINjvkP/frfHct55oDHoLrBGAxu+4NZ9fltVRGPQc3wPWnOfG+dqW7du3+2YLuW1NgZZVu3Ztbzm33357yPz+B60nRr3nRutYpkwZ/2Jj3o+1XZFUwBrNaRhoLJUTTzRaP62k1BfYs2eP/VSjLunuSdqL//3330f0bYrnXF4RQCBzBJh7JnPuJS1BAAEEEAhPoHfv3jJy5Egj865du8JeGECffgw07K579+4yduxYo2wCCCDgFPj1119Fh68mM+lIP6sjL2AVihUrJvv373cc69+/vwwZMsQRC7Yzf/58ufjii43DS5culfPOO8+I+wZ0Uar7779frC/2fcNy9913iy5OE266/PLLRZ+yjiV17NhRpkyZEksR3nPdape3wGw2jhw5Yi+Ou3nzZm9OXSXc+lJJChUq5I2l3EYq94JSNwR8BazhHUZPvvWm45uFbQQQyIEC1ip6xnuDNfdMWBJXXXWVca41NCGsc8mEAAIIIIBAsgTatm1r/Ptl/aGZdfDgwbCrZM2zFrAM/beRhAAC6S1gLZ4a8PfbelAn7IZZQ50DlmENZw5axqZNm7Ks+V+zrKHVAc+1Oh+DnhvoQOPGjQOWo+934f5ndQ4GKjqimNvtCvfigZ6atRa+DPf0pOXjicaU6/qlQsEEDhw4YD/VuHfvXm+W888/X3TeBhICCORMAeae+d99T/e5Z3LmTy+tRgABBKIX0KeM9Gkj36Rzl+vTL+Emne+rdOnSRnarE1PeeecdI04AAQTSR2DBggViddIZFf7zzz/l+OOPN+KBAtOnT5cOHToYh37++WexhiM74vrkpD4pOWrUKPnrr78cx3x3HnjggZCrZPvm1e0zzzxTVq5caYf1CT6da/HUU08VnSsyWLKmlhD9G0FTdovlBCvDE49Xuzzlh3rVOSB1FOfq1au92cqXLy8//vijFChQwBtLyY2kdXFyYQSiEHjqqaeMby50njUSAgjkTAHmnvnft7npPvdMzvzppdUIIIBA9ALnnHOO8Zm4aNGiERVo/QFtlGH9wZpldWJGVA6ZEUAg9QReeukl4/fbGnIbUUWff/55owyrgy/LWqzVUc7rr7+eVbx4cUdea+X6LGvVauPJxgcffNBxbnY7ZcuWtcvNnz9/lrUYbHbZs3766aesvHnzeutidbhme06wDPFsV7Br+sbffvttbzv0vVn/Gz9+vG+WlN2WlK0ZFUMggIAOB9E/qD2/aPr6n//8J0BOQgggkBME9I8q3/cD3bbmngm76Z988olxvpZhzT2TbRnffPON/f7jf31r7plsz/XNcNlllwWsg3+5ofatuWd8i4xp2612xVQJTkYAAQQQCClw+umnG/92RPql0z///GOUof/WWCOGQl6bgwggkPoCffr0MX6/rXkVI6r4NddcY5RRvXp1o4yhQ4d68+l704cffujNYz2R6D2m7y8PPfSQ91g4G9bTl/b5+nk5nHT99dd7r2fNQRvOKUHzxLNdQS/qc6BevXretqjdaaedlmU9te6TI3U36WhM3XtDzYIIjBs3zvELp7904XQKBCmOMAIIpKkAc8/8OzdNOs89k6Y/flQbAQQQSKqANXzO+DxsDSuMuE7WcGujHH1akoQAAuktoE8T6t/Jvv9Zw6DDbpQ1bDdLV6j2PV+3BwwYYJRhLdiapR2Q2jGnX2D4pubNmzvKiLSjcebMmVmTJk3KCmduyVWrVmXlzp3bez1dGTqWFM92ZVevuXPnetvhuQdvvfVWdqelzHHmaLTuGim9BA4fPizWo9j2SkuemutqVDNmzPDs8ooAAjlAgLln0n/umRzwY0oTEUAAgbgI6Dxd27Ztc5St85b5rkzqOBhkR+dqO3TokOOozutmLQLhiLGDAALpJXDrrbeKNXzaUel27dqFvYKzrqZ90UUXOc7XnbVr14r1ZJ0RDxZo0aKFzJs3z3vY6miURx991Lvv5oa1kJV3dem6deuKrhAdrxTvdjVp0sTxPqztsUYdibXITrya5Gq5dDS6yklhiRJ47bXX5LrrrvNeTn/hVqxYITVr1vTG2EAAgcwWsOYokVtuucXRSGvuGdHJ7cNNY8aMEWueR0d2nVxaJ7G2vhH1xt944w3p1auX+C5GpV94nHXWWWJ9u6ijA7x5rbln5LHHHvPuZ7dRrlw50Um1rbln7Mmuq1WrFvKU9evXizUsxTvhv3a4NmrUKOQ5wQ7Gs13BrkkcAQQQQCB2AevpIbHmK3MUVKpUKbGe9nfEstvRf3v0S3zfFOviCb5lsZ1Ygccff1wWLlzouKj+nfTyyy/LKaec4oh7dqxVgO2/ozz7+mrNcSfW/HRSuHBh37B3u3v37kandsGCBWXq1KmiixKRki/wyCOPyKBBgxwVqV27tixfvtwRC7bTrFkzsdZCcBxu2LChLFq0yBHLbifeHXKe62u7tDPO85l8ypQpYk0t5Dns+ms82/XFF1/IBRdc4KjznDlzpFWrVo5YSu+kzLOVVASBCAR0Alr/+R6sjscISiArAgikuwBzz0hWus89k+4/g9QfAQQQSJZAnTp1jGF1J554YkTV0aGR1h+qxn9XXnllROWQOXUEdO76QPc01BQr1pemAc/ZunVr0Ib5z5nvuab1dGzQcziQWIFAC4lYncFZu3fvzrYiOsei5556XnWBFZ3HO9IU69DpcK/nO+e5DuP2X7Am3HLCzRfPdrVp08bhbz1QEG61UiYfczSmzK2gIpEKzJo1y/ELqG9+Oi8DCQEEcoYAc89IVjrPPZMzfkppJQIIIBAfAevJIsfnYO0M0M/C2nkYbtJOIU8ngu/rjTfeGG4R5EsxAToaU+yGJLE61uicrGLFihm/49ktWmgNjTZWkNb3h4EDB0bVmnh2yHkq9OWXXzraOWHCBM+huL3Gq11LlixxtEXtrWHscWtHvAqmozFespSbEIH69es7fhGteSQScl0uggACyRewhk07fv/1H2Jr7pmwK2bNP2Wcr2XoB6xIUrw+aASqQ6dOnbx1toaHBMriWiyR7XKt0hSEAAII5BABa9ie998D/bfL89+ePXvCFrCm7fCe5zlfXx944IGwyyBjagnQ0Zha9yPZtdGFV3x/t3Xbmi4ha+zYsQGrpk8yWnO9Guc0bdrUWOQlYAEBgon4PNmyZUtvnXWhLP8FaQJUK+ZQPNqlK0r7P62ubUvHREdjOt416uwV+OSTT7xvKp430YkTJ3qPs4EAApkrYM07Y/z+W3PPhN3gQB/G9QmRSFM8PmgEqsOyZcuyrHmWvG225p4JlM21WKLa5VqFKQgBBBDIQQLWQg/efw88n4H1NZLRPTqc1vdczzafpdP3BynQZxu9rwydTt97GkvNtePKWtwp4O+5Tr/z8MMPZ+nv+7Bhw7Ks+f8C5uvatWtMHXfx/jxpzVXuqPeoUaNiIQv73Hi0a/jw4Y626Of+aIarh92IOGakozGOuBSdGIEbbrjB8Qt58sknZ1kLNiTm4lwFAQSSJsDcM0fjah+PD1BxrTCFI4AAAjlIQDsGPB2Dvq/6RFK46b333gtYhrUQQbhFkC/FBOhoTLEbkgLV2b9/f1aXLl0C/q77vnf4b5900klZI0eOjLkF8f48aa3O7G1biRIlsg4ePBhzncMpwO126ZyohQoV8rZF70fv3r3DqUpK5qGjMSVvC5WKROC3337LKlu2rOOXUr95ISGAQGYLMPdMfO+v2x+g4ltbSkcAAQRylsCMGTMcn309nQTPPvts2BCjR48OWAZf2IdNmHIZfRfE8PxM6FNRa9asCVrXYPN97tq1K+g5p512mvGzowuNJGLIatBKcSCkwLx587I6d+5sdGZ5fk48rzVq1MgaN25c1p9//hmyvHAPxvPzpLUqtuPncMiQIeFWK+Z8brfriiuucLRFf8cS1WkaM0aAAuhoDIBCKP0EdEEEz5ujvuo/qPoYNQkBBDJbgLln4nd/3f4AFb+aUjICCCCQ8wR++uknx2dfz+fgbt26hY0RaK5jXYGYhAACmSugi0DpUHr9+1mHTY8ZMyZLv7jQKXr27dvnesPj+XmyQYMG3vfBokWLxqX+wUDcbNfs2bO97dD38ty5c2el+5PldDQG+8khnnYC+sHK8yFLX2vWrMm3aml3F6kwApEJMPdMZF6R5HbzA1Qk1yUvAggggEB4ApUrV3Z89tXPv5HMVXzuueca5/fv3z+8i5MLAQQQCEMgXp8n58yZ43j/SvR7l1vt0idHK1So4GjL/fffH4ZsamehozG17w+1i0DgwIEDxi/p0KFDIyiBrAggkI4CzD0Tn7vm1geo+NSOUhFAAAEEbr/9dscfp54v3Ddv3pwtzs6dO+2nZjzneF4ZEZQtHRkQQCACgXh8njx27FhWvXr1vO9/Omw/1FD/CKobdla32qWdip73X33Vh6V0eqh0T3Q0pvsdpP4OgY8++sixKuvxxx+ftXHjRkcedhBAIDMFmHvG3fvq1gcod2tFaQgggAACHgH9d8/3D1TP9ogRIzxZgr6++OKLxrm1atXK0j/gSQgggIBbAvH4PDl9+nTH+1evXr3cqm7Y5bjRrhUrVmTlzZvX2xbd/uqrr8KuQypnzKWVs/5RIiGQMQJ33HGHPP/88972tG7dWt59913vPhsIIJDZAta3gLJ69Wqxntaw/7MmUpZTTjlFKlWqJBUrVhRrDhdXAVq0aCHWH3veMq15I+XRRx/17seyYU3QLosXL7aL0HpbT6m4Xv9g9Ytnu4JdkzgCCCCAQGQCZ599tnz33XeOk6xFEsWaw1GOO+44R9yzc/ToUbE6FcVaIMQTsl/ffPNNueqqqxwxdhBAAIFYBJo1aybWoi3eIgYMGCCDBw/27ke6YX0ZInXq1BGrk84+NV++fLJ+/XopX758pEXFlD/Wdmk33IUXXiiLFi3y1sPNvyG8hSZrI5V7QakbAtEI/PHHH1lVqlTxfjNg/W5l6QSrJAQQQCAeAm58oxmoXpky90ygthFDAAEEEHBHYNq0aY7PvPq5V//r169f0AsMHz7cOEfndrQ6IIOewwEEEEAgGgF9b/G8L+lrrE8fvvHGG47ybrrppmiqlXXPPffYIyF1EVn9TxfEiSTF2q7Jkyc72qELcWXSqu080Wj9tJMyT8CaX0aaNGki+o1HkSJFxFpVS/TJIBICCCDgtkA8nvyzPuiINUm/fPPNN3Z1rbln7KcZS5Qo4Xb1g5YXj3YFvRgHEEAAAQSiFujUqZNMnTrVOP+JJ56QPn36SJ48ebzHJkyYINZq0/ZnZE9Qn5i3hutJtWrVPCFeEUAAgZgFfvjhB7E60ESfovakGjVqiLXCteiTiJEmLceaw1DWrl1rn2qtziyrVq2S6tWrR1qU3HXXXTJq1Cjvec8995z07NnTux9qw412zZ8/X9q1ayfWQ1K2hb4Hq1WmJDoaM+VO0g5DwPqWQmbNmiXW04yib2gkBBBAIB4C8eiQs75Vlfbt23ura3376/gw5D0Qx414tCuO1aVoBBBAIMcKWKuW2l+of//994bB6aefLvp+rn/Uf/bZZ3aHom+m/Pnzy8yZM+XSSy/1DbONAAIIRCSwfft22bZtm1gLtIpu65fl//3vf2Xfvn1GOdZCLtK5c2epWrWq6Jfo+oW6TnFUrFgxI69vYNKkSdKlSxdvqGPHjjJlyhTvfiQbOoR7yJAh3lOCDemOZ7t0+Hfbtm2lW7du8uCDD3rrkgkbdDRmwl2kDQEF9Ikg/U+/6SAhgAAC8RKIdY4W/3plytwz/u1iHwEEEEAgfgL79++X7t27i86zGG7SJxg1v87zSEIAAQRiEdCnAceMGRN1EdqJeMMNNwQ9X/+ut6ZHE2uhV2+eb7/9VurWrevdj2Sjf//+MnToUO8p2umoMf8U73b5Xy9T9ulozJQ7STsQQAABBJIioMMcfJ8iifXpQ/2jT7/l9SRr7hnRoW6RpHvvvVesVUe9p1ir88nll1/u3Q9nw+12hXNN8iCAAAIIxCagTyeOHz9e5s6dK0eOHAlYmL6/61NB+hRNoUKFAuYhiAACCEQioKMJfT97RnKu5s1uMSp9P9MnsLXDUVPLli3t6dHsnSj+p1NI6HulJ1lzo0urVq08u97XeLfLe6EM26CjMcNuKM1BAAEEEEicgBtztPjW1q25Z2KZd0br43a7fNvINgIIIIBA/AX27t0r69atk59//lmshQ7k0KFDUq5cOalQoYI9RDH+NeAKCCCAgLsCe/bs8X6BUrhwYTnhhBOivoCu56DTSWjKmzevPey7VKlSUZfHiU4BOhqdHuwhgAACCCAQUCCec7R4LujW3DPhzjuj101Euzzt4xUBBBBAAAEEEEAAgWQKbNmyRSpWrOh9OjLY/IzJrGO6X5uOxnS/g9QfAQQQQCAhAvGeo8XNuWfCnXdG4eLdroTcHC6CAAIIIIAAAggggEA2AjoXuk4npAvGaqpVq5a9cI0Oyya5J0BHo3uWlIQAAgggkMEC8Z6jxc25Z8Kdd0ZvV7zblcE/EjQNAQQQQAABBBBAII0E+vXrJ08++aRd4zp16ojOzVimTJk0akF6VJVZg+w4AAADZklEQVSOxvS4T9QSAQQQQCAHCLg19wzzzuSAHxaaiAACCCCAAAIIIBCRgK4urUOlW7RoIVOnThWd65HkvgAdje6bUiICCCCAAAJJE2DemaTRc2EEEEAAAQQQQACBFBeYOXOmtGnTxl4EJsWrmrbVo6MxbW8dFUcAAQQQQMApwLwzTg/2EEAAAQQQQAABBBBAILECdDQm1purIYAAAgggEDcB5p2JGy0FI4AAAggggAACCCCAQBgCdDSGgUQWBBBAAAEE0kGAeWfS4S5RRwQQQAABBBBAAAEEMleAjsbMvbe0DAEEEEAgBwow70wOvOk0GQEEEEAAAQQQQACBFBGgozFFbgTVQAABBBBAAAEEEEAAAQQQQAABBBBAIJ0F6GhM57tH3RFAAAEEEEAAAQQQQAABBBBAAAEEEEgRAToaU+RGUA0EEEAAAQQQQAABBBBAAAEEEEAAAQTSWYCOxnS+e9QdAQQQQAABBBBAAAEEEEAAAQQQQACBFBGgozFFbgTVQAABBBBAAAEEEEAAAQQQQAABBBBAIJ0F6GhM57tH3RFAAAEEEEAAAQQQQAABBBBAAAEEEEgRAToaU+RGUA0EEEAAAQQQQAABBBBAAAEEEEAAAQTSWYCOxnS+e9QdAQQQQAABBBBAAAEEEEAAAQQQQACBFBGgozFFbgTVQAABBBBAAAEEEEAAAQQQQAABBBBAIJ0F6GhM57tH3RFAAAEEEEAAAQQQQAABBBBAAAEEEEgRAToaU+RGUA0EEEAAAQQQQAABBBBAAAEEEEAAAQTSWYCOxnS+e9QdAQQQQAABBBBAAAEEEEAAAQQQQACBFBGgozFFbgTVQAABBBBAAAEEEEAAAQQQQAABBBBAIJ0F6GhM57tH3RFAAAEEEEAAAQQQQAABBBBAAAEEEEgRAToaU+RGUA0EEEAAAQQQQAABBBBAAAEEEEAAAQTSWYCOxnS+e9QdAQQQQAABBBBAAAEEEEAAAQQQQACBFBGgozFFbgTVQAABBBBAAAEEEEAAAQQQQAABBBBAIJ0F6GhM57tH3RFAAAEEEEAAAQQQQAABBBBAAAEEEEgRAToaU+RGUA0EEEAAAQQQQAABBBBAAAEEEEAAAQTSWYCOxnS+e9QdAQQQQAABBBBAAAEEEEAAAQQQQACBFBH4P+1wLJSDrpLbAAAAAElFTkSuQmCC;" vertex="1" parent="1">
          <mxGeometry x="640" y="478.64" width="442.5" height="104.36" as="geometry" />
        </mxCell>
      </root>
    </mxGraphModel>
  </diagram>
</mxfile>
